<svg width="305" height="305" viewBox="0 0 305 305" fill="none" xmlns="http://www.w3.org/2000/svg">
<g clip-path="url(#clip0_1628_4380)">
<g opacity="0.1">
<path d="M305 236.693H6.56701e-08L0 235.942H305V236.693Z" fill="url(#paint0_linear_1628_4380)"/>
<path d="M305 260.521H6.56701e-08L0 259.77H305V260.521Z" fill="url(#paint1_linear_1628_4380)"/>
<path d="M305 284.349H6.567e-08L0 283.598H305V284.349Z" fill="url(#paint2_linear_1628_4380)"/>
<path d="M212.228 0V305H211.477V3.283e-08L212.228 0Z" fill="url(#paint3_linear_1628_4380)"/>
<path d="M236.056 0V305H235.305V3.28e-08L236.056 0Z" fill="url(#paint4_linear_1628_4380)"/>
<path d="M259.884 0V305H259.133V3.29001e-08L259.884 0Z" fill="url(#paint5_linear_1628_4380)"/>
<path d="M283.716 0V305H282.965V3.28e-08L283.716 0Z" fill="url(#paint6_linear_1628_4380)"/>
<path d="M305 212.865H6.56701e-08L0 212.114H305V212.865Z" fill="url(#paint7_linear_1628_4380)"/>
<path d="M188.399 0V305H187.648V3.283e-08L188.399 0Z" fill="url(#paint8_linear_1628_4380)"/>
<path d="M305 189.037H6.56701e-08L0 188.286H305V189.037Z" fill="url(#paint9_linear_1628_4380)"/>
<path d="M164.571 0V305H163.82V3.284e-08L164.571 0Z" fill="url(#paint10_linear_1628_4380)"/>
<path d="M305 165.209H6.56601e-08L0 164.458H305V165.209Z" fill="url(#paint11_linear_1628_4380)"/>
<path d="M140.743 0V305H139.992V3.283e-08L140.743 0Z" fill="url(#paint12_linear_1628_4380)"/>
<path d="M305 141.381H6.56701e-08L0 140.629H305V141.381Z" fill="url(#paint13_linear_1628_4380)"/>
<path d="M116.916 0V305H116.165L116.164 3.283e-08L116.916 0Z" fill="url(#paint14_linear_1628_4380)"/>
<path d="M305 117.552H6.56692e-08L0 116.801H305V117.552Z" fill="url(#paint15_linear_1628_4380)"/>
<path d="M93.0871 0V305H92.3359V3.283e-08L93.0871 0Z" fill="url(#paint16_linear_1628_4380)"/>
<path d="M305 93.7243L6.56701e-08 93.7244L0 92.9732L305 92.9731V93.7243Z" fill="url(#paint17_linear_1628_4380)"/>
<path d="M69.2589 0L69.259 305H68.5078V3.283e-08L69.2589 0Z" fill="url(#paint18_linear_1628_4380)"/>
<path d="M305 69.8962H6.56e-08L0 69.1451L305 69.145V69.8962Z" fill="url(#paint19_linear_1628_4380)"/>
<path d="M45.4309 0V305H44.6798L44.6797 3.284e-08L45.4309 0Z" fill="url(#paint20_linear_1628_4380)"/>
<path d="M305 46.0681H6.56992e-08L0 45.3169H305V46.0681Z" fill="url(#paint21_linear_1628_4380)"/>
<path d="M21.6028 0V305H20.8516V3.2835e-08L21.6028 0Z" fill="url(#paint22_linear_1628_4380)"/>
<path d="M257.027 69.896C258.352 69.4058 259.396 68.3613 259.886 67.0366C260.377 68.3613 261.421 69.4058 262.746 69.896C261.421 70.3861 260.377 71.4306 259.886 72.7553C259.396 71.4306 258.352 70.3861 257.027 69.896Z" fill="url(#paint23_linear_1628_4380)"/>
<path d="M257.027 46.0678C258.352 45.5776 259.396 44.5332 259.886 43.2085C260.377 44.5332 261.421 45.5776 262.746 46.0678C261.421 46.558 260.377 47.6025 259.886 48.9272C259.396 47.6025 258.352 46.558 257.027 46.0678Z" fill="url(#paint24_linear_1628_4380)"/>
<path d="M257.027 93.7241C258.352 93.2339 259.396 92.1894 259.886 90.8647C260.377 92.1894 261.421 93.2339 262.746 93.7241C261.421 94.2143 260.377 95.2587 259.886 96.5835C259.396 95.2587 258.352 94.2143 257.027 93.7241Z" fill="url(#paint25_linear_1628_4380)"/>
<path d="M257.027 117.552C258.352 117.062 259.396 116.018 259.886 114.693C260.377 116.018 261.421 117.062 262.746 117.552C261.421 118.042 260.377 119.087 259.886 120.412C259.396 119.087 258.352 118.042 257.027 117.552Z" fill="url(#paint26_linear_1628_4380)"/>
<path d="M257.027 141.38C258.352 140.89 259.396 139.846 259.886 138.521C260.377 139.846 261.421 140.89 262.746 141.38C261.421 141.871 260.377 142.915 259.886 144.24C259.396 142.915 258.352 141.871 257.027 141.38Z" fill="url(#paint27_linear_1628_4380)"/>
<path d="M257.027 165.209C258.352 164.718 259.396 163.674 259.886 162.349C260.377 163.674 261.421 164.718 262.746 165.209C261.421 165.699 260.377 166.743 259.886 168.068C259.396 166.743 258.352 165.699 257.027 165.209Z" fill="url(#paint28_linear_1628_4380)"/>
<path d="M257.027 212.865C258.352 212.375 259.396 211.33 259.886 210.005C260.377 211.33 261.421 212.375 262.746 212.865C261.421 213.355 260.377 214.399 259.886 215.724C259.396 214.399 258.352 213.355 257.027 212.865Z" fill="url(#paint29_linear_1628_4380)"/>
<path d="M257.027 189.037C258.352 188.546 259.396 187.502 259.886 186.177C260.377 187.502 261.421 188.546 262.746 189.037C261.421 189.527 260.377 190.571 259.886 191.896C259.396 190.571 258.352 189.527 257.027 189.037Z" fill="url(#paint30_linear_1628_4380)"/>
<path d="M257.027 236.693C258.352 236.203 259.396 235.158 259.886 233.834C260.377 235.158 261.421 236.203 262.746 236.693C261.421 237.183 260.377 238.228 259.886 239.552C259.396 238.228 258.352 237.183 257.027 236.693Z" fill="url(#paint31_linear_1628_4380)"/>
<path d="M257.027 260.521C258.352 260.031 259.396 258.986 259.886 257.662C260.377 258.986 261.421 260.031 262.746 260.521C261.421 261.011 260.377 262.056 259.886 263.38C259.396 262.056 258.352 261.011 257.027 260.521Z" fill="url(#paint32_linear_1628_4380)"/>
<path d="M257.027 284.349C258.352 283.859 259.396 282.815 259.886 281.49C260.377 282.815 261.421 283.859 262.746 284.349C261.421 284.84 260.377 285.884 259.886 287.209C259.396 285.884 258.352 284.84 257.027 284.349Z" fill="url(#paint33_linear_1628_4380)"/>
<path d="M280.855 69.896C282.18 69.4058 283.224 68.3613 283.714 67.0366C284.205 68.3613 285.249 69.4058 286.574 69.896C285.249 70.3861 284.205 71.4306 283.714 72.7553C283.224 71.4306 282.18 70.3861 280.855 69.896Z" fill="url(#paint34_linear_1628_4380)"/>
<path d="M280.855 46.0678C282.18 45.5776 283.224 44.5332 283.714 43.2085C284.205 44.5332 285.249 45.5776 286.574 46.0678C285.249 46.558 284.205 47.6025 283.714 48.9272C283.224 47.6025 282.18 46.558 280.855 46.0678Z" fill="url(#paint35_linear_1628_4380)"/>
<path d="M280.855 93.7241C282.18 93.2339 283.224 92.1894 283.714 90.8647C284.205 92.1894 285.249 93.2339 286.574 93.7241C285.249 94.2143 284.205 95.2587 283.714 96.5835C283.224 95.2587 282.18 94.2143 280.855 93.7241Z" fill="url(#paint36_linear_1628_4380)"/>
<path d="M280.855 117.552C282.18 117.062 283.224 116.018 283.714 114.693C284.205 116.018 285.249 117.062 286.574 117.552C285.249 118.042 284.205 119.087 283.714 120.412C283.224 119.087 282.18 118.042 280.855 117.552Z" fill="url(#paint37_linear_1628_4380)"/>
<path d="M280.855 141.38C282.18 140.89 283.224 139.846 283.714 138.521C284.205 139.846 285.249 140.89 286.574 141.38C285.249 141.871 284.205 142.915 283.714 144.24C283.224 142.915 282.18 141.871 280.855 141.38Z" fill="url(#paint38_linear_1628_4380)"/>
<path d="M280.855 165.209C282.18 164.718 283.224 163.674 283.714 162.349C284.205 163.674 285.249 164.718 286.574 165.209C285.249 165.699 284.205 166.743 283.714 168.068C283.224 166.743 282.18 165.699 280.855 165.209Z" fill="url(#paint39_linear_1628_4380)"/>
<path d="M280.855 212.865C282.18 212.375 283.224 211.33 283.714 210.005C284.205 211.33 285.249 212.375 286.574 212.865C285.249 213.355 284.205 214.399 283.714 215.724C283.224 214.399 282.18 213.355 280.855 212.865Z" fill="url(#paint40_linear_1628_4380)"/>
<path d="M280.855 189.037C282.18 188.546 283.224 187.502 283.714 186.177C284.205 187.502 285.249 188.546 286.574 189.037C285.249 189.527 284.205 190.571 283.714 191.896C283.224 190.571 282.18 189.527 280.855 189.037Z" fill="url(#paint41_linear_1628_4380)"/>
<path d="M280.855 236.693C282.18 236.203 283.224 235.158 283.714 233.834C284.205 235.158 285.249 236.203 286.574 236.693C285.249 237.183 284.205 238.228 283.714 239.552C283.224 238.228 282.18 237.183 280.855 236.693Z" fill="url(#paint42_linear_1628_4380)"/>
<path d="M280.855 260.521C282.18 260.031 283.224 258.986 283.714 257.662C284.205 258.986 285.249 260.031 286.574 260.521C285.249 261.011 284.205 262.056 283.714 263.38C283.224 262.056 282.18 261.011 280.855 260.521Z" fill="url(#paint43_linear_1628_4380)"/>
<path d="M280.855 284.349C282.18 283.859 283.224 282.815 283.714 281.49C284.205 282.815 285.249 283.859 286.574 284.349C285.249 284.84 284.205 285.884 283.714 287.209C283.224 285.884 282.18 284.84 280.855 284.349Z" fill="url(#paint44_linear_1628_4380)"/>
<path d="M233.199 69.896C234.524 69.4058 235.568 68.3613 236.058 67.0366C236.548 68.3613 237.593 69.4058 238.918 69.896C237.593 70.3862 236.548 71.4306 236.058 72.7553C235.568 71.4306 234.524 70.3862 233.199 69.896Z" fill="url(#paint45_linear_1628_4380)"/>
<path d="M233.199 46.0678C234.524 45.5776 235.568 44.5332 236.058 43.2085C236.548 44.5332 237.593 45.5776 238.918 46.0678C237.593 46.558 236.548 47.6025 236.058 48.9272C235.568 47.6025 234.524 46.558 233.199 46.0678Z" fill="url(#paint46_linear_1628_4380)"/>
<path d="M233.199 93.7241C234.524 93.2339 235.568 92.1894 236.058 90.8647C236.548 92.1894 237.593 93.2339 238.918 93.7241C237.593 94.2143 236.548 95.2587 236.058 96.5835C235.568 95.2587 234.524 94.2143 233.199 93.7241Z" fill="url(#paint47_linear_1628_4380)"/>
<path d="M233.199 117.552C234.524 117.062 235.568 116.018 236.058 114.693C236.548 116.018 237.593 117.062 238.918 117.552C237.593 118.043 236.548 119.087 236.058 120.412C235.568 119.087 234.524 118.043 233.199 117.552Z" fill="url(#paint48_linear_1628_4380)"/>
<path d="M233.199 141.38C234.524 140.89 235.568 139.846 236.058 138.521C236.548 139.846 237.593 140.89 238.918 141.38C237.593 141.871 236.548 142.915 236.058 144.24C235.568 142.915 234.524 141.871 233.199 141.38Z" fill="url(#paint49_linear_1628_4380)"/>
<path d="M233.199 165.209C234.524 164.718 235.568 163.674 236.058 162.349C236.548 163.674 237.593 164.718 238.918 165.209C237.593 165.699 236.548 166.743 236.058 168.068C235.568 166.743 234.524 165.699 233.199 165.209Z" fill="url(#paint50_linear_1628_4380)"/>
<path d="M233.199 212.865C234.524 212.375 235.568 211.33 236.058 210.005C236.548 211.33 237.593 212.375 238.918 212.865C237.593 213.355 236.548 214.399 236.058 215.724C235.568 214.399 234.524 213.355 233.199 212.865Z" fill="url(#paint51_linear_1628_4380)"/>
<path d="M233.199 189.037C234.524 188.546 235.568 187.502 236.058 186.177C236.548 187.502 237.593 188.546 238.918 189.037C237.593 189.527 236.548 190.571 236.058 191.896C235.568 190.571 234.524 189.527 233.199 189.037Z" fill="url(#paint52_linear_1628_4380)"/>
<path d="M233.199 236.693C234.524 236.203 235.568 235.158 236.058 233.834C236.548 235.158 237.593 236.203 238.918 236.693C237.593 237.183 236.548 238.228 236.058 239.552C235.568 238.228 234.524 237.183 233.199 236.693Z" fill="url(#paint53_linear_1628_4380)"/>
<path d="M233.199 260.521C234.524 260.031 235.568 258.986 236.058 257.662C236.548 258.986 237.593 260.031 238.918 260.521C237.593 261.011 236.548 262.056 236.058 263.38C235.568 262.056 234.524 261.011 233.199 260.521Z" fill="url(#paint54_linear_1628_4380)"/>
<path d="M233.199 284.349C234.524 283.859 235.568 282.815 236.058 281.49C236.548 282.815 237.593 283.859 238.918 284.349C237.593 284.84 236.548 285.884 236.058 287.209C235.568 285.884 234.524 284.84 233.199 284.349Z" fill="url(#paint55_linear_1628_4380)"/>
<path d="M209.371 69.896C210.695 69.4058 211.74 68.3613 212.23 67.0366C212.72 68.3613 213.765 69.4058 215.089 69.896C213.765 70.3862 212.72 71.4306 212.23 72.7553C211.74 71.4306 210.695 70.3862 209.371 69.896Z" fill="url(#paint56_linear_1628_4380)"/>
<path d="M209.371 46.0678C210.695 45.5776 211.74 44.5332 212.23 43.2085C212.72 44.5332 213.765 45.5776 215.089 46.0678C213.765 46.558 212.72 47.6025 212.23 48.9272C211.74 47.6025 210.695 46.558 209.371 46.0678Z" fill="url(#paint57_linear_1628_4380)"/>
<path d="M209.371 93.7241C210.695 93.2339 211.74 92.1894 212.23 90.8647C212.72 92.1894 213.765 93.2339 215.089 93.7241C213.765 94.2143 212.72 95.2587 212.23 96.5835C211.74 95.2587 210.695 94.2143 209.371 93.7241Z" fill="url(#paint58_linear_1628_4380)"/>
<path d="M209.371 117.552C210.695 117.062 211.74 116.018 212.23 114.693C212.72 116.018 213.765 117.062 215.089 117.552C213.765 118.043 212.72 119.087 212.23 120.412C211.74 119.087 210.695 118.043 209.371 117.552Z" fill="url(#paint59_linear_1628_4380)"/>
<path d="M209.371 141.38C210.695 140.89 211.74 139.846 212.23 138.521C212.72 139.846 213.765 140.89 215.089 141.38C213.765 141.871 212.72 142.915 212.23 144.24C211.74 142.915 210.695 141.871 209.371 141.38Z" fill="url(#paint60_linear_1628_4380)"/>
<path d="M209.371 165.209C210.695 164.718 211.74 163.674 212.23 162.349C212.72 163.674 213.765 164.718 215.089 165.209C213.765 165.699 212.72 166.743 212.23 168.068C211.74 166.743 210.695 165.699 209.371 165.209Z" fill="url(#paint61_linear_1628_4380)"/>
<path d="M209.371 212.865C210.695 212.375 211.74 211.33 212.23 210.005C212.72 211.33 213.765 212.375 215.089 212.865C213.765 213.355 212.72 214.399 212.23 215.724C211.74 214.399 210.695 213.355 209.371 212.865Z" fill="url(#paint62_linear_1628_4380)"/>
<path d="M209.371 189.037C210.695 188.546 211.74 187.502 212.23 186.177C212.72 187.502 213.765 188.546 215.089 189.037C213.765 189.527 212.72 190.571 212.23 191.896C211.74 190.571 210.695 189.527 209.371 189.037Z" fill="url(#paint63_linear_1628_4380)"/>
<path d="M209.371 236.693C210.695 236.203 211.74 235.158 212.23 233.834C212.72 235.158 213.765 236.203 215.089 236.693C213.765 237.183 212.72 238.228 212.23 239.552C211.74 238.228 210.695 237.183 209.371 236.693Z" fill="url(#paint64_linear_1628_4380)"/>
<path d="M209.371 260.521C210.695 260.031 211.74 258.986 212.23 257.662C212.72 258.986 213.765 260.031 215.089 260.521C213.765 261.011 212.72 262.056 212.23 263.38C211.74 262.056 210.695 261.011 209.371 260.521Z" fill="url(#paint65_linear_1628_4380)"/>
<path d="M209.371 284.349C210.695 283.859 211.74 282.815 212.23 281.49C212.72 282.815 213.765 283.859 215.089 284.349C213.765 284.84 212.72 285.884 212.23 287.209C211.74 285.884 210.695 284.84 209.371 284.349Z" fill="url(#paint66_linear_1628_4380)"/>
<path d="M185.543 69.896C186.867 69.4058 187.912 68.3613 188.402 67.0366C188.892 68.3613 189.937 69.4058 191.261 69.896C189.937 70.3862 188.892 71.4306 188.402 72.7553C187.912 71.4306 186.867 70.3862 185.543 69.896Z" fill="url(#paint67_linear_1628_4380)"/>
<path d="M185.543 46.0678C186.867 45.5777 187.912 44.5332 188.402 43.2085C188.892 44.5332 189.937 45.5777 191.261 46.0678C189.937 46.558 188.892 47.6025 188.402 48.9272C187.912 47.6025 186.867 46.558 185.543 46.0678Z" fill="url(#paint68_linear_1628_4380)"/>
<path d="M185.543 93.7241C186.867 93.2339 187.912 92.1894 188.402 90.8647C188.892 92.1894 189.937 93.2339 191.261 93.7241C189.937 94.2143 188.892 95.2587 188.402 96.5835C187.912 95.2587 186.867 94.2143 185.543 93.7241Z" fill="url(#paint69_linear_1628_4380)"/>
<path d="M185.543 117.552C186.867 117.062 187.912 116.018 188.402 114.693C188.892 116.018 189.937 117.062 191.261 117.552C189.937 118.043 188.892 119.087 188.402 120.412C187.912 119.087 186.867 118.043 185.543 117.552Z" fill="url(#paint70_linear_1628_4380)"/>
<path d="M185.543 141.38C186.867 140.89 187.912 139.846 188.402 138.521C188.892 139.846 189.937 140.89 191.261 141.38C189.937 141.871 188.892 142.915 188.402 144.24C187.912 142.915 186.867 141.871 185.543 141.38Z" fill="url(#paint71_linear_1628_4380)"/>
<path d="M185.543 165.209C186.867 164.718 187.912 163.674 188.402 162.349C188.892 163.674 189.937 164.718 191.261 165.209C189.937 165.699 188.892 166.743 188.402 168.068C187.912 166.743 186.867 165.699 185.543 165.209Z" fill="url(#paint72_linear_1628_4380)"/>
<path d="M185.543 212.865C186.867 212.375 187.912 211.33 188.402 210.005C188.892 211.33 189.937 212.375 191.261 212.865C189.937 213.355 188.892 214.399 188.402 215.724C187.912 214.399 186.867 213.355 185.543 212.865Z" fill="url(#paint73_linear_1628_4380)"/>
<path d="M185.543 189.037C186.867 188.547 187.912 187.502 188.402 186.177C188.892 187.502 189.937 188.547 191.261 189.037C189.937 189.527 188.892 190.571 188.402 191.896C187.912 190.571 186.867 189.527 185.543 189.037Z" fill="url(#paint74_linear_1628_4380)"/>
<path d="M185.543 236.693C186.867 236.203 187.912 235.158 188.402 233.834C188.892 235.158 189.937 236.203 191.261 236.693C189.937 237.183 188.892 238.228 188.402 239.552C187.912 238.228 186.867 237.183 185.543 236.693Z" fill="url(#paint75_linear_1628_4380)"/>
<path d="M185.543 260.521C186.867 260.031 187.912 258.986 188.402 257.662C188.892 258.986 189.937 260.031 191.261 260.521C189.937 261.011 188.892 262.056 188.402 263.38C187.912 262.056 186.867 261.011 185.543 260.521Z" fill="url(#paint76_linear_1628_4380)"/>
<path d="M185.543 284.349C186.867 283.859 187.912 282.815 188.402 281.49C188.892 282.815 189.937 283.859 191.261 284.349C189.937 284.84 188.892 285.884 188.402 287.209C187.912 285.884 186.867 284.84 185.543 284.349Z" fill="url(#paint77_linear_1628_4380)"/>
<path d="M161.715 69.896C163.04 69.4058 164.085 68.3613 164.575 67.0366C165.065 68.3613 166.109 69.4058 167.434 69.896C166.109 70.3862 165.065 71.4306 164.575 72.7553C164.085 71.4306 163.04 70.3862 161.715 69.896Z" fill="url(#paint78_linear_1628_4380)"/>
<path d="M161.715 46.0678C163.04 45.5777 164.085 44.5332 164.575 43.2085C165.065 44.5332 166.109 45.5777 167.434 46.0678C166.109 46.558 165.065 47.6025 164.575 48.9272C164.085 47.6025 163.04 46.558 161.715 46.0678Z" fill="url(#paint79_linear_1628_4380)"/>
<path d="M161.715 93.7241C163.04 93.2339 164.085 92.1894 164.575 90.8647C165.065 92.1894 166.109 93.2339 167.434 93.7241C166.109 94.2143 165.065 95.2587 164.575 96.5835C164.085 95.2587 163.04 94.2143 161.715 93.7241Z" fill="url(#paint80_linear_1628_4380)"/>
<path d="M161.715 117.552C163.04 117.062 164.085 116.018 164.575 114.693C165.065 116.018 166.109 117.062 167.434 117.552C166.109 118.043 165.065 119.087 164.575 120.412C164.085 119.087 163.04 118.043 161.715 117.552Z" fill="url(#paint81_linear_1628_4380)"/>
<path d="M161.715 141.38C163.04 140.89 164.085 139.846 164.575 138.521C165.065 139.846 166.109 140.89 167.434 141.38C166.109 141.871 165.065 142.915 164.575 144.24C164.085 142.915 163.04 141.871 161.715 141.38Z" fill="url(#paint82_linear_1628_4380)"/>
<path d="M161.715 165.209C163.04 164.718 164.085 163.674 164.575 162.349C165.065 163.674 166.109 164.718 167.434 165.209C166.109 165.699 165.065 166.743 164.575 168.068C164.085 166.743 163.04 165.699 161.715 165.209Z" fill="url(#paint83_linear_1628_4380)"/>
<path d="M161.715 212.865C163.04 212.375 164.085 211.33 164.575 210.005C165.065 211.33 166.109 212.375 167.434 212.865C166.109 213.355 165.065 214.399 164.575 215.724C164.085 214.399 163.04 213.355 161.715 212.865Z" fill="url(#paint84_linear_1628_4380)"/>
<path d="M161.715 189.037C163.04 188.547 164.085 187.502 164.575 186.177C165.065 187.502 166.109 188.547 167.434 189.037C166.109 189.527 165.065 190.571 164.575 191.896C164.085 190.571 163.04 189.527 161.715 189.037Z" fill="url(#paint85_linear_1628_4380)"/>
<path d="M161.715 236.693C163.04 236.203 164.085 235.158 164.575 233.834C165.065 235.158 166.109 236.203 167.434 236.693C166.109 237.183 165.065 238.228 164.575 239.552C164.085 238.228 163.04 237.183 161.715 236.693Z" fill="url(#paint86_linear_1628_4380)"/>
<path d="M161.715 260.521C163.04 260.031 164.085 258.986 164.575 257.662C165.065 258.986 166.109 260.031 167.434 260.521C166.109 261.011 165.065 262.056 164.575 263.38C164.085 262.056 163.04 261.011 161.715 260.521Z" fill="url(#paint87_linear_1628_4380)"/>
<path d="M161.715 284.349C163.04 283.859 164.085 282.815 164.575 281.49C165.065 282.815 166.109 283.859 167.434 284.349C166.109 284.84 165.065 285.884 164.575 287.209C164.085 285.884 163.04 284.84 161.715 284.349Z" fill="url(#paint88_linear_1628_4380)"/>
<path d="M137.887 69.896C139.212 69.4058 140.257 68.3613 140.747 67.0366C141.237 68.3613 142.281 69.4058 143.606 69.896C142.281 70.3862 141.237 71.4306 140.747 72.7553C140.257 71.4306 139.212 70.3862 137.887 69.896Z" fill="url(#paint89_linear_1628_4380)"/>
<path d="M137.887 46.0678C139.212 45.5777 140.257 44.5332 140.747 43.2085C141.237 44.5332 142.281 45.5777 143.606 46.0678C142.281 46.558 141.237 47.6025 140.747 48.9272C140.257 47.6025 139.212 46.558 137.887 46.0678Z" fill="url(#paint90_linear_1628_4380)"/>
<path d="M137.887 93.7241C139.212 93.2339 140.257 92.1894 140.747 90.8647C141.237 92.1894 142.281 93.2339 143.606 93.7241C142.281 94.2143 141.237 95.2587 140.747 96.5835C140.257 95.2587 139.212 94.2143 137.887 93.7241Z" fill="url(#paint91_linear_1628_4380)"/>
<path d="M137.887 117.552C139.212 117.062 140.257 116.018 140.747 114.693C141.237 116.018 142.281 117.062 143.606 117.552C142.281 118.043 141.237 119.087 140.747 120.412C140.257 119.087 139.212 118.043 137.887 117.552Z" fill="url(#paint92_linear_1628_4380)"/>
<path d="M137.887 141.38C139.212 140.89 140.257 139.846 140.747 138.521C141.237 139.846 142.281 140.89 143.606 141.38C142.281 141.871 141.237 142.915 140.747 144.24C140.257 142.915 139.212 141.871 137.887 141.38Z" fill="url(#paint93_linear_1628_4380)"/>
<path d="M137.887 165.209C139.212 164.718 140.257 163.674 140.747 162.349C141.237 163.674 142.281 164.718 143.606 165.209C142.281 165.699 141.237 166.743 140.747 168.068C140.257 166.743 139.212 165.699 137.887 165.209Z" fill="url(#paint94_linear_1628_4380)"/>
<path d="M137.887 212.865C139.212 212.375 140.257 211.33 140.747 210.005C141.237 211.33 142.281 212.375 143.606 212.865C142.281 213.355 141.237 214.399 140.747 215.724C140.257 214.399 139.212 213.355 137.887 212.865Z" fill="url(#paint95_linear_1628_4380)"/>
<path d="M137.887 189.037C139.212 188.547 140.257 187.502 140.747 186.177C141.237 187.502 142.281 188.547 143.606 189.037C142.281 189.527 141.237 190.571 140.747 191.896C140.257 190.571 139.212 189.527 137.887 189.037Z" fill="url(#paint96_linear_1628_4380)"/>
<path d="M137.887 236.693C139.212 236.203 140.257 235.158 140.747 233.834C141.237 235.158 142.281 236.203 143.606 236.693C142.281 237.183 141.237 238.228 140.747 239.552C140.257 238.228 139.212 237.183 137.887 236.693Z" fill="url(#paint97_linear_1628_4380)"/>
<path d="M137.887 260.521C139.212 260.031 140.257 258.986 140.747 257.662C141.237 258.986 142.281 260.031 143.606 260.521C142.281 261.011 141.237 262.056 140.747 263.38C140.257 262.056 139.212 261.011 137.887 260.521Z" fill="url(#paint98_linear_1628_4380)"/>
<path d="M137.887 284.349C139.212 283.859 140.256 282.815 140.747 281.49C141.237 282.815 142.281 283.859 143.606 284.349C142.281 284.84 141.237 285.884 140.747 287.209C140.256 285.884 139.212 284.84 137.887 284.349Z" fill="url(#paint99_linear_1628_4380)"/>
<path d="M114.059 69.896C115.384 69.4058 116.428 68.3613 116.919 67.0366C117.409 68.3613 118.453 69.4058 119.778 69.896C118.453 70.3862 117.409 71.4306 116.919 72.7553C116.428 71.4306 115.384 70.3862 114.059 69.896Z" fill="url(#paint100_linear_1628_4380)"/>
<path d="M114.059 46.0678C115.384 45.5777 116.428 44.5332 116.919 43.2085C117.409 44.5332 118.453 45.5777 119.778 46.0678C118.453 46.558 117.409 47.6025 116.919 48.9272C116.428 47.6025 115.384 46.558 114.059 46.0678Z" fill="url(#paint101_linear_1628_4380)"/>
<path d="M114.059 93.7241C115.384 93.2339 116.428 92.1894 116.919 90.8647C117.409 92.1894 118.453 93.2339 119.778 93.7241C118.453 94.2143 117.409 95.2587 116.919 96.5835C116.428 95.2587 115.384 94.2143 114.059 93.7241Z" fill="url(#paint102_linear_1628_4380)"/>
<path d="M114.059 117.552C115.384 117.062 116.428 116.018 116.919 114.693C117.409 116.018 118.453 117.062 119.778 117.552C118.453 118.043 117.409 119.087 116.919 120.412C116.428 119.087 115.384 118.043 114.059 117.552Z" fill="url(#paint103_linear_1628_4380)"/>
<path d="M114.059 141.38C115.384 140.89 116.428 139.846 116.919 138.521C117.409 139.846 118.453 140.89 119.778 141.38C118.453 141.871 117.409 142.915 116.919 144.24C116.428 142.915 115.384 141.871 114.059 141.38Z" fill="url(#paint104_linear_1628_4380)"/>
<path d="M114.059 165.209C115.384 164.718 116.428 163.674 116.919 162.349C117.409 163.674 118.453 164.718 119.778 165.209C118.453 165.699 117.409 166.743 116.919 168.068C116.428 166.743 115.384 165.699 114.059 165.209Z" fill="url(#paint105_linear_1628_4380)"/>
<path d="M114.059 212.865C115.384 212.375 116.428 211.33 116.919 210.005C117.409 211.33 118.453 212.375 119.778 212.865C118.453 213.355 117.409 214.399 116.919 215.724C116.428 214.399 115.384 213.355 114.059 212.865Z" fill="url(#paint106_linear_1628_4380)"/>
<path d="M114.059 189.037C115.384 188.547 116.428 187.502 116.919 186.177C117.409 187.502 118.453 188.547 119.778 189.037C118.453 189.527 117.409 190.571 116.919 191.896C116.428 190.571 115.384 189.527 114.059 189.037Z" fill="url(#paint107_linear_1628_4380)"/>
<path d="M114.059 236.693C115.384 236.203 116.428 235.158 116.919 233.834C117.409 235.158 118.453 236.203 119.778 236.693C118.453 237.183 117.409 238.228 116.919 239.552C116.428 238.228 115.384 237.183 114.059 236.693Z" fill="url(#paint108_linear_1628_4380)"/>
<path d="M114.059 260.521C115.384 260.031 116.428 258.986 116.919 257.662C117.409 258.986 118.453 260.031 119.778 260.521C118.453 261.011 117.409 262.056 116.919 263.38C116.428 262.056 115.384 261.011 114.059 260.521Z" fill="url(#paint109_linear_1628_4380)"/>
<path d="M114.059 284.349C115.384 283.859 116.428 282.815 116.919 281.49C117.409 282.815 118.453 283.859 119.778 284.349C118.453 284.84 117.409 285.884 116.919 287.209C116.428 285.884 115.384 284.84 114.059 284.349Z" fill="url(#paint110_linear_1628_4380)"/>
<path d="M90.2305 69.896C91.5552 69.4058 92.5997 68.3613 93.0899 67.0366C93.5801 68.3613 94.6245 69.4058 95.9493 69.896C94.6245 70.3862 93.5801 71.4306 93.0899 72.7553C92.5997 71.4306 91.5552 70.3862 90.2305 69.896Z" fill="url(#paint111_linear_1628_4380)"/>
<path d="M90.2305 46.0678C91.5552 45.5777 92.5997 44.5332 93.0899 43.2085C93.5801 44.5332 94.6245 45.5777 95.9492 46.0678C94.6245 46.558 93.5801 47.6025 93.0899 48.9272C92.5997 47.6025 91.5552 46.558 90.2305 46.0678Z" fill="url(#paint112_linear_1628_4380)"/>
<path d="M90.2305 93.7241C91.5552 93.2339 92.5997 92.1894 93.0899 90.8647C93.5801 92.1894 94.6245 93.2339 95.9493 93.7241C94.6245 94.2143 93.5801 95.2587 93.0899 96.5835C92.5997 95.2587 91.5552 94.2143 90.2305 93.7241Z" fill="url(#paint113_linear_1628_4380)"/>
<path d="M90.2305 117.552C91.5552 117.062 92.5997 116.018 93.0899 114.693C93.5801 116.018 94.6245 117.062 95.9493 117.552C94.6245 118.043 93.5801 119.087 93.0899 120.412C92.5997 119.087 91.5552 118.043 90.2305 117.552Z" fill="url(#paint114_linear_1628_4380)"/>
<path d="M90.2305 141.38C91.5552 140.89 92.5997 139.846 93.0899 138.521C93.5801 139.846 94.6245 140.89 95.9493 141.38C94.6245 141.871 93.5801 142.915 93.0899 144.24C92.5997 142.915 91.5552 141.871 90.2305 141.38Z" fill="url(#paint115_linear_1628_4380)"/>
<path d="M90.2305 165.209C91.5552 164.718 92.5997 163.674 93.0899 162.349C93.5801 163.674 94.6245 164.718 95.9493 165.209C94.6245 165.699 93.5801 166.743 93.0899 168.068C92.5997 166.743 91.5552 165.699 90.2305 165.209Z" fill="url(#paint116_linear_1628_4380)"/>
<path d="M90.2305 212.865C91.5552 212.375 92.5997 211.33 93.0899 210.005C93.5801 211.33 94.6245 212.375 95.9493 212.865C94.6245 213.355 93.5801 214.399 93.0899 215.724C92.5997 214.399 91.5552 213.355 90.2305 212.865Z" fill="url(#paint117_linear_1628_4380)"/>
<path d="M90.2305 189.037C91.5552 188.547 92.5997 187.502 93.0899 186.177C93.5801 187.502 94.6245 188.547 95.9493 189.037C94.6245 189.527 93.5801 190.571 93.0899 191.896C92.5997 190.571 91.5552 189.527 90.2305 189.037Z" fill="url(#paint118_linear_1628_4380)"/>
<path d="M90.2305 236.693C91.5552 236.203 92.5997 235.158 93.0899 233.834C93.5801 235.158 94.6245 236.203 95.9493 236.693C94.6245 237.183 93.5801 238.228 93.0899 239.552C92.5997 238.228 91.5552 237.183 90.2305 236.693Z" fill="url(#paint119_linear_1628_4380)"/>
<path d="M90.2305 260.521C91.5552 260.031 92.5997 258.986 93.0899 257.662C93.5801 258.986 94.6245 260.031 95.9493 260.521C94.6245 261.011 93.5801 262.056 93.0899 263.38C92.5997 262.056 91.5552 261.011 90.2305 260.521Z" fill="url(#paint120_linear_1628_4380)"/>
<path d="M90.2305 284.349C91.5552 283.859 92.5997 282.815 93.0898 281.49C93.58 282.815 94.6245 283.859 95.9492 284.349C94.6245 284.84 93.58 285.884 93.0898 287.209C92.5997 285.884 91.5552 284.84 90.2305 284.349Z" fill="url(#paint121_linear_1628_4380)"/>
<path d="M66.4023 69.896C67.727 69.4058 68.7715 68.3613 69.2617 67.0366C69.7518 68.3613 70.7963 69.4058 72.121 69.896C70.7963 70.3862 69.7518 71.4306 69.2617 72.7553C68.7715 71.4306 67.727 70.3862 66.4023 69.896Z" fill="url(#paint122_linear_1628_4380)"/>
<path d="M66.4023 46.0678C67.727 45.5777 68.7715 44.5332 69.2616 43.2085C69.7518 44.5332 70.7963 45.5777 72.121 46.0678C70.7963 46.558 69.7518 47.6025 69.2616 48.9272C68.7715 47.6025 67.727 46.558 66.4023 46.0678Z" fill="url(#paint123_linear_1628_4380)"/>
<path d="M66.4023 93.7241C67.727 93.2339 68.7715 92.1894 69.2617 90.8647C69.7518 92.1894 70.7963 93.2339 72.121 93.7241C70.7963 94.2143 69.7518 95.2587 69.2617 96.5835C68.7715 95.2587 67.727 94.2143 66.4023 93.7241Z" fill="url(#paint124_linear_1628_4380)"/>
<path d="M66.4023 117.552C67.727 117.062 68.7715 116.018 69.2617 114.693C69.7518 116.018 70.7963 117.062 72.121 117.552C70.7963 118.043 69.7518 119.087 69.2617 120.412C68.7715 119.087 67.727 118.043 66.4023 117.552Z" fill="url(#paint125_linear_1628_4380)"/>
<path d="M66.4023 141.38C67.727 140.89 68.7715 139.846 69.2617 138.521C69.7518 139.846 70.7963 140.89 72.121 141.38C70.7963 141.871 69.7518 142.915 69.2617 144.24C68.7715 142.915 67.727 141.871 66.4023 141.38Z" fill="url(#paint126_linear_1628_4380)"/>
<path d="M66.4023 165.209C67.727 164.718 68.7715 163.674 69.2617 162.349C69.7518 163.674 70.7963 164.718 72.121 165.209C70.7963 165.699 69.7518 166.743 69.2617 168.068C68.7715 166.743 67.727 165.699 66.4023 165.209Z" fill="url(#paint127_linear_1628_4380)"/>
<path d="M66.4023 212.865C67.727 212.375 68.7715 211.33 69.2617 210.005C69.7518 211.33 70.7963 212.375 72.121 212.865C70.7963 213.355 69.7518 214.399 69.2617 215.724C68.7715 214.399 67.727 213.355 66.4023 212.865Z" fill="url(#paint128_linear_1628_4380)"/>
<path d="M66.4023 189.037C67.727 188.547 68.7715 187.502 69.2617 186.177C69.7518 187.502 70.7963 188.547 72.121 189.037C70.7963 189.527 69.7518 190.571 69.2617 191.896C68.7715 190.571 67.727 189.527 66.4023 189.037Z" fill="url(#paint129_linear_1628_4380)"/>
<path d="M66.4023 236.693C67.727 236.203 68.7715 235.158 69.2617 233.834C69.7518 235.158 70.7963 236.203 72.121 236.693C70.7963 237.183 69.7518 238.228 69.2617 239.552C68.7715 238.228 67.727 237.183 66.4023 236.693Z" fill="url(#paint130_linear_1628_4380)"/>
<path d="M66.4023 260.521C67.727 260.031 68.7715 258.986 69.2617 257.662C69.7518 258.986 70.7963 260.031 72.121 260.521C70.7963 261.011 69.7518 262.056 69.2617 263.38C68.7715 262.056 67.727 261.011 66.4023 260.521Z" fill="url(#paint131_linear_1628_4380)"/>
<path d="M66.4023 284.349C67.7271 283.859 68.7715 282.815 69.2617 281.49C69.7519 282.815 70.7964 283.859 72.1211 284.349C70.7964 284.84 69.7519 285.884 69.2617 287.209C68.7715 285.884 67.7271 284.84 66.4023 284.349Z" fill="url(#paint132_linear_1628_4380)"/>
<path d="M42.5742 69.896C43.899 69.4058 44.9434 68.3613 45.4336 67.0366C45.9238 68.3613 46.9683 69.4058 48.293 69.896C46.9683 70.3862 45.9238 71.4306 45.4336 72.7553C44.9434 71.4306 43.899 70.3862 42.5742 69.896Z" fill="url(#paint133_linear_1628_4380)"/>
<path d="M42.5742 46.0678C43.899 45.5777 44.9434 44.5332 45.4336 43.2085C45.9238 44.5332 46.9683 45.5777 48.293 46.0678C46.9683 46.558 45.9238 47.6025 45.4336 48.9272C44.9434 47.6025 43.899 46.558 42.5742 46.0678Z" fill="url(#paint134_linear_1628_4380)"/>
<path d="M42.5742 93.7241C43.899 93.2339 44.9434 92.1894 45.4336 90.8647C45.9238 92.1894 46.9683 93.2339 48.293 93.7241C46.9683 94.2143 45.9238 95.2587 45.4336 96.5835C44.9434 95.2587 43.899 94.2143 42.5742 93.7241Z" fill="url(#paint135_linear_1628_4380)"/>
<path d="M42.5742 117.552C43.899 117.062 44.9434 116.018 45.4336 114.693C45.9238 116.018 46.9683 117.062 48.293 117.552C46.9683 118.043 45.9238 119.087 45.4336 120.412C44.9434 119.087 43.899 118.043 42.5742 117.552Z" fill="url(#paint136_linear_1628_4380)"/>
<path d="M42.5742 141.38C43.899 140.89 44.9434 139.846 45.4336 138.521C45.9238 139.846 46.9683 140.89 48.293 141.38C46.9683 141.871 45.9238 142.915 45.4336 144.24C44.9434 142.915 43.899 141.871 42.5742 141.38Z" fill="url(#paint137_linear_1628_4380)"/>
<path d="M42.5742 165.209C43.8989 164.718 44.9433 163.674 45.4335 162.349C45.9237 163.674 46.9682 164.718 48.2929 165.209C46.9682 165.699 45.9237 166.743 45.4335 168.068C44.9433 166.743 43.8989 165.699 42.5742 165.209Z" fill="url(#paint138_linear_1628_4380)"/>
<path d="M42.5742 212.865C43.8989 212.375 44.9433 211.33 45.4335 210.005C45.9237 211.33 46.9682 212.375 48.2929 212.865C46.9682 213.355 45.9237 214.399 45.4335 215.724C44.9433 214.399 43.8989 213.355 42.5742 212.865Z" fill="url(#paint139_linear_1628_4380)"/>
<path d="M42.5742 189.037C43.8989 188.547 44.9433 187.502 45.4335 186.177C45.9237 187.502 46.9682 188.547 48.2929 189.037C46.9682 189.527 45.9237 190.571 45.4335 191.896C44.9433 190.571 43.8989 189.527 42.5742 189.037Z" fill="url(#paint140_linear_1628_4380)"/>
<path d="M42.5742 236.693C43.8989 236.203 44.9433 235.158 45.4335 233.834C45.9237 235.158 46.9682 236.203 48.2929 236.693C46.9682 237.183 45.9237 238.228 45.4335 239.552C44.9433 238.228 43.8989 237.183 42.5742 236.693Z" fill="url(#paint141_linear_1628_4380)"/>
<path d="M42.5742 260.521C43.8989 260.031 44.9433 258.986 45.4335 257.662C45.9237 258.986 46.9682 260.031 48.2929 260.521C46.9682 261.011 45.9237 262.056 45.4335 263.38C44.9433 262.056 43.8989 261.011 42.5742 260.521Z" fill="url(#paint142_linear_1628_4380)"/>
<path d="M42.5742 284.349C43.8989 283.859 44.9434 282.815 45.4336 281.49C45.9238 282.815 46.9682 283.859 48.293 284.349C46.9682 284.84 45.9238 285.884 45.4336 287.209C44.9434 285.884 43.8989 284.84 42.5742 284.349Z" fill="url(#paint143_linear_1628_4380)"/>
<path d="M18.7461 69.896C20.0708 69.4058 21.1153 68.3613 21.6055 67.0366C22.0957 68.3613 23.1401 69.4058 24.4649 69.896C23.1401 70.3862 22.0957 71.4306 21.6055 72.7553C21.1153 71.4306 20.0708 70.3862 18.7461 69.896Z" fill="url(#paint144_linear_1628_4380)"/>
<path d="M18.7461 46.0678C20.0708 45.5777 21.1153 44.5332 21.6055 43.2085C22.0957 44.5332 23.1401 45.5777 24.4649 46.0678C23.1401 46.558 22.0957 47.6025 21.6055 48.9272C21.1153 47.6025 20.0708 46.558 18.7461 46.0678Z" fill="url(#paint145_linear_1628_4380)"/>
<path d="M18.7461 93.7241C20.0708 93.2339 21.1153 92.1894 21.6055 90.8647C22.0957 92.1894 23.1402 93.2339 24.4649 93.7241C23.1402 94.2143 22.0957 95.2587 21.6055 96.5835C21.1153 95.2587 20.0708 94.2143 18.7461 93.7241Z" fill="url(#paint146_linear_1628_4380)"/>
<path d="M18.7461 117.552C20.0708 117.062 21.1153 116.018 21.6055 114.693C22.0957 116.018 23.1402 117.062 24.4649 117.552C23.1402 118.043 22.0957 119.087 21.6055 120.412C21.1153 119.087 20.0708 118.043 18.7461 117.552Z" fill="url(#paint147_linear_1628_4380)"/>
<path d="M18.7461 141.38C20.0708 140.89 21.1153 139.846 21.6055 138.521C22.0957 139.846 23.1402 140.89 24.4649 141.38C23.1402 141.871 22.0957 142.915 21.6055 144.24C21.1153 142.915 20.0708 141.871 18.7461 141.38Z" fill="url(#paint148_linear_1628_4380)"/>
<path d="M18.7461 165.209C20.0708 164.718 21.1153 163.674 21.6055 162.349C22.0957 163.674 23.1402 164.718 24.4649 165.209C23.1402 165.699 22.0957 166.743 21.6055 168.068C21.1153 166.743 20.0709 165.699 18.7461 165.209Z" fill="url(#paint149_linear_1628_4380)"/>
<path d="M18.7461 212.865C20.0709 212.375 21.1153 211.33 21.6055 210.005C22.0957 211.33 23.1402 212.375 24.4649 212.865C23.1402 213.355 22.0957 214.399 21.6055 215.724C21.1153 214.399 20.0709 213.355 18.7461 212.865Z" fill="url(#paint150_linear_1628_4380)"/>
<path d="M18.7461 189.037C20.0709 188.547 21.1153 187.502 21.6055 186.177C22.0957 187.502 23.1402 188.547 24.4649 189.037C23.1402 189.527 22.0957 190.571 21.6055 191.896C21.1153 190.571 20.0709 189.527 18.7461 189.037Z" fill="url(#paint151_linear_1628_4380)"/>
<path d="M18.7461 236.693C20.0709 236.203 21.1153 235.158 21.6055 233.834C22.0957 235.158 23.1402 236.203 24.4649 236.693C23.1402 237.183 22.0957 238.228 21.6055 239.552C21.1153 238.228 20.0709 237.183 18.7461 236.693Z" fill="url(#paint152_linear_1628_4380)"/>
<path d="M18.7461 260.521C20.0709 260.031 21.1153 258.986 21.6055 257.662C22.0957 258.986 23.1402 260.031 24.4649 260.521C23.1402 261.011 22.0957 262.056 21.6055 263.38C21.1153 262.056 20.0709 261.011 18.7461 260.521Z" fill="url(#paint153_linear_1628_4380)"/>
<path d="M18.7461 284.349C20.0708 283.859 21.1153 282.815 21.6055 281.49C22.0957 282.815 23.1401 283.859 24.4648 284.349C23.1401 284.84 22.0957 285.884 21.6055 287.209C21.1153 285.884 20.0708 284.84 18.7461 284.349Z" fill="url(#paint154_linear_1628_4380)"/>
</g>
<path fill-rule="evenodd" clip-rule="evenodd" d="M147.21 243.882C141.439 251.636 120.491 275.957 96.6175 275.957C95.0837 275.959 93.5516 275.853 92.0325 275.64C83.6459 274.314 75.711 270.943 68.9233 265.821C59.7789 259.064 51.7798 250.869 45.2344 241.553C51.7798 232.237 59.7789 224.042 68.9233 217.285C75.711 212.163 83.6459 208.792 92.0325 207.467C93.5516 207.254 95.0837 207.147 96.6175 207.149C120.491 207.149 141.439 231.47 147.21 239.224C148.264 240.597 148.264 242.51 147.21 243.882Z" fill="#FFF2BD"/>
<path fill-rule="evenodd" clip-rule="evenodd" d="M96.9649 254.511C95.7306 254.511 94.6445 253.75 94.2989 252.645C92.0254 245.403 92.0254 237.704 94.2989 230.462C94.7283 229.088 96.2701 228.299 97.7425 228.7C99.2149 229.101 100.06 230.539 99.6309 231.913C97.6536 238.208 97.6536 244.899 99.6309 251.194C99.8756 251.977 99.711 252.821 99.1866 253.474C98.6621 254.127 97.839 254.511 96.9649 254.511Z" fill="#9CAFC2"/>
<path fill-rule="evenodd" clip-rule="evenodd" d="M86.2426 254.511C85.0083 254.511 83.922 253.75 83.5764 252.645C81.3027 245.403 81.3027 237.704 83.5764 230.462C83.8542 229.573 84.6191 228.89 85.583 228.67C86.5468 228.45 87.5632 228.727 88.2492 229.396C88.9352 230.064 89.1867 231.024 88.9089 231.913C86.9314 238.207 86.9314 244.899 88.9089 251.194C89.1536 251.977 88.989 252.821 88.4645 253.474C87.94 254.127 87.1168 254.511 86.2426 254.511Z" fill="#9CAFC2"/>
<path fill-rule="evenodd" clip-rule="evenodd" d="M29.9107 241.555C25.1409 248.972 22.4113 257.567 22.009 266.438C21.9118 267.908 22.633 269.308 23.8725 270.056C25.1121 270.805 26.6579 270.772 27.8668 269.973C34.677 265.357 45.234 255.884 45.234 241.555C45.234 227.226 34.677 217.753 27.872 213.137C26.6629 212.335 25.115 212.301 23.8736 213.049C22.6322 213.798 21.9103 215.201 22.009 216.672C22.4113 225.543 25.1409 234.139 29.9107 241.555Z" fill="#9CAFC2"/>
<path fill-rule="evenodd" clip-rule="evenodd" d="M91.7021 208.166C83.5043 209.477 75.748 212.809 69.113 217.872C67.9866 213.081 66.3634 208.424 64.2707 203.98C63.8521 203.097 63.9228 202.056 64.4567 201.24C64.9906 200.423 65.9087 199.954 66.8722 200.004C80.4977 200.788 87.8643 204.817 91.7021 208.166Z" fill="#9CAFC2"/>
<path fill-rule="evenodd" clip-rule="evenodd" d="M91.7021 275.425C87.8643 278.942 80.4977 283.172 66.8722 283.996C65.9087 284.048 64.9906 283.555 64.4567 282.698C63.9228 281.841 63.8521 280.748 64.2707 279.821C66.3634 275.154 67.9866 270.265 69.113 265.234C75.748 270.55 83.5043 274.049 91.7021 275.425Z" fill="#9CAFC2"/>
<path fill-rule="evenodd" clip-rule="evenodd" d="M147.213 244.311C143.046 249.878 130.937 264.111 115.552 271.489L115.526 271.437C110.896 262.326 108.549 252.223 108.685 242C108.549 231.777 110.896 221.674 115.526 212.563L115.552 212.511C130.937 219.89 143.046 234.122 147.213 239.689C148.261 241.051 148.261 242.949 147.213 244.311Z" fill="#F3D55B"/>
<path d="M124.317 244.681C127.032 244.681 129.232 242.28 129.232 239.319C129.232 236.358 127.032 233.958 124.317 233.958C121.603 233.958 119.402 236.358 119.402 239.319C119.402 242.28 121.603 244.681 124.317 244.681Z" fill="#9CAFC2"/>
</g>
<defs>
<linearGradient id="paint0_linear_1628_4380" x1="4.86703" y1="296.482" x2="141.953" y2="152.499" gradientUnits="userSpaceOnUse">
<stop stop-color="white"/>
<stop offset="1" stop-color="white" stop-opacity="0"/>
</linearGradient>
<linearGradient id="paint1_linear_1628_4380" x1="4.86702" y1="296.483" x2="141.956" y2="152.5" gradientUnits="userSpaceOnUse">
<stop stop-color="white"/>
<stop offset="1" stop-color="white" stop-opacity="0"/>
</linearGradient>
<linearGradient id="paint2_linear_1628_4380" x1="4.86702" y1="296.483" x2="141.956" y2="152.5" gradientUnits="userSpaceOnUse">
<stop stop-color="white"/>
<stop offset="1" stop-color="white" stop-opacity="0"/>
</linearGradient>
<linearGradient id="paint3_linear_1628_4380" x1="4.86363" y1="296.483" x2="141.952" y2="152.499" gradientUnits="userSpaceOnUse">
<stop stop-color="white"/>
<stop offset="1" stop-color="white" stop-opacity="0"/>
</linearGradient>
<linearGradient id="paint4_linear_1628_4380" x1="4.86353" y1="296.483" x2="141.951" y2="152.499" gradientUnits="userSpaceOnUse">
<stop stop-color="white"/>
<stop offset="1" stop-color="white" stop-opacity="0"/>
</linearGradient>
<linearGradient id="paint5_linear_1628_4380" x1="4.86343" y1="296.483" x2="141.951" y2="152.499" gradientUnits="userSpaceOnUse">
<stop stop-color="white"/>
<stop offset="1" stop-color="white" stop-opacity="0"/>
</linearGradient>
<linearGradient id="paint6_linear_1628_4380" x1="4.87754" y1="296.483" x2="141.966" y2="152.504" gradientUnits="userSpaceOnUse">
<stop stop-color="white"/>
<stop offset="1" stop-color="white" stop-opacity="0"/>
</linearGradient>
<linearGradient id="paint7_linear_1628_4380" x1="4.86702" y1="296.484" x2="141.956" y2="152.501" gradientUnits="userSpaceOnUse">
<stop stop-color="white"/>
<stop offset="1" stop-color="white" stop-opacity="0"/>
</linearGradient>
<linearGradient id="paint8_linear_1628_4380" x1="4.86374" y1="296.483" x2="141.952" y2="152.499" gradientUnits="userSpaceOnUse">
<stop stop-color="white"/>
<stop offset="1" stop-color="white" stop-opacity="0"/>
</linearGradient>
<linearGradient id="paint9_linear_1628_4380" x1="4.86703" y1="296.484" x2="141.956" y2="152.501" gradientUnits="userSpaceOnUse">
<stop stop-color="white"/>
<stop offset="1" stop-color="white" stop-opacity="0"/>
</linearGradient>
<linearGradient id="paint10_linear_1628_4380" x1="4.86707" y1="296.483" x2="141.955" y2="152.501" gradientUnits="userSpaceOnUse">
<stop stop-color="white"/>
<stop offset="1" stop-color="white" stop-opacity="0"/>
</linearGradient>
<linearGradient id="paint11_linear_1628_4380" x1="4.86703" y1="296.484" x2="141.956" y2="152.501" gradientUnits="userSpaceOnUse">
<stop stop-color="white"/>
<stop offset="1" stop-color="white" stop-opacity="0"/>
</linearGradient>
<linearGradient id="paint12_linear_1628_4380" x1="4.86668" y1="296.483" x2="141.955" y2="152.501" gradientUnits="userSpaceOnUse">
<stop stop-color="white"/>
<stop offset="1" stop-color="white" stop-opacity="0"/>
</linearGradient>
<linearGradient id="paint13_linear_1628_4380" x1="4.86703" y1="296.483" x2="141.955" y2="152.5" gradientUnits="userSpaceOnUse">
<stop stop-color="white"/>
<stop offset="1" stop-color="white" stop-opacity="0"/>
</linearGradient>
<linearGradient id="paint14_linear_1628_4380" x1="4.86625" y1="296.483" x2="141.954" y2="152.5" gradientUnits="userSpaceOnUse">
<stop stop-color="white"/>
<stop offset="1" stop-color="white" stop-opacity="0"/>
</linearGradient>
<linearGradient id="paint15_linear_1628_4380" x1="4.86703" y1="296.483" x2="141.955" y2="152.5" gradientUnits="userSpaceOnUse">
<stop stop-color="white"/>
<stop offset="1" stop-color="white" stop-opacity="0"/>
</linearGradient>
<linearGradient id="paint16_linear_1628_4380" x1="4.86581" y1="296.483" x2="141.954" y2="152.5" gradientUnits="userSpaceOnUse">
<stop stop-color="white"/>
<stop offset="1" stop-color="white" stop-opacity="0"/>
</linearGradient>
<linearGradient id="paint17_linear_1628_4380" x1="4.86704" y1="296.484" x2="141.956" y2="152.501" gradientUnits="userSpaceOnUse">
<stop stop-color="white"/>
<stop offset="1" stop-color="white" stop-opacity="0"/>
</linearGradient>
<linearGradient id="paint18_linear_1628_4380" x1="4.86572" y1="296.483" x2="141.954" y2="152.5" gradientUnits="userSpaceOnUse">
<stop stop-color="white"/>
<stop offset="1" stop-color="white" stop-opacity="0"/>
</linearGradient>
<linearGradient id="paint19_linear_1628_4380" x1="4.86704" y1="296.485" x2="141.956" y2="152.502" gradientUnits="userSpaceOnUse">
<stop stop-color="white"/>
<stop offset="1" stop-color="white" stop-opacity="0"/>
</linearGradient>
<linearGradient id="paint20_linear_1628_4380" x1="4.86551" y1="296.483" x2="141.953" y2="152.5" gradientUnits="userSpaceOnUse">
<stop stop-color="white"/>
<stop offset="1" stop-color="white" stop-opacity="0"/>
</linearGradient>
<linearGradient id="paint21_linear_1628_4380" x1="4.86703" y1="296.484" x2="141.955" y2="152.501" gradientUnits="userSpaceOnUse">
<stop stop-color="white"/>
<stop offset="1" stop-color="white" stop-opacity="0"/>
</linearGradient>
<linearGradient id="paint22_linear_1628_4380" x1="4.86559" y1="296.483" x2="141.954" y2="152.5" gradientUnits="userSpaceOnUse">
<stop stop-color="white"/>
<stop offset="1" stop-color="white" stop-opacity="0"/>
</linearGradient>
<linearGradient id="paint23_linear_1628_4380" x1="4.86861" y1="296.483" x2="141.957" y2="152.5" gradientUnits="userSpaceOnUse">
<stop stop-color="white"/>
<stop offset="1" stop-color="white" stop-opacity="0"/>
</linearGradient>
<linearGradient id="paint24_linear_1628_4380" x1="4.86861" y1="296.483" x2="141.957" y2="152.5" gradientUnits="userSpaceOnUse">
<stop stop-color="white"/>
<stop offset="1" stop-color="white" stop-opacity="0"/>
</linearGradient>
<linearGradient id="paint25_linear_1628_4380" x1="4.86861" y1="296.483" x2="141.957" y2="152.5" gradientUnits="userSpaceOnUse">
<stop stop-color="white"/>
<stop offset="1" stop-color="white" stop-opacity="0"/>
</linearGradient>
<linearGradient id="paint26_linear_1628_4380" x1="4.86862" y1="296.483" x2="141.957" y2="152.5" gradientUnits="userSpaceOnUse">
<stop stop-color="white"/>
<stop offset="1" stop-color="white" stop-opacity="0"/>
</linearGradient>
<linearGradient id="paint27_linear_1628_4380" x1="4.86862" y1="296.483" x2="141.957" y2="152.5" gradientUnits="userSpaceOnUse">
<stop stop-color="white"/>
<stop offset="1" stop-color="white" stop-opacity="0"/>
</linearGradient>
<linearGradient id="paint28_linear_1628_4380" x1="4.86861" y1="296.483" x2="141.956" y2="152.5" gradientUnits="userSpaceOnUse">
<stop stop-color="white"/>
<stop offset="1" stop-color="white" stop-opacity="0"/>
</linearGradient>
<linearGradient id="paint29_linear_1628_4380" x1="4.86862" y1="296.483" x2="141.956" y2="152.5" gradientUnits="userSpaceOnUse">
<stop stop-color="white"/>
<stop offset="1" stop-color="white" stop-opacity="0"/>
</linearGradient>
<linearGradient id="paint30_linear_1628_4380" x1="4.86861" y1="296.483" x2="141.956" y2="152.5" gradientUnits="userSpaceOnUse">
<stop stop-color="white"/>
<stop offset="1" stop-color="white" stop-opacity="0"/>
</linearGradient>
<linearGradient id="paint31_linear_1628_4380" x1="4.86863" y1="296.483" x2="141.957" y2="152.5" gradientUnits="userSpaceOnUse">
<stop stop-color="white"/>
<stop offset="1" stop-color="white" stop-opacity="0"/>
</linearGradient>
<linearGradient id="paint32_linear_1628_4380" x1="4.86861" y1="296.483" x2="141.957" y2="152.5" gradientUnits="userSpaceOnUse">
<stop stop-color="white"/>
<stop offset="1" stop-color="white" stop-opacity="0"/>
</linearGradient>
<linearGradient id="paint33_linear_1628_4380" x1="4.86862" y1="296.483" x2="141.957" y2="152.5" gradientUnits="userSpaceOnUse">
<stop stop-color="white"/>
<stop offset="1" stop-color="white" stop-opacity="0"/>
</linearGradient>
<linearGradient id="paint34_linear_1628_4380" x1="4.86876" y1="296.483" x2="141.957" y2="152.5" gradientUnits="userSpaceOnUse">
<stop stop-color="white"/>
<stop offset="1" stop-color="white" stop-opacity="0"/>
</linearGradient>
<linearGradient id="paint35_linear_1628_4380" x1="4.86876" y1="296.483" x2="141.957" y2="152.5" gradientUnits="userSpaceOnUse">
<stop stop-color="white"/>
<stop offset="1" stop-color="white" stop-opacity="0"/>
</linearGradient>
<linearGradient id="paint36_linear_1628_4380" x1="4.86876" y1="296.483" x2="141.957" y2="152.5" gradientUnits="userSpaceOnUse">
<stop stop-color="white"/>
<stop offset="1" stop-color="white" stop-opacity="0"/>
</linearGradient>
<linearGradient id="paint37_linear_1628_4380" x1="4.86877" y1="296.483" x2="141.957" y2="152.5" gradientUnits="userSpaceOnUse">
<stop stop-color="white"/>
<stop offset="1" stop-color="white" stop-opacity="0"/>
</linearGradient>
<linearGradient id="paint38_linear_1628_4380" x1="4.86877" y1="296.483" x2="141.957" y2="152.5" gradientUnits="userSpaceOnUse">
<stop stop-color="white"/>
<stop offset="1" stop-color="white" stop-opacity="0"/>
</linearGradient>
<linearGradient id="paint39_linear_1628_4380" x1="4.86877" y1="296.483" x2="141.957" y2="152.5" gradientUnits="userSpaceOnUse">
<stop stop-color="white"/>
<stop offset="1" stop-color="white" stop-opacity="0"/>
</linearGradient>
<linearGradient id="paint40_linear_1628_4380" x1="4.86877" y1="296.483" x2="141.957" y2="152.5" gradientUnits="userSpaceOnUse">
<stop stop-color="white"/>
<stop offset="1" stop-color="white" stop-opacity="0"/>
</linearGradient>
<linearGradient id="paint41_linear_1628_4380" x1="4.86877" y1="296.483" x2="141.957" y2="152.5" gradientUnits="userSpaceOnUse">
<stop stop-color="white"/>
<stop offset="1" stop-color="white" stop-opacity="0"/>
</linearGradient>
<linearGradient id="paint42_linear_1628_4380" x1="4.86877" y1="296.483" x2="141.957" y2="152.5" gradientUnits="userSpaceOnUse">
<stop stop-color="white"/>
<stop offset="1" stop-color="white" stop-opacity="0"/>
</linearGradient>
<linearGradient id="paint43_linear_1628_4380" x1="4.86877" y1="296.483" x2="141.957" y2="152.5" gradientUnits="userSpaceOnUse">
<stop stop-color="white"/>
<stop offset="1" stop-color="white" stop-opacity="0"/>
</linearGradient>
<linearGradient id="paint44_linear_1628_4380" x1="4.86876" y1="296.483" x2="141.957" y2="152.5" gradientUnits="userSpaceOnUse">
<stop stop-color="white"/>
<stop offset="1" stop-color="white" stop-opacity="0"/>
</linearGradient>
<linearGradient id="paint45_linear_1628_4380" x1="4.86785" y1="296.483" x2="141.956" y2="152.5" gradientUnits="userSpaceOnUse">
<stop stop-color="white"/>
<stop offset="1" stop-color="white" stop-opacity="0"/>
</linearGradient>
<linearGradient id="paint46_linear_1628_4380" x1="4.86786" y1="296.483" x2="141.956" y2="152.5" gradientUnits="userSpaceOnUse">
<stop stop-color="white"/>
<stop offset="1" stop-color="white" stop-opacity="0"/>
</linearGradient>
<linearGradient id="paint47_linear_1628_4380" x1="4.86786" y1="296.483" x2="141.956" y2="152.5" gradientUnits="userSpaceOnUse">
<stop stop-color="white"/>
<stop offset="1" stop-color="white" stop-opacity="0"/>
</linearGradient>
<linearGradient id="paint48_linear_1628_4380" x1="4.86786" y1="296.483" x2="141.956" y2="152.5" gradientUnits="userSpaceOnUse">
<stop stop-color="white"/>
<stop offset="1" stop-color="white" stop-opacity="0"/>
</linearGradient>
<linearGradient id="paint49_linear_1628_4380" x1="4.86785" y1="296.483" x2="141.956" y2="152.5" gradientUnits="userSpaceOnUse">
<stop stop-color="white"/>
<stop offset="1" stop-color="white" stop-opacity="0"/>
</linearGradient>
<linearGradient id="paint50_linear_1628_4380" x1="4.86786" y1="296.483" x2="141.956" y2="152.5" gradientUnits="userSpaceOnUse">
<stop stop-color="white"/>
<stop offset="1" stop-color="white" stop-opacity="0"/>
</linearGradient>
<linearGradient id="paint51_linear_1628_4380" x1="4.86785" y1="296.483" x2="141.956" y2="152.5" gradientUnits="userSpaceOnUse">
<stop stop-color="white"/>
<stop offset="1" stop-color="white" stop-opacity="0"/>
</linearGradient>
<linearGradient id="paint52_linear_1628_4380" x1="4.86786" y1="296.483" x2="141.956" y2="152.499" gradientUnits="userSpaceOnUse">
<stop stop-color="white"/>
<stop offset="1" stop-color="white" stop-opacity="0"/>
</linearGradient>
<linearGradient id="paint53_linear_1628_4380" x1="4.86786" y1="296.483" x2="141.956" y2="152.5" gradientUnits="userSpaceOnUse">
<stop stop-color="white"/>
<stop offset="1" stop-color="white" stop-opacity="0"/>
</linearGradient>
<linearGradient id="paint54_linear_1628_4380" x1="4.86785" y1="296.483" x2="141.956" y2="152.5" gradientUnits="userSpaceOnUse">
<stop stop-color="white"/>
<stop offset="1" stop-color="white" stop-opacity="0"/>
</linearGradient>
<linearGradient id="paint55_linear_1628_4380" x1="4.86787" y1="296.483" x2="141.956" y2="152.5" gradientUnits="userSpaceOnUse">
<stop stop-color="white"/>
<stop offset="1" stop-color="white" stop-opacity="0"/>
</linearGradient>
<linearGradient id="paint56_linear_1628_4380" x1="4.86802" y1="296.483" x2="141.956" y2="152.5" gradientUnits="userSpaceOnUse">
<stop stop-color="white"/>
<stop offset="1" stop-color="white" stop-opacity="0"/>
</linearGradient>
<linearGradient id="paint57_linear_1628_4380" x1="4.86801" y1="296.483" x2="141.956" y2="152.5" gradientUnits="userSpaceOnUse">
<stop stop-color="white"/>
<stop offset="1" stop-color="white" stop-opacity="0"/>
</linearGradient>
<linearGradient id="paint58_linear_1628_4380" x1="4.86803" y1="296.483" x2="141.956" y2="152.5" gradientUnits="userSpaceOnUse">
<stop stop-color="white"/>
<stop offset="1" stop-color="white" stop-opacity="0"/>
</linearGradient>
<linearGradient id="paint59_linear_1628_4380" x1="4.86803" y1="296.483" x2="141.956" y2="152.5" gradientUnits="userSpaceOnUse">
<stop stop-color="white"/>
<stop offset="1" stop-color="white" stop-opacity="0"/>
</linearGradient>
<linearGradient id="paint60_linear_1628_4380" x1="4.86803" y1="296.483" x2="141.956" y2="152.5" gradientUnits="userSpaceOnUse">
<stop stop-color="white"/>
<stop offset="1" stop-color="white" stop-opacity="0"/>
</linearGradient>
<linearGradient id="paint61_linear_1628_4380" x1="4.86803" y1="296.483" x2="141.956" y2="152.5" gradientUnits="userSpaceOnUse">
<stop stop-color="white"/>
<stop offset="1" stop-color="white" stop-opacity="0"/>
</linearGradient>
<linearGradient id="paint62_linear_1628_4380" x1="4.86802" y1="296.483" x2="141.956" y2="152.5" gradientUnits="userSpaceOnUse">
<stop stop-color="white"/>
<stop offset="1" stop-color="white" stop-opacity="0"/>
</linearGradient>
<linearGradient id="paint63_linear_1628_4380" x1="4.86801" y1="296.483" x2="141.956" y2="152.5" gradientUnits="userSpaceOnUse">
<stop stop-color="white"/>
<stop offset="1" stop-color="white" stop-opacity="0"/>
</linearGradient>
<linearGradient id="paint64_linear_1628_4380" x1="4.86803" y1="296.483" x2="141.956" y2="152.5" gradientUnits="userSpaceOnUse">
<stop stop-color="white"/>
<stop offset="1" stop-color="white" stop-opacity="0"/>
</linearGradient>
<linearGradient id="paint65_linear_1628_4380" x1="4.86802" y1="296.483" x2="141.956" y2="152.5" gradientUnits="userSpaceOnUse">
<stop stop-color="white"/>
<stop offset="1" stop-color="white" stop-opacity="0"/>
</linearGradient>
<linearGradient id="paint66_linear_1628_4380" x1="4.86802" y1="296.483" x2="141.957" y2="152.5" gradientUnits="userSpaceOnUse">
<stop stop-color="white"/>
<stop offset="1" stop-color="white" stop-opacity="0"/>
</linearGradient>
<linearGradient id="paint67_linear_1628_4380" x1="4.86839" y1="296.483" x2="141.956" y2="152.5" gradientUnits="userSpaceOnUse">
<stop stop-color="white"/>
<stop offset="1" stop-color="white" stop-opacity="0"/>
</linearGradient>
<linearGradient id="paint68_linear_1628_4380" x1="4.86838" y1="296.483" x2="141.956" y2="152.5" gradientUnits="userSpaceOnUse">
<stop stop-color="white"/>
<stop offset="1" stop-color="white" stop-opacity="0"/>
</linearGradient>
<linearGradient id="paint69_linear_1628_4380" x1="4.8684" y1="296.483" x2="141.956" y2="152.5" gradientUnits="userSpaceOnUse">
<stop stop-color="white"/>
<stop offset="1" stop-color="white" stop-opacity="0"/>
</linearGradient>
<linearGradient id="paint70_linear_1628_4380" x1="4.86839" y1="296.483" x2="141.956" y2="152.5" gradientUnits="userSpaceOnUse">
<stop stop-color="white"/>
<stop offset="1" stop-color="white" stop-opacity="0"/>
</linearGradient>
<linearGradient id="paint71_linear_1628_4380" x1="4.86839" y1="296.483" x2="141.957" y2="152.501" gradientUnits="userSpaceOnUse">
<stop stop-color="white"/>
<stop offset="1" stop-color="white" stop-opacity="0"/>
</linearGradient>
<linearGradient id="paint72_linear_1628_4380" x1="4.8684" y1="296.483" x2="141.956" y2="152.5" gradientUnits="userSpaceOnUse">
<stop stop-color="white"/>
<stop offset="1" stop-color="white" stop-opacity="0"/>
</linearGradient>
<linearGradient id="paint73_linear_1628_4380" x1="4.86839" y1="296.483" x2="141.956" y2="152.5" gradientUnits="userSpaceOnUse">
<stop stop-color="white"/>
<stop offset="1" stop-color="white" stop-opacity="0"/>
</linearGradient>
<linearGradient id="paint74_linear_1628_4380" x1="4.86839" y1="296.483" x2="141.956" y2="152.5" gradientUnits="userSpaceOnUse">
<stop stop-color="white"/>
<stop offset="1" stop-color="white" stop-opacity="0"/>
</linearGradient>
<linearGradient id="paint75_linear_1628_4380" x1="4.86839" y1="296.483" x2="141.956" y2="152.5" gradientUnits="userSpaceOnUse">
<stop stop-color="white"/>
<stop offset="1" stop-color="white" stop-opacity="0"/>
</linearGradient>
<linearGradient id="paint76_linear_1628_4380" x1="4.8684" y1="296.483" x2="141.957" y2="152.501" gradientUnits="userSpaceOnUse">
<stop stop-color="white"/>
<stop offset="1" stop-color="white" stop-opacity="0"/>
</linearGradient>
<linearGradient id="paint77_linear_1628_4380" x1="4.86839" y1="296.483" x2="141.957" y2="152.501" gradientUnits="userSpaceOnUse">
<stop stop-color="white"/>
<stop offset="1" stop-color="white" stop-opacity="0"/>
</linearGradient>
<linearGradient id="paint78_linear_1628_4380" x1="4.8686" y1="296.483" x2="141.957" y2="152.5" gradientUnits="userSpaceOnUse">
<stop stop-color="white"/>
<stop offset="1" stop-color="white" stop-opacity="0"/>
</linearGradient>
<linearGradient id="paint79_linear_1628_4380" x1="4.86859" y1="296.483" x2="141.957" y2="152.5" gradientUnits="userSpaceOnUse">
<stop stop-color="white"/>
<stop offset="1" stop-color="white" stop-opacity="0"/>
</linearGradient>
<linearGradient id="paint80_linear_1628_4380" x1="4.86861" y1="296.483" x2="141.957" y2="152.5" gradientUnits="userSpaceOnUse">
<stop stop-color="white"/>
<stop offset="1" stop-color="white" stop-opacity="0"/>
</linearGradient>
<linearGradient id="paint81_linear_1628_4380" x1="4.8686" y1="296.483" x2="141.957" y2="152.5" gradientUnits="userSpaceOnUse">
<stop stop-color="white"/>
<stop offset="1" stop-color="white" stop-opacity="0"/>
</linearGradient>
<linearGradient id="paint82_linear_1628_4380" x1="4.8686" y1="296.483" x2="141.957" y2="152.5" gradientUnits="userSpaceOnUse">
<stop stop-color="white"/>
<stop offset="1" stop-color="white" stop-opacity="0"/>
</linearGradient>
<linearGradient id="paint83_linear_1628_4380" x1="4.86861" y1="296.483" x2="141.956" y2="152.5" gradientUnits="userSpaceOnUse">
<stop stop-color="white"/>
<stop offset="1" stop-color="white" stop-opacity="0"/>
</linearGradient>
<linearGradient id="paint84_linear_1628_4380" x1="4.86861" y1="296.483" x2="141.956" y2="152.5" gradientUnits="userSpaceOnUse">
<stop stop-color="white"/>
<stop offset="1" stop-color="white" stop-opacity="0"/>
</linearGradient>
<linearGradient id="paint85_linear_1628_4380" x1="4.8686" y1="296.483" x2="141.956" y2="152.499" gradientUnits="userSpaceOnUse">
<stop stop-color="white"/>
<stop offset="1" stop-color="white" stop-opacity="0"/>
</linearGradient>
<linearGradient id="paint86_linear_1628_4380" x1="4.8686" y1="296.483" x2="141.957" y2="152.5" gradientUnits="userSpaceOnUse">
<stop stop-color="white"/>
<stop offset="1" stop-color="white" stop-opacity="0"/>
</linearGradient>
<linearGradient id="paint87_linear_1628_4380" x1="4.8686" y1="296.483" x2="141.957" y2="152.5" gradientUnits="userSpaceOnUse">
<stop stop-color="white"/>
<stop offset="1" stop-color="white" stop-opacity="0"/>
</linearGradient>
<linearGradient id="paint88_linear_1628_4380" x1="4.8686" y1="296.483" x2="141.957" y2="152.5" gradientUnits="userSpaceOnUse">
<stop stop-color="white"/>
<stop offset="1" stop-color="white" stop-opacity="0"/>
</linearGradient>
<linearGradient id="paint89_linear_1628_4380" x1="4.86852" y1="296.483" x2="141.957" y2="152.5" gradientUnits="userSpaceOnUse">
<stop stop-color="white"/>
<stop offset="1" stop-color="white" stop-opacity="0"/>
</linearGradient>
<linearGradient id="paint90_linear_1628_4380" x1="4.86851" y1="296.483" x2="141.956" y2="152.5" gradientUnits="userSpaceOnUse">
<stop stop-color="white"/>
<stop offset="1" stop-color="white" stop-opacity="0"/>
</linearGradient>
<linearGradient id="paint91_linear_1628_4380" x1="4.86851" y1="296.483" x2="141.957" y2="152.5" gradientUnits="userSpaceOnUse">
<stop stop-color="white"/>
<stop offset="1" stop-color="white" stop-opacity="0"/>
</linearGradient>
<linearGradient id="paint92_linear_1628_4380" x1="4.86852" y1="296.483" x2="141.957" y2="152.5" gradientUnits="userSpaceOnUse">
<stop stop-color="white"/>
<stop offset="1" stop-color="white" stop-opacity="0"/>
</linearGradient>
<linearGradient id="paint93_linear_1628_4380" x1="4.86852" y1="296.483" x2="141.957" y2="152.5" gradientUnits="userSpaceOnUse">
<stop stop-color="white"/>
<stop offset="1" stop-color="white" stop-opacity="0"/>
</linearGradient>
<linearGradient id="paint94_linear_1628_4380" x1="4.86852" y1="296.483" x2="141.956" y2="152.5" gradientUnits="userSpaceOnUse">
<stop stop-color="white"/>
<stop offset="1" stop-color="white" stop-opacity="0"/>
</linearGradient>
<linearGradient id="paint95_linear_1628_4380" x1="4.86852" y1="296.483" x2="141.956" y2="152.5" gradientUnits="userSpaceOnUse">
<stop stop-color="white"/>
<stop offset="1" stop-color="white" stop-opacity="0"/>
</linearGradient>
<linearGradient id="paint96_linear_1628_4380" x1="4.86851" y1="296.483" x2="141.956" y2="152.499" gradientUnits="userSpaceOnUse">
<stop stop-color="white"/>
<stop offset="1" stop-color="white" stop-opacity="0"/>
</linearGradient>
<linearGradient id="paint97_linear_1628_4380" x1="4.86852" y1="296.483" x2="141.957" y2="152.5" gradientUnits="userSpaceOnUse">
<stop stop-color="white"/>
<stop offset="1" stop-color="white" stop-opacity="0"/>
</linearGradient>
<linearGradient id="paint98_linear_1628_4380" x1="4.86851" y1="296.483" x2="141.957" y2="152.5" gradientUnits="userSpaceOnUse">
<stop stop-color="white"/>
<stop offset="1" stop-color="white" stop-opacity="0"/>
</linearGradient>
<linearGradient id="paint99_linear_1628_4380" x1="4.86852" y1="296.483" x2="141.957" y2="152.5" gradientUnits="userSpaceOnUse">
<stop stop-color="white"/>
<stop offset="1" stop-color="white" stop-opacity="0"/>
</linearGradient>
<linearGradient id="paint100_linear_1628_4380" x1="4.86856" y1="296.483" x2="141.957" y2="152.5" gradientUnits="userSpaceOnUse">
<stop stop-color="white"/>
<stop offset="1" stop-color="white" stop-opacity="0"/>
</linearGradient>
<linearGradient id="paint101_linear_1628_4380" x1="4.86857" y1="296.483" x2="141.957" y2="152.5" gradientUnits="userSpaceOnUse">
<stop stop-color="white"/>
<stop offset="1" stop-color="white" stop-opacity="0"/>
</linearGradient>
<linearGradient id="paint102_linear_1628_4380" x1="4.86857" y1="296.483" x2="141.957" y2="152.5" gradientUnits="userSpaceOnUse">
<stop stop-color="white"/>
<stop offset="1" stop-color="white" stop-opacity="0"/>
</linearGradient>
<linearGradient id="paint103_linear_1628_4380" x1="4.86858" y1="296.483" x2="141.957" y2="152.5" gradientUnits="userSpaceOnUse">
<stop stop-color="white"/>
<stop offset="1" stop-color="white" stop-opacity="0"/>
</linearGradient>
<linearGradient id="paint104_linear_1628_4380" x1="4.86858" y1="296.483" x2="141.957" y2="152.5" gradientUnits="userSpaceOnUse">
<stop stop-color="white"/>
<stop offset="1" stop-color="white" stop-opacity="0"/>
</linearGradient>
<linearGradient id="paint105_linear_1628_4380" x1="4.86858" y1="296.483" x2="141.956" y2="152.5" gradientUnits="userSpaceOnUse">
<stop stop-color="white"/>
<stop offset="1" stop-color="white" stop-opacity="0"/>
</linearGradient>
<linearGradient id="paint106_linear_1628_4380" x1="4.86858" y1="296.483" x2="141.956" y2="152.5" gradientUnits="userSpaceOnUse">
<stop stop-color="white"/>
<stop offset="1" stop-color="white" stop-opacity="0"/>
</linearGradient>
<linearGradient id="paint107_linear_1628_4380" x1="4.86858" y1="296.483" x2="141.956" y2="152.5" gradientUnits="userSpaceOnUse">
<stop stop-color="white"/>
<stop offset="1" stop-color="white" stop-opacity="0"/>
</linearGradient>
<linearGradient id="paint108_linear_1628_4380" x1="4.86858" y1="296.483" x2="141.957" y2="152.5" gradientUnits="userSpaceOnUse">
<stop stop-color="white"/>
<stop offset="1" stop-color="white" stop-opacity="0"/>
</linearGradient>
<linearGradient id="paint109_linear_1628_4380" x1="4.86858" y1="296.483" x2="141.957" y2="152.5" gradientUnits="userSpaceOnUse">
<stop stop-color="white"/>
<stop offset="1" stop-color="white" stop-opacity="0"/>
</linearGradient>
<linearGradient id="paint110_linear_1628_4380" x1="4.86858" y1="296.483" x2="141.957" y2="152.5" gradientUnits="userSpaceOnUse">
<stop stop-color="white"/>
<stop offset="1" stop-color="white" stop-opacity="0"/>
</linearGradient>
<linearGradient id="paint111_linear_1628_4380" x1="4.86844" y1="296.483" x2="141.957" y2="152.5" gradientUnits="userSpaceOnUse">
<stop stop-color="white"/>
<stop offset="1" stop-color="white" stop-opacity="0"/>
</linearGradient>
<linearGradient id="paint112_linear_1628_4380" x1="4.86844" y1="296.483" x2="141.956" y2="152.5" gradientUnits="userSpaceOnUse">
<stop stop-color="white"/>
<stop offset="1" stop-color="white" stop-opacity="0"/>
</linearGradient>
<linearGradient id="paint113_linear_1628_4380" x1="4.86845" y1="296.483" x2="141.957" y2="152.5" gradientUnits="userSpaceOnUse">
<stop stop-color="white"/>
<stop offset="1" stop-color="white" stop-opacity="0"/>
</linearGradient>
<linearGradient id="paint114_linear_1628_4380" x1="4.86846" y1="296.483" x2="141.956" y2="152.5" gradientUnits="userSpaceOnUse">
<stop stop-color="white"/>
<stop offset="1" stop-color="white" stop-opacity="0"/>
</linearGradient>
<linearGradient id="paint115_linear_1628_4380" x1="4.86846" y1="296.483" x2="141.957" y2="152.5" gradientUnits="userSpaceOnUse">
<stop stop-color="white"/>
<stop offset="1" stop-color="white" stop-opacity="0"/>
</linearGradient>
<linearGradient id="paint116_linear_1628_4380" x1="4.86845" y1="296.483" x2="141.956" y2="152.5" gradientUnits="userSpaceOnUse">
<stop stop-color="white"/>
<stop offset="1" stop-color="white" stop-opacity="0"/>
</linearGradient>
<linearGradient id="paint117_linear_1628_4380" x1="4.86845" y1="296.483" x2="141.956" y2="152.5" gradientUnits="userSpaceOnUse">
<stop stop-color="white"/>
<stop offset="1" stop-color="white" stop-opacity="0"/>
</linearGradient>
<linearGradient id="paint118_linear_1628_4380" x1="4.86846" y1="296.483" x2="141.956" y2="152.5" gradientUnits="userSpaceOnUse">
<stop stop-color="white"/>
<stop offset="1" stop-color="white" stop-opacity="0"/>
</linearGradient>
<linearGradient id="paint119_linear_1628_4380" x1="4.86844" y1="296.483" x2="141.956" y2="152.5" gradientUnits="userSpaceOnUse">
<stop stop-color="white"/>
<stop offset="1" stop-color="white" stop-opacity="0"/>
</linearGradient>
<linearGradient id="paint120_linear_1628_4380" x1="4.86845" y1="296.483" x2="141.957" y2="152.5" gradientUnits="userSpaceOnUse">
<stop stop-color="white"/>
<stop offset="1" stop-color="white" stop-opacity="0"/>
</linearGradient>
<linearGradient id="paint121_linear_1628_4380" x1="4.86844" y1="296.483" x2="141.957" y2="152.5" gradientUnits="userSpaceOnUse">
<stop stop-color="white"/>
<stop offset="1" stop-color="white" stop-opacity="0"/>
</linearGradient>
<linearGradient id="paint122_linear_1628_4380" x1="4.86839" y1="296.483" x2="141.956" y2="152.5" gradientUnits="userSpaceOnUse">
<stop stop-color="white"/>
<stop offset="1" stop-color="white" stop-opacity="0"/>
</linearGradient>
<linearGradient id="paint123_linear_1628_4380" x1="4.86839" y1="296.483" x2="141.956" y2="152.5" gradientUnits="userSpaceOnUse">
<stop stop-color="white"/>
<stop offset="1" stop-color="white" stop-opacity="0"/>
</linearGradient>
<linearGradient id="paint124_linear_1628_4380" x1="4.8684" y1="296.483" x2="141.956" y2="152.5" gradientUnits="userSpaceOnUse">
<stop stop-color="white"/>
<stop offset="1" stop-color="white" stop-opacity="0"/>
</linearGradient>
<linearGradient id="paint125_linear_1628_4380" x1="4.8684" y1="296.483" x2="141.956" y2="152.5" gradientUnits="userSpaceOnUse">
<stop stop-color="white"/>
<stop offset="1" stop-color="white" stop-opacity="0"/>
</linearGradient>
<linearGradient id="paint126_linear_1628_4380" x1="4.8684" y1="296.483" x2="141.957" y2="152.5" gradientUnits="userSpaceOnUse">
<stop stop-color="white"/>
<stop offset="1" stop-color="white" stop-opacity="0"/>
</linearGradient>
<linearGradient id="paint127_linear_1628_4380" x1="4.8684" y1="296.483" x2="141.956" y2="152.5" gradientUnits="userSpaceOnUse">
<stop stop-color="white"/>
<stop offset="1" stop-color="white" stop-opacity="0"/>
</linearGradient>
<linearGradient id="paint128_linear_1628_4380" x1="4.8684" y1="296.483" x2="141.956" y2="152.5" gradientUnits="userSpaceOnUse">
<stop stop-color="white"/>
<stop offset="1" stop-color="white" stop-opacity="0"/>
</linearGradient>
<linearGradient id="paint129_linear_1628_4380" x1="4.8684" y1="296.483" x2="141.956" y2="152.5" gradientUnits="userSpaceOnUse">
<stop stop-color="white"/>
<stop offset="1" stop-color="white" stop-opacity="0"/>
</linearGradient>
<linearGradient id="paint130_linear_1628_4380" x1="4.8684" y1="296.483" x2="141.956" y2="152.5" gradientUnits="userSpaceOnUse">
<stop stop-color="white"/>
<stop offset="1" stop-color="white" stop-opacity="0"/>
</linearGradient>
<linearGradient id="paint131_linear_1628_4380" x1="4.8684" y1="296.483" x2="141.957" y2="152.5" gradientUnits="userSpaceOnUse">
<stop stop-color="white"/>
<stop offset="1" stop-color="white" stop-opacity="0"/>
</linearGradient>
<linearGradient id="paint132_linear_1628_4380" x1="4.86851" y1="296.483" x2="141.957" y2="152.5" gradientUnits="userSpaceOnUse">
<stop stop-color="white"/>
<stop offset="1" stop-color="white" stop-opacity="0"/>
</linearGradient>
<linearGradient id="paint133_linear_1628_4380" x1="4.86844" y1="296.483" x2="141.957" y2="152.5" gradientUnits="userSpaceOnUse">
<stop stop-color="white"/>
<stop offset="1" stop-color="white" stop-opacity="0"/>
</linearGradient>
<linearGradient id="paint134_linear_1628_4380" x1="4.86843" y1="296.483" x2="141.956" y2="152.5" gradientUnits="userSpaceOnUse">
<stop stop-color="white"/>
<stop offset="1" stop-color="white" stop-opacity="0"/>
</linearGradient>
<linearGradient id="paint135_linear_1628_4380" x1="4.86844" y1="296.483" x2="141.957" y2="152.5" gradientUnits="userSpaceOnUse">
<stop stop-color="white"/>
<stop offset="1" stop-color="white" stop-opacity="0"/>
</linearGradient>
<linearGradient id="paint136_linear_1628_4380" x1="4.86844" y1="296.483" x2="141.956" y2="152.5" gradientUnits="userSpaceOnUse">
<stop stop-color="white"/>
<stop offset="1" stop-color="white" stop-opacity="0"/>
</linearGradient>
<linearGradient id="paint137_linear_1628_4380" x1="4.86845" y1="296.483" x2="141.957" y2="152.5" gradientUnits="userSpaceOnUse">
<stop stop-color="white"/>
<stop offset="1" stop-color="white" stop-opacity="0"/>
</linearGradient>
<linearGradient id="paint138_linear_1628_4380" x1="4.86834" y1="296.483" x2="141.956" y2="152.5" gradientUnits="userSpaceOnUse">
<stop stop-color="white"/>
<stop offset="1" stop-color="white" stop-opacity="0"/>
</linearGradient>
<linearGradient id="paint139_linear_1628_4380" x1="4.86834" y1="296.483" x2="141.956" y2="152.5" gradientUnits="userSpaceOnUse">
<stop stop-color="white"/>
<stop offset="1" stop-color="white" stop-opacity="0"/>
</linearGradient>
<linearGradient id="paint140_linear_1628_4380" x1="4.86834" y1="296.483" x2="141.956" y2="152.5" gradientUnits="userSpaceOnUse">
<stop stop-color="white"/>
<stop offset="1" stop-color="white" stop-opacity="0"/>
</linearGradient>
<linearGradient id="paint141_linear_1628_4380" x1="4.86834" y1="296.483" x2="141.956" y2="152.5" gradientUnits="userSpaceOnUse">
<stop stop-color="white"/>
<stop offset="1" stop-color="white" stop-opacity="0"/>
</linearGradient>
<linearGradient id="paint142_linear_1628_4380" x1="4.86834" y1="296.483" x2="141.957" y2="152.5" gradientUnits="userSpaceOnUse">
<stop stop-color="white"/>
<stop offset="1" stop-color="white" stop-opacity="0"/>
</linearGradient>
<linearGradient id="paint143_linear_1628_4380" x1="4.86844" y1="296.483" x2="141.957" y2="152.5" gradientUnits="userSpaceOnUse">
<stop stop-color="white"/>
<stop offset="1" stop-color="white" stop-opacity="0"/>
</linearGradient>
<linearGradient id="paint144_linear_1628_4380" x1="4.86841" y1="296.483" x2="141.956" y2="152.5" gradientUnits="userSpaceOnUse">
<stop stop-color="white"/>
<stop offset="1" stop-color="white" stop-opacity="0"/>
</linearGradient>
<linearGradient id="paint145_linear_1628_4380" x1="4.86841" y1="296.483" x2="141.956" y2="152.5" gradientUnits="userSpaceOnUse">
<stop stop-color="white"/>
<stop offset="1" stop-color="white" stop-opacity="0"/>
</linearGradient>
<linearGradient id="paint146_linear_1628_4380" x1="4.86841" y1="296.483" x2="141.956" y2="152.5" gradientUnits="userSpaceOnUse">
<stop stop-color="white"/>
<stop offset="1" stop-color="white" stop-opacity="0"/>
</linearGradient>
<linearGradient id="paint147_linear_1628_4380" x1="4.86842" y1="296.483" x2="141.956" y2="152.5" gradientUnits="userSpaceOnUse">
<stop stop-color="white"/>
<stop offset="1" stop-color="white" stop-opacity="0"/>
</linearGradient>
<linearGradient id="paint148_linear_1628_4380" x1="4.86841" y1="296.483" x2="141.957" y2="152.5" gradientUnits="userSpaceOnUse">
<stop stop-color="white"/>
<stop offset="1" stop-color="white" stop-opacity="0"/>
</linearGradient>
<linearGradient id="paint149_linear_1628_4380" x1="4.86842" y1="296.483" x2="141.956" y2="152.5" gradientUnits="userSpaceOnUse">
<stop stop-color="white"/>
<stop offset="1" stop-color="white" stop-opacity="0"/>
</linearGradient>
<linearGradient id="paint150_linear_1628_4380" x1="4.86841" y1="296.483" x2="141.956" y2="152.5" gradientUnits="userSpaceOnUse">
<stop stop-color="white"/>
<stop offset="1" stop-color="white" stop-opacity="0"/>
</linearGradient>
<linearGradient id="paint151_linear_1628_4380" x1="4.86842" y1="296.483" x2="141.956" y2="152.5" gradientUnits="userSpaceOnUse">
<stop stop-color="white"/>
<stop offset="1" stop-color="white" stop-opacity="0"/>
</linearGradient>
<linearGradient id="paint152_linear_1628_4380" x1="4.86842" y1="296.483" x2="141.956" y2="152.5" gradientUnits="userSpaceOnUse">
<stop stop-color="white"/>
<stop offset="1" stop-color="white" stop-opacity="0"/>
</linearGradient>
<linearGradient id="paint153_linear_1628_4380" x1="4.86841" y1="296.483" x2="141.957" y2="152.5" gradientUnits="userSpaceOnUse">
<stop stop-color="white"/>
<stop offset="1" stop-color="white" stop-opacity="0"/>
</linearGradient>
<linearGradient id="paint154_linear_1628_4380" x1="4.86841" y1="296.483" x2="141.957" y2="152.5" gradientUnits="userSpaceOnUse">
<stop stop-color="white"/>
<stop offset="1" stop-color="white" stop-opacity="0"/>
</linearGradient>
<clipPath id="clip0_1628_4380">
<rect width="305" height="305" fill="white"/>
</clipPath>
</defs>
</svg>
