<svg width="3351" height="425" viewBox="0 0 3351 425" fill="none" xmlns="http://www.w3.org/2000/svg">
<path fill-rule="evenodd" clip-rule="evenodd" d="M0.878906 24.3822C11.8553 -16.7406 110.397 88.8392 233.252 121.983C356.106 155.126 429.457 132.207 537.726 160.242C645.995 188.277 757.747 249.137 998.7 282.426C1239.65 315.715 1462.44 234.251 1671.13 243.376C1671.69 243.401 1736.64 241.983 1813.79 255.981C1997.55 289.302 2142.23 319.83 2261.34 309.893C2445.13 294.559 2532.06 226.49 2683.99 188.277C2736.45 175.082 2806.61 160.743 2881.44 150.119C2954.76 139.708 3032.83 133.064 3082.45 115.085C3125.38 99.533 3185.98 59.4952 3242.6 34.8544C3247.52 32.7101 3269.52 20.7259 3279.51 18.1537C3303.47 11.9901 3332.8 10.8535 3340.95 13.0723C3353.52 16.5013 3353.52 -118.748 3340.95 424.5H0.878906V24.3822Z" fill="white"/>
<path fill-rule="evenodd" clip-rule="evenodd" d="M1181.12 226.106C1174.66 234.784 1151.22 262 1124.5 262C1122.78 262.002 1121.07 261.883 1119.37 261.645C1109.99 260.161 1101.11 256.389 1093.51 250.657C1083.28 243.096 1074.33 233.925 1067 223.5C1074.33 213.075 1083.28 203.904 1093.51 196.343C1101.11 190.612 1109.99 186.839 1119.37 185.355C1121.07 185.117 1122.78 184.998 1124.5 185C1151.22 185 1174.66 212.217 1181.12 220.894C1182.29 222.43 1182.29 224.571 1181.12 226.106Z" fill="#FFF2BD"/>
<path fill-rule="evenodd" clip-rule="evenodd" d="M1124.89 238C1123.51 238 1122.29 237.149 1121.91 235.912C1119.36 227.808 1119.36 219.193 1121.91 211.089C1122.39 209.551 1124.11 208.668 1125.76 209.117C1127.41 209.565 1128.36 211.175 1127.87 212.713C1125.66 219.756 1125.66 227.245 1127.87 234.288C1128.15 235.164 1127.96 236.11 1127.38 236.84C1126.79 237.57 1125.87 238 1124.89 238Z" fill="#9CAFC2"/>
<path fill-rule="evenodd" clip-rule="evenodd" d="M1112.89 238C1111.51 238 1110.3 237.149 1109.91 235.912C1107.36 227.808 1107.36 219.192 1109.91 211.088C1110.22 210.094 1111.08 209.329 1112.15 209.083C1113.23 208.837 1114.37 209.147 1115.14 209.895C1115.91 210.644 1116.19 211.717 1115.88 212.712C1113.66 219.756 1113.66 227.244 1115.88 234.288C1116.15 235.164 1115.97 236.11 1115.38 236.84C1114.79 237.57 1113.87 238 1112.89 238Z" fill="#9CAFC2"/>
<path fill-rule="evenodd" clip-rule="evenodd" d="M1049.85 223.502C1044.51 231.802 1041.46 241.42 1041.01 251.347C1040.9 252.992 1041.71 254.559 1043.1 255.396C1044.48 256.234 1046.21 256.198 1047.57 255.303C1055.19 250.138 1067 239.537 1067 223.502C1067 207.467 1055.19 196.866 1047.57 191.701C1046.22 190.803 1044.49 190.765 1043.1 191.603C1041.71 192.441 1040.9 194.01 1041.01 195.657C1041.46 205.584 1044.51 215.203 1049.85 223.502Z" fill="#9CAFC2"/>
<path fill-rule="evenodd" clip-rule="evenodd" d="M1119 186.138C1109.83 187.605 1101.15 191.334 1093.72 197C1092.46 191.638 1090.64 186.427 1088.3 181.454C1087.83 180.466 1087.91 179.301 1088.51 178.387C1089.11 177.474 1090.14 176.948 1091.21 177.004C1106.46 177.882 1114.71 182.391 1119 186.138Z" fill="#9CAFC2"/>
<path fill-rule="evenodd" clip-rule="evenodd" d="M1119 261.405C1114.71 265.34 1106.46 270.074 1091.21 270.996C1090.14 271.055 1089.11 270.503 1088.51 269.544C1087.91 268.585 1087.83 267.361 1088.3 266.323C1090.64 261.102 1092.46 255.63 1093.72 250C1101.15 255.949 1109.83 259.865 1119 261.405Z" fill="#9CAFC2"/>
<path fill-rule="evenodd" clip-rule="evenodd" d="M1181.12 226.586C1176.45 232.816 1162.9 248.743 1145.69 257L1145.66 256.941C1140.48 246.746 1137.85 235.44 1138 224C1137.85 212.56 1140.48 201.255 1145.66 191.059L1145.69 191C1162.9 199.257 1176.45 215.184 1181.12 221.414C1182.29 222.938 1182.29 225.062 1181.12 226.586Z" fill="#F3D55B"/>
<path d="M1155.5 227C1158.54 227 1161 224.314 1161 221C1161 217.686 1158.54 215 1155.5 215C1152.46 215 1150 217.686 1150 221C1150 224.314 1152.46 227 1155.5 227Z" fill="#9CAFC2"/>
</svg>
