<svg width="2768" height="724" viewBox="0 0 2768 724" fill="none" xmlns="http://www.w3.org/2000/svg">
<g clip-path="url(#clip0_1563_10411)">
<g clip-path="url(#clip1_1563_10411)">
<mask id="mask0_1563_10411" style="mask-type:luminance" maskUnits="userSpaceOnUse" x="-504" y="0" width="3272" height="724">
<path d="M2768 0H-503.372V724H2768V0Z" fill="white"/>
</mask>
<g mask="url(#mask0_1563_10411)">
<path fill-rule="evenodd" clip-rule="evenodd" d="M-525.493 416.382C-514.517 375.259 -415.975 480.839 -293.12 513.983C-170.266 547.126 -96.9155 524.207 11.354 552.242C119.623 580.277 231.375 641.137 472.328 674.426C713.282 707.715 936.07 626.25 1144.76 635.376C1145.31 635.401 1210.26 633.983 1287.42 647.981C1471.18 681.302 1615.86 711.83 1734.97 701.893C1918.76 686.559 2005.69 618.49 2157.61 580.277C2210.08 567.082 2280.24 552.743 2355.07 542.119C2428.39 531.708 2506.46 525.064 2556.08 507.085C2599.01 491.533 2659.61 451.495 2716.23 426.854C2721.15 424.71 2743.15 412.726 2753.14 410.154C2777.1 403.99 2806.43 402.853 2814.58 405.072C2827.15 408.501 2827.15 681.84 2814.58 1225.09L-525.493 1225.45V416.382Z" fill="white"/>
</g>
</g>
</g>
<defs>
<clipPath id="clip0_1563_10411">
<rect width="2768" height="724" fill="white"/>
</clipPath>
<clipPath id="clip1_1563_10411">
<rect width="3271.37" height="724" fill="white" transform="translate(-503.372)"/>
</clipPath>
</defs>
</svg>
