<svg width="2768" height="724" viewBox="0 0 2768 724" fill="none" xmlns="http://www.w3.org/2000/svg">
<g clip-path="url(#clip0_1572_1947)">
<mask id="mask0_1572_1947" style="mask-type:luminance" maskUnits="userSpaceOnUse" x="0" y="0" width="2768" height="724">
<path d="M2768 0H0V724H2768V0Z" fill="white"/>
</mask>
<g mask="url(#mask0_1572_1947)">
<mask id="mask1_1572_1947" style="mask-type:luminance" maskUnits="userSpaceOnUse" x="-504" y="0" width="3272" height="724">
<path d="M2768 0H-503.372V724H2768V0Z" fill="white"/>
</mask>
<g mask="url(#mask1_1572_1947)">
<mask id="mask2_1572_1947" style="mask-type:luminance" maskUnits="userSpaceOnUse" x="-504" y="0" width="3272" height="724">
<path d="M2768 0H-503.372V724H2768V0Z" fill="white"/>
</mask>
<g mask="url(#mask2_1572_1947)">
<path fill-rule="evenodd" clip-rule="evenodd" d="M-525.493 416.382C-514.517 375.259 -415.975 480.839 -293.12 513.983C-170.266 547.126 -96.9157 524.207 11.3538 552.242C119.623 580.277 231.375 641.137 472.328 674.426C713.282 707.715 936.07 626.25 1144.76 635.376C1145.31 635.401 1210.26 633.983 1287.42 647.981C1471.18 681.302 1615.86 711.83 1734.97 701.893C1918.76 686.559 2005.69 618.49 2157.61 580.277C2210.08 567.082 2280.24 552.743 2355.07 542.119C2428.39 531.708 2506.46 525.064 2556.08 507.085C2599.01 491.533 2659.61 451.495 2716.23 426.854C2721.15 424.71 2743.15 412.726 2753.14 410.154C2777.1 403.99 2806.43 402.853 2814.58 405.072C2827.15 408.501 2827.15 681.84 2814.58 1225.09L-525.493 1225.45V416.382Z" fill="white"/>
</g>
</g>
</g>
<path fill-rule="evenodd" clip-rule="evenodd" d="M784.116 651.106C777.658 659.783 754.216 687 727.501 687C725.784 687.002 724.07 686.883 722.37 686.645C712.985 685.161 704.106 681.389 696.51 675.657C686.277 668.096 677.326 658.925 670.001 648.5C677.326 638.075 686.277 628.904 696.51 621.343C704.106 615.611 712.985 611.839 722.37 610.355C724.07 610.117 725.784 609.998 727.501 610C754.216 610 777.658 637.217 784.116 645.894C785.295 647.429 785.295 649.571 784.116 651.106Z" fill="#FFF2BD"/>
<path fill-rule="evenodd" clip-rule="evenodd" d="M727.891 663C726.51 663 725.295 662.149 724.908 660.912C722.364 652.808 722.364 644.193 724.908 636.089C725.389 634.551 727.114 633.668 728.762 634.117C730.409 634.565 731.355 636.175 730.875 637.713C728.662 644.756 728.662 652.244 730.875 659.288C731.149 660.164 730.964 661.11 730.378 661.84C729.791 662.57 728.87 663 727.891 663Z" fill="#9CAFC2"/>
<path fill-rule="evenodd" clip-rule="evenodd" d="M715.892 663C714.511 663 713.295 662.149 712.908 660.912C710.364 652.808 710.364 644.192 712.908 636.088C713.219 635.093 714.075 634.329 715.154 634.083C716.232 633.837 717.37 634.147 718.137 634.895C718.905 635.644 719.186 636.717 718.876 637.712C716.663 644.756 716.663 652.244 718.876 659.288C719.149 660.164 718.965 661.11 718.378 661.84C717.791 662.57 716.87 663 715.892 663Z" fill="#9CAFC2"/>
<path fill-rule="evenodd" clip-rule="evenodd" d="M652.852 648.502C647.515 656.801 644.46 666.42 644.01 676.347C643.901 677.992 644.708 679.559 646.095 680.396C647.483 681.233 649.212 681.198 650.565 680.303C658.186 675.138 670 664.537 670 648.502C670 632.467 658.186 621.866 650.571 616.701C649.218 615.803 647.486 615.765 646.097 616.603C644.707 617.441 643.9 619.01 644.01 620.657C644.46 630.584 647.515 640.203 652.852 648.502Z" fill="#9CAFC2"/>
<path fill-rule="evenodd" clip-rule="evenodd" d="M722 611.138C712.826 612.605 704.146 616.334 696.722 622C695.461 616.638 693.645 611.427 691.303 606.454C690.834 605.466 690.914 604.3 691.511 603.387C692.109 602.474 693.136 601.948 694.214 602.004C709.462 602.882 717.705 607.391 722 611.138Z" fill="#9CAFC2"/>
<path fill-rule="evenodd" clip-rule="evenodd" d="M722 686.405C717.705 690.34 709.462 695.074 694.214 695.996C693.136 696.054 692.109 695.502 691.511 694.543C690.914 693.584 690.834 692.361 691.303 691.323C693.645 686.102 695.461 680.63 696.722 675C704.146 680.949 712.826 684.865 722 686.405Z" fill="#9CAFC2"/>
<path fill-rule="evenodd" clip-rule="evenodd" d="M784.118 651.586C779.455 657.816 765.905 673.743 748.689 682L748.659 681.941C743.479 671.745 740.851 660.44 741.004 649C740.851 637.56 743.479 626.255 748.659 616.059L748.689 616C765.905 624.257 779.455 640.184 784.118 646.414C785.291 647.938 785.291 650.062 784.118 651.586Z" fill="#F3D55B"/>
<path d="M758.498 652C761.536 652 763.998 649.314 763.998 646C763.998 642.686 761.536 640 758.498 640C755.46 640 752.998 642.686 752.998 646C752.998 649.314 755.46 652 758.498 652Z" fill="#9CAFC2"/>
</g>
<defs>
<clipPath id="clip0_1572_1947">
<rect width="2768" height="724" fill="white"/>
</clipPath>
</defs>
</svg>
