<svg width="3272" height="724" viewBox="0 0 3272 724" fill="none" xmlns="http://www.w3.org/2000/svg">
<mask id="mask0_1571_11045" style="mask-type:luminance" maskUnits="userSpaceOnUse" x="0" y="0" width="3272" height="724">
<path d="M3271.37 0H0V724H3271.37V0Z" fill="white"/>
</mask>
<g mask="url(#mask0_1571_11045)">
<path fill-rule="evenodd" clip-rule="evenodd" d="M-22.1211 416.382C-11.1447 375.259 87.3972 480.839 210.252 513.983C333.106 547.126 406.457 524.207 514.726 552.242C622.995 580.277 734.747 641.137 975.7 674.426C1216.65 707.715 1439.44 626.25 1648.13 635.376C1648.69 635.401 1713.64 633.983 1790.79 647.981C1974.55 681.302 2119.23 711.83 2238.34 701.893C2422.13 686.559 2509.06 618.49 2660.99 580.277C2713.45 567.082 2783.61 552.743 2858.44 542.119C2931.76 531.708 3009.83 525.064 3059.45 507.085C3102.38 491.533 3162.98 451.495 3219.6 426.854C3224.52 424.71 3246.52 412.726 3256.51 410.154C3280.47 403.99 3309.8 402.853 3317.95 405.072C3330.52 408.501 3330.52 681.84 3317.95 1225.09L-22.1211 1225.45V416.382Z" fill="white"/>
</g>
<path fill-rule="evenodd" clip-rule="evenodd" d="M1158.12 618.106C1151.66 626.783 1128.22 654 1101.5 654C1099.78 654.002 1098.07 653.883 1096.37 653.645C1086.99 652.161 1078.11 648.389 1070.51 642.657C1060.28 635.096 1051.33 625.925 1044 615.5C1051.33 605.075 1060.28 595.904 1070.51 588.343C1078.11 582.611 1086.99 578.839 1096.37 577.355C1098.07 577.117 1099.78 576.998 1101.5 577C1128.22 577 1151.66 604.217 1158.12 612.894C1159.29 614.429 1159.29 616.571 1158.12 618.106Z" fill="#FFF2BD"/>
<path fill-rule="evenodd" clip-rule="evenodd" d="M1101.89 630C1100.51 630 1099.29 629.149 1098.91 627.912C1096.36 619.808 1096.36 611.193 1098.91 603.089C1099.39 601.551 1101.11 600.668 1102.76 601.117C1104.41 601.565 1105.36 603.175 1104.87 604.713C1102.66 611.756 1102.66 619.244 1104.87 626.288C1105.15 627.164 1104.96 628.11 1104.38 628.84C1103.79 629.57 1102.87 630 1101.89 630Z" fill="#9CAFC2"/>
<path fill-rule="evenodd" clip-rule="evenodd" d="M1089.89 630C1088.51 630 1087.3 629.149 1086.91 627.912C1084.36 619.808 1084.36 611.192 1086.91 603.088C1087.22 602.093 1088.08 601.329 1089.15 601.083C1090.23 600.837 1091.37 601.147 1092.14 601.895C1092.91 602.644 1093.19 603.717 1092.88 604.712C1090.66 611.756 1090.66 619.244 1092.88 626.288C1093.15 627.164 1092.97 628.11 1092.38 628.84C1091.79 629.57 1090.87 630 1089.89 630Z" fill="#9CAFC2"/>
<path fill-rule="evenodd" clip-rule="evenodd" d="M1026.85 615.502C1021.51 623.801 1018.46 633.42 1018.01 643.347C1017.9 644.992 1018.71 646.559 1020.1 647.396C1021.48 648.233 1023.21 648.198 1024.57 647.303C1032.19 642.138 1044 631.537 1044 615.502C1044 599.467 1032.19 588.866 1024.57 583.701C1023.22 582.803 1021.49 582.765 1020.1 583.603C1018.71 584.441 1017.9 586.01 1018.01 587.657C1018.46 597.584 1021.51 607.203 1026.85 615.502Z" fill="#9CAFC2"/>
<path fill-rule="evenodd" clip-rule="evenodd" d="M1096 578.138C1086.83 579.605 1078.15 583.334 1070.72 589C1069.46 583.638 1067.64 578.427 1065.3 573.454C1064.83 572.466 1064.91 571.3 1065.51 570.387C1066.11 569.474 1067.14 568.948 1068.21 569.004C1083.46 569.882 1091.71 574.391 1096 578.138Z" fill="#9CAFC2"/>
<path fill-rule="evenodd" clip-rule="evenodd" d="M1096 653.405C1091.71 657.34 1083.46 662.074 1068.21 662.996C1067.14 663.054 1066.11 662.502 1065.51 661.543C1064.91 660.584 1064.83 659.361 1065.3 658.323C1067.64 653.102 1069.46 647.63 1070.72 642C1078.15 647.949 1086.83 651.865 1096 653.405Z" fill="#9CAFC2"/>
<path fill-rule="evenodd" clip-rule="evenodd" d="M1158.12 618.586C1153.45 624.816 1139.9 640.743 1122.69 649L1122.66 648.941C1117.48 638.745 1114.85 627.44 1115 616C1114.85 604.56 1117.48 593.255 1122.66 583.059L1122.69 583C1139.9 591.257 1153.45 607.184 1158.12 613.414C1159.29 614.938 1159.29 617.062 1158.12 618.586Z" fill="#F3D55B"/>
<path d="M1132.5 619C1135.54 619 1138 616.314 1138 613C1138 609.686 1135.54 607 1132.5 607C1129.46 607 1127 609.686 1127 613C1127 616.314 1129.46 619 1132.5 619Z" fill="#9CAFC2"/>
</svg>
