<svg width="199" height="29" viewBox="0 0 199 29" fill="none" xmlns="http://www.w3.org/2000/svg">
<mask id="path-1-outside-1_1563_10400" maskUnits="userSpaceOnUse" x="0.270767" y="0.119995" width="52" height="28" fill="black">
<rect fill="white" x="0.270767" y="0.119995" width="52" height="28"/>
<path d="M9.04 17C8.98667 15.2667 8.84 13.68 8.6 12.24C8.38667 10.9867 8.10667 10.0133 7.76 9.32C7.44 8.68 7.12 8.34666 6.8 8.32C5.94666 8.26666 5.22667 8.89333 4.64 10.2C4.08 11.4533 3.65333 13.2133 3.36 15.48C3.06666 18.04 2.96 20.9867 3.04 24.32V24.68C3.06666 24.8133 3.08 24.96 3.08 25.12V25.72C3 26.0133 2.8 26.1867 2.48 26.24C2.08 26.2933 1.81333 26.1467 1.68 25.8L1.64 25.64V25.4C1.64 25.0533 1.62666 24.7067 1.6 24.36C1.57333 23.5867 1.56 23.0533 1.56 22.76V21.04C1.56 19.8933 1.54666 19.28 1.52 19.2C1.28 15.92 1.21333 11.96 1.32 7.32C1.32 7.10666 1.38666 6.93333 1.52 6.8C1.68 6.66666 1.85333 6.6 2.04 6.6C2.25333 6.6 2.42666 6.68 2.56 6.84C2.69333 6.97333 2.76 7.13333 2.76 7.32C2.73333 8.78666 2.72 10.12 2.72 11.32C2.90666 10.68 3.10666 10.1067 3.32 9.6C4.2 7.70666 5.38666 6.8 6.88 6.88C7.78667 6.93333 8.52 7.53333 9.08 8.68C9.42667 9.42666 9.72 10.4133 9.96 11.64C10.8133 9.10666 12.2533 7.48 14.28 6.76C14.6 6.65333 15.0133 6.57333 15.52 6.52C16.16 6.44 16.64 6.46666 16.96 6.6C18.1333 7.10666 19.0133 8.28 19.6 10.12C20.0267 11.5333 20.28 13.36 20.36 15.6C20.44 17.2 20.4267 19.1333 20.32 21.4C20.2933 21.9067 20.24 22.6667 20.16 23.68C20.1067 24.6667 20.08 25.3467 20.08 25.72C20.08 25.9067 20 26.0667 19.84 26.2C19.7067 26.3333 19.5333 26.4 19.32 26.4C19.1333 26.4 18.9733 26.32 18.84 26.16C18.7067 26.0267 18.64 25.8533 18.64 25.64C18.64 25.2933 18.6667 24.6133 18.72 23.6C18.8 22.5867 18.8533 21.8267 18.88 21.32C18.9867 19.1067 19 17.2267 18.92 15.68C18.84 13.5733 18.6 11.8667 18.2 10.56C17.7733 9.14666 17.1733 8.28 16.4 7.96C16.32 7.90666 16.08 7.90666 15.68 7.96C15.28 7.98666 14.9733 8.04 14.76 8.12C12.6267 8.89333 11.28 11.0533 10.72 14.6C10.6133 15.32 10.5333 16.12 10.48 17V17.92C10.48 18.56 10.44 19.88 10.36 21.88V22C10.36 22.56 10.3467 23.0267 10.32 23.4C10.32 23.5333 10.32 23.6267 10.32 23.68L10.28 23.8V23.88C10.28 23.9333 10.2667 23.9733 10.24 24C10.1867 24.1067 10.12 24.2 10.04 24.28C9.88 24.4133 9.70667 24.4667 9.52 24.44C9.36 24.44 9.21333 24.3733 9.08 24.24C9 24.16 8.93333 24.0667 8.88 23.96V23.84C8.88 23.8133 8.86667 23.8 8.84 23.8C8.84 23.7733 8.84 23.7467 8.84 23.72V23.68C8.84 23.6533 8.85333 23.6 8.88 23.52C8.88 23.3333 8.89333 22.8133 8.92 21.96C8.94666 19.4267 8.98667 17.7733 9.04 17Z"/>
<path d="M26.3719 7.2C26.1585 15.0933 26.3585 21.3467 26.9719 25.96C26.9985 26.1467 26.9452 26.32 26.8119 26.48C26.7052 26.64 26.5452 26.7333 26.3319 26.76C26.1452 26.7867 25.9719 26.7333 25.8119 26.6C25.6519 26.4933 25.5585 26.3333 25.5319 26.12C24.9185 21.3467 24.7185 15.04 24.9319 7.2C24.9319 6.98666 24.9985 6.81333 25.1319 6.68C25.2919 6.54666 25.4652 6.48 25.6519 6.48C25.8652 6.48 26.0385 6.56 26.1719 6.72C26.3052 6.85333 26.3719 7.01333 26.3719 7.2ZM25.6519 1.35999C25.8119 1.49333 25.8919 1.65333 25.8919 1.84C25.8919 2.02666 25.8119 2.2 25.6519 2.36C25.5185 2.49333 25.3585 2.56 25.1719 2.56C24.9852 2.56 24.8119 2.49333 24.6519 2.36C24.5185 2.2 24.4519 2.02666 24.4519 1.84C24.4519 1.65333 24.5185 1.49333 24.6519 1.35999C24.8119 1.19999 24.9852 1.12 25.1719 1.12C25.3585 1.12 25.5185 1.19999 25.6519 1.35999Z"/>
<path d="M32.6334 15.2C33.3534 13.0667 34.2068 11.2133 35.1934 9.64C36.1001 8.2 37.0334 7.21333 37.9934 6.68C39.2734 5.96 40.5001 6.07999 41.6734 7.04C42.5268 7.70666 43.1801 8.93333 43.6334 10.72C43.9801 12.08 44.2201 13.8267 44.3534 15.96C44.4068 17.0267 44.4334 18.1733 44.4334 19.4C44.4601 20.6267 44.4601 21.8933 44.4334 23.2C44.4068 24.48 44.3934 25.2667 44.3934 25.56C44.3934 25.7467 44.3134 25.9067 44.1534 26.04C44.0201 26.2 43.8601 26.28 43.6734 26.28C43.4868 26.28 43.3134 26.2 43.1534 26.04C43.0201 25.9067 42.9534 25.7467 42.9534 25.56C42.9534 25.2667 42.9668 24.48 42.9934 23.2C43.0201 21.92 43.0201 20.68 42.9934 19.48C42.9934 18.28 42.9668 17.1333 42.9134 16.04C42.7801 14.0133 42.5534 12.36 42.2334 11.08C41.8601 9.61333 41.3801 8.64 40.7934 8.16C40.1001 7.62666 39.3934 7.56 38.6734 7.96C37.9534 8.36 37.2068 9.18666 36.4334 10.44C35.7934 11.4533 35.2201 12.5867 34.7134 13.84C34.2068 15.0667 33.8468 16.0667 33.6334 16.84C33.5001 17.3733 33.3801 17.92 33.2734 18.48C33.1668 19.04 33.0868 19.6667 33.0334 20.36C32.9801 21.0267 32.9268 21.56 32.8734 21.96C32.8468 22.36 32.8068 23 32.7534 23.88C32.7268 24.7333 32.7001 25.3067 32.6734 25.6C32.6734 25.7067 32.6601 25.7867 32.6334 25.84V25.92C32.6068 25.9733 32.5934 26.0267 32.5934 26.08C32.4601 26.32 32.2734 26.4533 32.0334 26.48C31.6868 26.5067 31.4468 26.3733 31.3134 26.08L31.2334 25.92C31.2334 25.8933 31.2201 25.8533 31.1934 25.8V19.92C31.1934 14.1867 31.1134 10.3067 30.9534 8.28C30.9268 8.09333 30.9801 7.93333 31.1134 7.8C31.2468 7.64 31.4068 7.54666 31.5934 7.52C31.8068 7.49333 31.9801 7.54666 32.1134 7.68C32.2734 7.81333 32.3668 7.98666 32.3934 8.2C32.5534 10.0933 32.6334 12.4267 32.6334 15.2Z"/>
<path d="M50.5172 7.2C50.3039 15.0933 50.5039 21.3467 51.1172 25.96C51.1439 26.1467 51.0905 26.32 50.9572 26.48C50.8505 26.64 50.6905 26.7333 50.4772 26.76C50.2905 26.7867 50.1172 26.7333 49.9572 26.6C49.7972 26.4933 49.7039 26.3333 49.6772 26.12C49.0639 21.3467 48.8639 15.04 49.0772 7.2C49.0772 6.98666 49.1439 6.81333 49.2772 6.68C49.4372 6.54666 49.6105 6.48 49.7972 6.48C50.0105 6.48 50.1839 6.56 50.3172 6.72C50.4505 6.85333 50.5172 7.01333 50.5172 7.2ZM49.7972 1.35999C49.9572 1.49333 50.0372 1.65333 50.0372 1.84C50.0372 2.02666 49.9572 2.2 49.7972 2.36C49.6639 2.49333 49.5039 2.56 49.3172 2.56C49.1305 2.56 48.9572 2.49333 48.7972 2.36C48.6639 2.2 48.5972 2.02666 48.5972 1.84C48.5972 1.65333 48.6639 1.49333 48.7972 1.35999C48.9572 1.19999 49.1305 1.12 49.3172 1.12C49.5039 1.12 49.6639 1.19999 49.7972 1.35999Z"/>
</mask>
<path d="M9.04 17C8.98667 15.2667 8.84 13.68 8.6 12.24C8.38667 10.9867 8.10667 10.0133 7.76 9.32C7.44 8.68 7.12 8.34666 6.8 8.32C5.94666 8.26666 5.22667 8.89333 4.64 10.2C4.08 11.4533 3.65333 13.2133 3.36 15.48C3.06666 18.04 2.96 20.9867 3.04 24.32V24.68C3.06666 24.8133 3.08 24.96 3.08 25.12V25.72C3 26.0133 2.8 26.1867 2.48 26.24C2.08 26.2933 1.81333 26.1467 1.68 25.8L1.64 25.64V25.4C1.64 25.0533 1.62666 24.7067 1.6 24.36C1.57333 23.5867 1.56 23.0533 1.56 22.76V21.04C1.56 19.8933 1.54666 19.28 1.52 19.2C1.28 15.92 1.21333 11.96 1.32 7.32C1.32 7.10666 1.38666 6.93333 1.52 6.8C1.68 6.66666 1.85333 6.6 2.04 6.6C2.25333 6.6 2.42666 6.68 2.56 6.84C2.69333 6.97333 2.76 7.13333 2.76 7.32C2.73333 8.78666 2.72 10.12 2.72 11.32C2.90666 10.68 3.10666 10.1067 3.32 9.6C4.2 7.70666 5.38666 6.8 6.88 6.88C7.78667 6.93333 8.52 7.53333 9.08 8.68C9.42667 9.42666 9.72 10.4133 9.96 11.64C10.8133 9.10666 12.2533 7.48 14.28 6.76C14.6 6.65333 15.0133 6.57333 15.52 6.52C16.16 6.44 16.64 6.46666 16.96 6.6C18.1333 7.10666 19.0133 8.28 19.6 10.12C20.0267 11.5333 20.28 13.36 20.36 15.6C20.44 17.2 20.4267 19.1333 20.32 21.4C20.2933 21.9067 20.24 22.6667 20.16 23.68C20.1067 24.6667 20.08 25.3467 20.08 25.72C20.08 25.9067 20 26.0667 19.84 26.2C19.7067 26.3333 19.5333 26.4 19.32 26.4C19.1333 26.4 18.9733 26.32 18.84 26.16C18.7067 26.0267 18.64 25.8533 18.64 25.64C18.64 25.2933 18.6667 24.6133 18.72 23.6C18.8 22.5867 18.8533 21.8267 18.88 21.32C18.9867 19.1067 19 17.2267 18.92 15.68C18.84 13.5733 18.6 11.8667 18.2 10.56C17.7733 9.14666 17.1733 8.28 16.4 7.96C16.32 7.90666 16.08 7.90666 15.68 7.96C15.28 7.98666 14.9733 8.04 14.76 8.12C12.6267 8.89333 11.28 11.0533 10.72 14.6C10.6133 15.32 10.5333 16.12 10.48 17V17.92C10.48 18.56 10.44 19.88 10.36 21.88V22C10.36 22.56 10.3467 23.0267 10.32 23.4C10.32 23.5333 10.32 23.6267 10.32 23.68L10.28 23.8V23.88C10.28 23.9333 10.2667 23.9733 10.24 24C10.1867 24.1067 10.12 24.2 10.04 24.28C9.88 24.4133 9.70667 24.4667 9.52 24.44C9.36 24.44 9.21333 24.3733 9.08 24.24C9 24.16 8.93333 24.0667 8.88 23.96V23.84C8.88 23.8133 8.86667 23.8 8.84 23.8C8.84 23.7733 8.84 23.7467 8.84 23.72V23.68C8.84 23.6533 8.85333 23.6 8.88 23.52C8.88 23.3333 8.89333 22.8133 8.92 21.96C8.94666 19.4267 8.98667 17.7733 9.04 17Z" fill="white"/>
<path d="M26.3719 7.2C26.1585 15.0933 26.3585 21.3467 26.9719 25.96C26.9985 26.1467 26.9452 26.32 26.8119 26.48C26.7052 26.64 26.5452 26.7333 26.3319 26.76C26.1452 26.7867 25.9719 26.7333 25.8119 26.6C25.6519 26.4933 25.5585 26.3333 25.5319 26.12C24.9185 21.3467 24.7185 15.04 24.9319 7.2C24.9319 6.98666 24.9985 6.81333 25.1319 6.68C25.2919 6.54666 25.4652 6.48 25.6519 6.48C25.8652 6.48 26.0385 6.56 26.1719 6.72C26.3052 6.85333 26.3719 7.01333 26.3719 7.2ZM25.6519 1.35999C25.8119 1.49333 25.8919 1.65333 25.8919 1.84C25.8919 2.02666 25.8119 2.2 25.6519 2.36C25.5185 2.49333 25.3585 2.56 25.1719 2.56C24.9852 2.56 24.8119 2.49333 24.6519 2.36C24.5185 2.2 24.4519 2.02666 24.4519 1.84C24.4519 1.65333 24.5185 1.49333 24.6519 1.35999C24.8119 1.19999 24.9852 1.12 25.1719 1.12C25.3585 1.12 25.5185 1.19999 25.6519 1.35999Z" fill="white"/>
<path d="M32.6334 15.2C33.3534 13.0667 34.2068 11.2133 35.1934 9.64C36.1001 8.2 37.0334 7.21333 37.9934 6.68C39.2734 5.96 40.5001 6.07999 41.6734 7.04C42.5268 7.70666 43.1801 8.93333 43.6334 10.72C43.9801 12.08 44.2201 13.8267 44.3534 15.96C44.4068 17.0267 44.4334 18.1733 44.4334 19.4C44.4601 20.6267 44.4601 21.8933 44.4334 23.2C44.4068 24.48 44.3934 25.2667 44.3934 25.56C44.3934 25.7467 44.3134 25.9067 44.1534 26.04C44.0201 26.2 43.8601 26.28 43.6734 26.28C43.4868 26.28 43.3134 26.2 43.1534 26.04C43.0201 25.9067 42.9534 25.7467 42.9534 25.56C42.9534 25.2667 42.9668 24.48 42.9934 23.2C43.0201 21.92 43.0201 20.68 42.9934 19.48C42.9934 18.28 42.9668 17.1333 42.9134 16.04C42.7801 14.0133 42.5534 12.36 42.2334 11.08C41.8601 9.61333 41.3801 8.64 40.7934 8.16C40.1001 7.62666 39.3934 7.56 38.6734 7.96C37.9534 8.36 37.2068 9.18666 36.4334 10.44C35.7934 11.4533 35.2201 12.5867 34.7134 13.84C34.2068 15.0667 33.8468 16.0667 33.6334 16.84C33.5001 17.3733 33.3801 17.92 33.2734 18.48C33.1668 19.04 33.0868 19.6667 33.0334 20.36C32.9801 21.0267 32.9268 21.56 32.8734 21.96C32.8468 22.36 32.8068 23 32.7534 23.88C32.7268 24.7333 32.7001 25.3067 32.6734 25.6C32.6734 25.7067 32.6601 25.7867 32.6334 25.84V25.92C32.6068 25.9733 32.5934 26.0267 32.5934 26.08C32.4601 26.32 32.2734 26.4533 32.0334 26.48C31.6868 26.5067 31.4468 26.3733 31.3134 26.08L31.2334 25.92C31.2334 25.8933 31.2201 25.8533 31.1934 25.8V19.92C31.1934 14.1867 31.1134 10.3067 30.9534 8.28C30.9268 8.09333 30.9801 7.93333 31.1134 7.8C31.2468 7.64 31.4068 7.54666 31.5934 7.52C31.8068 7.49333 31.9801 7.54666 32.1134 7.68C32.2734 7.81333 32.3668 7.98666 32.3934 8.2C32.5534 10.0933 32.6334 12.4267 32.6334 15.2Z" fill="white"/>
<path d="M50.5172 7.2C50.3039 15.0933 50.5039 21.3467 51.1172 25.96C51.1439 26.1467 51.0905 26.32 50.9572 26.48C50.8505 26.64 50.6905 26.7333 50.4772 26.76C50.2905 26.7867 50.1172 26.7333 49.9572 26.6C49.7972 26.4933 49.7039 26.3333 49.6772 26.12C49.0639 21.3467 48.8639 15.04 49.0772 7.2C49.0772 6.98666 49.1439 6.81333 49.2772 6.68C49.4372 6.54666 49.6105 6.48 49.7972 6.48C50.0105 6.48 50.1839 6.56 50.3172 6.72C50.4505 6.85333 50.5172 7.01333 50.5172 7.2ZM49.7972 1.35999C49.9572 1.49333 50.0372 1.65333 50.0372 1.84C50.0372 2.02666 49.9572 2.2 49.7972 2.36C49.6639 2.49333 49.5039 2.56 49.3172 2.56C49.1305 2.56 48.9572 2.49333 48.7972 2.36C48.6639 2.2 48.5972 2.02666 48.5972 1.84C48.5972 1.65333 48.6639 1.49333 48.7972 1.35999C48.9572 1.19999 49.1305 1.12 49.3172 1.12C49.5039 1.12 49.6639 1.19999 49.7972 1.35999Z" fill="white"/>
<path d="M9.04 17C8.98667 15.2667 8.84 13.68 8.6 12.24C8.38667 10.9867 8.10667 10.0133 7.76 9.32C7.44 8.68 7.12 8.34666 6.8 8.32C5.94666 8.26666 5.22667 8.89333 4.64 10.2C4.08 11.4533 3.65333 13.2133 3.36 15.48C3.06666 18.04 2.96 20.9867 3.04 24.32V24.68C3.06666 24.8133 3.08 24.96 3.08 25.12V25.72C3 26.0133 2.8 26.1867 2.48 26.24C2.08 26.2933 1.81333 26.1467 1.68 25.8L1.64 25.64V25.4C1.64 25.0533 1.62666 24.7067 1.6 24.36C1.57333 23.5867 1.56 23.0533 1.56 22.76V21.04C1.56 19.8933 1.54666 19.28 1.52 19.2C1.28 15.92 1.21333 11.96 1.32 7.32C1.32 7.10666 1.38666 6.93333 1.52 6.8C1.68 6.66666 1.85333 6.6 2.04 6.6C2.25333 6.6 2.42666 6.68 2.56 6.84C2.69333 6.97333 2.76 7.13333 2.76 7.32C2.73333 8.78666 2.72 10.12 2.72 11.32C2.90666 10.68 3.10666 10.1067 3.32 9.6C4.2 7.70666 5.38666 6.8 6.88 6.88C7.78667 6.93333 8.52 7.53333 9.08 8.68C9.42667 9.42666 9.72 10.4133 9.96 11.64C10.8133 9.10666 12.2533 7.48 14.28 6.76C14.6 6.65333 15.0133 6.57333 15.52 6.52C16.16 6.44 16.64 6.46666 16.96 6.6C18.1333 7.10666 19.0133 8.28 19.6 10.12C20.0267 11.5333 20.28 13.36 20.36 15.6C20.44 17.2 20.4267 19.1333 20.32 21.4C20.2933 21.9067 20.24 22.6667 20.16 23.68C20.1067 24.6667 20.08 25.3467 20.08 25.72C20.08 25.9067 20 26.0667 19.84 26.2C19.7067 26.3333 19.5333 26.4 19.32 26.4C19.1333 26.4 18.9733 26.32 18.84 26.16C18.7067 26.0267 18.64 25.8533 18.64 25.64C18.64 25.2933 18.6667 24.6133 18.72 23.6C18.8 22.5867 18.8533 21.8267 18.88 21.32C18.9867 19.1067 19 17.2267 18.92 15.68C18.84 13.5733 18.6 11.8667 18.2 10.56C17.7733 9.14666 17.1733 8.28 16.4 7.96C16.32 7.90666 16.08 7.90666 15.68 7.96C15.28 7.98666 14.9733 8.04 14.76 8.12C12.6267 8.89333 11.28 11.0533 10.72 14.6C10.6133 15.32 10.5333 16.12 10.48 17V17.92C10.48 18.56 10.44 19.88 10.36 21.88V22C10.36 22.56 10.3467 23.0267 10.32 23.4C10.32 23.5333 10.32 23.6267 10.32 23.68L10.28 23.8V23.88C10.28 23.9333 10.2667 23.9733 10.24 24C10.1867 24.1067 10.12 24.2 10.04 24.28C9.88 24.4133 9.70667 24.4667 9.52 24.44C9.36 24.44 9.21333 24.3733 9.08 24.24C9 24.16 8.93333 24.0667 8.88 23.96V23.84C8.88 23.8133 8.86667 23.8 8.84 23.8C8.84 23.7733 8.84 23.7467 8.84 23.72V23.68C8.84 23.6533 8.85333 23.6 8.88 23.52C8.88 23.3333 8.89333 22.8133 8.92 21.96C8.94666 19.4267 8.98667 17.7733 9.04 17Z" stroke="white" stroke-width="2" mask="url(#path-1-outside-1_1563_10400)"/>
<path d="M26.3719 7.2C26.1585 15.0933 26.3585 21.3467 26.9719 25.96C26.9985 26.1467 26.9452 26.32 26.8119 26.48C26.7052 26.64 26.5452 26.7333 26.3319 26.76C26.1452 26.7867 25.9719 26.7333 25.8119 26.6C25.6519 26.4933 25.5585 26.3333 25.5319 26.12C24.9185 21.3467 24.7185 15.04 24.9319 7.2C24.9319 6.98666 24.9985 6.81333 25.1319 6.68C25.2919 6.54666 25.4652 6.48 25.6519 6.48C25.8652 6.48 26.0385 6.56 26.1719 6.72C26.3052 6.85333 26.3719 7.01333 26.3719 7.2ZM25.6519 1.35999C25.8119 1.49333 25.8919 1.65333 25.8919 1.84C25.8919 2.02666 25.8119 2.2 25.6519 2.36C25.5185 2.49333 25.3585 2.56 25.1719 2.56C24.9852 2.56 24.8119 2.49333 24.6519 2.36C24.5185 2.2 24.4519 2.02666 24.4519 1.84C24.4519 1.65333 24.5185 1.49333 24.6519 1.35999C24.8119 1.19999 24.9852 1.12 25.1719 1.12C25.3585 1.12 25.5185 1.19999 25.6519 1.35999Z" stroke="white" stroke-width="2" mask="url(#path-1-outside-1_1563_10400)"/>
<path d="M32.6334 15.2C33.3534 13.0667 34.2068 11.2133 35.1934 9.64C36.1001 8.2 37.0334 7.21333 37.9934 6.68C39.2734 5.96 40.5001 6.07999 41.6734 7.04C42.5268 7.70666 43.1801 8.93333 43.6334 10.72C43.9801 12.08 44.2201 13.8267 44.3534 15.96C44.4068 17.0267 44.4334 18.1733 44.4334 19.4C44.4601 20.6267 44.4601 21.8933 44.4334 23.2C44.4068 24.48 44.3934 25.2667 44.3934 25.56C44.3934 25.7467 44.3134 25.9067 44.1534 26.04C44.0201 26.2 43.8601 26.28 43.6734 26.28C43.4868 26.28 43.3134 26.2 43.1534 26.04C43.0201 25.9067 42.9534 25.7467 42.9534 25.56C42.9534 25.2667 42.9668 24.48 42.9934 23.2C43.0201 21.92 43.0201 20.68 42.9934 19.48C42.9934 18.28 42.9668 17.1333 42.9134 16.04C42.7801 14.0133 42.5534 12.36 42.2334 11.08C41.8601 9.61333 41.3801 8.64 40.7934 8.16C40.1001 7.62666 39.3934 7.56 38.6734 7.96C37.9534 8.36 37.2068 9.18666 36.4334 10.44C35.7934 11.4533 35.2201 12.5867 34.7134 13.84C34.2068 15.0667 33.8468 16.0667 33.6334 16.84C33.5001 17.3733 33.3801 17.92 33.2734 18.48C33.1668 19.04 33.0868 19.6667 33.0334 20.36C32.9801 21.0267 32.9268 21.56 32.8734 21.96C32.8468 22.36 32.8068 23 32.7534 23.88C32.7268 24.7333 32.7001 25.3067 32.6734 25.6C32.6734 25.7067 32.6601 25.7867 32.6334 25.84V25.92C32.6068 25.9733 32.5934 26.0267 32.5934 26.08C32.4601 26.32 32.2734 26.4533 32.0334 26.48C31.6868 26.5067 31.4468 26.3733 31.3134 26.08L31.2334 25.92C31.2334 25.8933 31.2201 25.8533 31.1934 25.8V19.92C31.1934 14.1867 31.1134 10.3067 30.9534 8.28C30.9268 8.09333 30.9801 7.93333 31.1134 7.8C31.2468 7.64 31.4068 7.54666 31.5934 7.52C31.8068 7.49333 31.9801 7.54666 32.1134 7.68C32.2734 7.81333 32.3668 7.98666 32.3934 8.2C32.5534 10.0933 32.6334 12.4267 32.6334 15.2Z" stroke="white" stroke-width="2" mask="url(#path-1-outside-1_1563_10400)"/>
<path d="M50.5172 7.2C50.3039 15.0933 50.5039 21.3467 51.1172 25.96C51.1439 26.1467 51.0905 26.32 50.9572 26.48C50.8505 26.64 50.6905 26.7333 50.4772 26.76C50.2905 26.7867 50.1172 26.7333 49.9572 26.6C49.7972 26.4933 49.7039 26.3333 49.6772 26.12C49.0639 21.3467 48.8639 15.04 49.0772 7.2C49.0772 6.98666 49.1439 6.81333 49.2772 6.68C49.4372 6.54666 49.6105 6.48 49.7972 6.48C50.0105 6.48 50.1839 6.56 50.3172 6.72C50.4505 6.85333 50.5172 7.01333 50.5172 7.2ZM49.7972 1.35999C49.9572 1.49333 50.0372 1.65333 50.0372 1.84C50.0372 2.02666 49.9572 2.2 49.7972 2.36C49.6639 2.49333 49.5039 2.56 49.3172 2.56C49.1305 2.56 48.9572 2.49333 48.7972 2.36C48.6639 2.2 48.5972 2.02666 48.5972 1.84C48.5972 1.65333 48.6639 1.49333 48.7972 1.35999C48.9572 1.19999 49.1305 1.12 49.3172 1.12C49.5039 1.12 49.6639 1.19999 49.7972 1.35999Z" stroke="white" stroke-width="2" mask="url(#path-1-outside-1_1563_10400)"/>
<path d="M91.92 10.6C91.7067 9.58666 91.1333 8.84 90.2 8.36C89.2933 7.85333 88.2533 7.65333 87.08 7.76C85.9067 7.89333 84.9467 8.28 84.2 8.92C83.48 9.56 83.16 10.36 83.24 11.32C83.32 12.1733 83.8133 13.0933 84.72 14.08C85.2 14.5333 86.28 15.44 87.96 16.8C88.6533 17.36 89.2267 17.84 89.68 18.24C90.1067 18.64 90.56 19.16 91.04 19.8C91.5467 20.4133 91.88 21.0667 92.04 21.76C92.2267 22.4267 92.2533 23.1333 92.12 23.88C91.9067 24.9733 91.3333 25.7467 90.4 26.2C89.6267 26.5733 88.72 26.6667 87.68 26.48C86.6933 26.2933 85.7733 25.9067 84.92 25.32C84.0667 24.7333 83.4533 24.0133 83.08 23.16C83.0267 22.9733 83.0267 22.7867 83.08 22.6C83.16 22.4133 83.2933 22.2933 83.48 22.24C83.6667 22.16 83.8533 22.16 84.04 22.24C84.2267 22.2933 84.36 22.4133 84.44 22.6C84.68 23.1867 85.12 23.7067 85.76 24.16C86.4267 24.6133 87.1467 24.9067 87.92 25.04C88.6667 25.1733 89.28 25.12 89.76 24.88C90.2667 24.64 90.5733 24.2267 90.68 23.64C90.8933 22.6267 90.68 21.7067 90.04 20.88C89.4267 20.0267 88.4267 19.04 87.04 17.92C85.2533 16.48 84.1467 15.5333 83.72 15.08C82.5467 13.8533 81.9067 12.6267 81.8 11.4C81.6933 9.96 82.16 8.8 83.2 7.92C84.24 7.01333 85.48 6.49333 86.92 6.36C88.3867 6.2 89.7467 6.45333 91 7.12C92.2533 7.78666 93.04 8.84 93.36 10.28C93.3867 10.4667 93.3467 10.6533 93.24 10.84C93.1333 11 92.9867 11.1067 92.8 11.16C92.6133 11.1867 92.4267 11.1467 92.24 11.04C92.08 10.9333 91.9733 10.7867 91.92 10.6Z" fill="white"/>
<path d="M97.7494 7.04C98.0694 8.24 98.3494 9.49333 98.5894 10.8C98.8294 12.1067 99.0694 13.72 99.3094 15.64C99.5761 17.5333 99.7627 18.7733 99.8694 19.36C99.9494 19.8933 100.069 20.8533 100.229 22.24C100.656 20.56 101.069 19.08 101.469 17.8C101.976 16.2 102.456 14.96 102.909 14.08C103.203 13.5467 103.483 13.1333 103.749 12.84C104.203 12.4133 104.683 12.28 105.189 12.44C105.536 12.5467 105.869 12.84 106.189 13.32C106.403 13.64 106.643 14.0933 106.909 14.68C107.309 15.56 107.749 16.7867 108.229 18.36C108.469 19.16 108.749 20.1733 109.069 21.4C109.069 20.9467 109.083 20.4933 109.109 20.04C109.323 16.36 110.149 12 111.589 6.96C111.643 6.77333 111.749 6.64 111.909 6.56C112.096 6.45333 112.283 6.42666 112.469 6.48C112.656 6.53333 112.789 6.65333 112.869 6.84C112.976 7 113.003 7.17333 112.949 7.36C111.536 12.32 110.736 16.5733 110.549 20.12C110.496 20.8133 110.496 21.5867 110.549 22.44C110.629 23.72 110.669 24.56 110.669 24.96V25.08C110.696 25.2133 110.709 25.32 110.709 25.4C110.736 25.5867 110.723 25.7467 110.669 25.88C110.563 26.2 110.349 26.4 110.029 26.48C109.549 26.56 109.176 26.36 108.909 25.88C108.883 25.8267 108.816 25.64 108.709 25.32C108.576 24.9733 108.323 24.0933 107.949 22.68L106.829 18.8C106.376 17.2533 105.963 16.0667 105.589 15.24C105.376 14.76 105.176 14.3867 104.989 14.12C104.909 14.0133 104.843 13.9333 104.789 13.88H104.749C104.589 14.04 104.403 14.3333 104.189 14.76C103.763 15.5333 103.309 16.6933 102.829 18.24C102.296 19.8667 101.723 22.0267 101.109 24.72C101.083 24.7467 101.069 24.8133 101.069 24.92C101.043 25.1067 101.029 25.24 101.029 25.32C100.949 25.88 100.683 26.2267 100.229 26.36C99.8827 26.4667 99.6027 26.36 99.3894 26.04C99.3361 25.96 99.2827 25.8533 99.2294 25.72C99.2027 25.5867 99.1627 25.4 99.1094 25.16C99.0561 24.8133 98.9894 24.2533 98.9094 23.48C98.6427 21.2667 98.4827 19.9733 98.4294 19.6C98.3227 18.9333 98.1361 17.6667 97.8694 15.8C97.6294 13.9333 97.3894 12.3733 97.1494 11.12C96.9361 9.84 96.6827 8.61333 96.3894 7.44C96.3361 7.22666 96.3627 7.04 96.4694 6.88C96.5494 6.72 96.6827 6.61333 96.8694 6.56C97.0827 6.50666 97.2694 6.53333 97.4294 6.64C97.5894 6.72 97.6961 6.85333 97.7494 7.04Z" fill="white"/>
<path d="M119.019 7.2C118.805 15.0933 119.005 21.3467 119.619 25.96C119.645 26.1467 119.592 26.32 119.459 26.48C119.352 26.64 119.192 26.7333 118.979 26.76C118.792 26.7867 118.619 26.7333 118.459 26.6C118.299 26.4933 118.205 26.3333 118.179 26.12C117.565 21.3467 117.365 15.04 117.579 7.2C117.579 6.98666 117.645 6.81333 117.779 6.68C117.939 6.54666 118.112 6.48 118.299 6.48C118.512 6.48 118.685 6.56 118.819 6.72C118.952 6.85333 119.019 7.01333 119.019 7.2ZM118.299 1.35999C118.459 1.49333 118.539 1.65333 118.539 1.84C118.539 2.02666 118.459 2.2 118.299 2.36C118.165 2.49333 118.005 2.56 117.819 2.56C117.632 2.56 117.459 2.49333 117.299 2.36C117.165 2.2 117.099 2.02666 117.099 1.84C117.099 1.65333 117.165 1.49333 117.299 1.35999C117.459 1.19999 117.632 1.12 117.819 1.12C118.005 1.12 118.165 1.19999 118.299 1.35999Z" fill="white"/>
<path d="M132.16 17C132.107 15.2667 131.96 13.68 131.72 12.24C131.507 10.9867 131.227 10.0133 130.88 9.32C130.56 8.68 130.24 8.34666 129.92 8.32C129.067 8.26666 128.347 8.89333 127.76 10.2C127.2 11.4533 126.774 13.2133 126.48 15.48C126.187 18.04 126.08 20.9867 126.16 24.32V24.68C126.187 24.8133 126.2 24.96 126.2 25.12V25.72C126.12 26.0133 125.92 26.1867 125.6 26.24C125.2 26.2933 124.934 26.1467 124.8 25.8L124.76 25.64V25.4C124.76 25.0533 124.747 24.7067 124.72 24.36C124.694 23.5867 124.68 23.0533 124.68 22.76V21.04C124.68 19.8933 124.667 19.28 124.64 19.2C124.4 15.92 124.334 11.96 124.44 7.32C124.44 7.10666 124.507 6.93333 124.64 6.8C124.8 6.66666 124.974 6.6 125.16 6.6C125.374 6.6 125.547 6.68 125.68 6.84C125.814 6.97333 125.88 7.13333 125.88 7.32C125.854 8.78666 125.84 10.12 125.84 11.32C126.027 10.68 126.227 10.1067 126.44 9.6C127.32 7.70666 128.507 6.8 130 6.88C130.907 6.93333 131.64 7.53333 132.2 8.68C132.547 9.42666 132.84 10.4133 133.08 11.64C133.934 9.10666 135.374 7.48 137.4 6.76C137.72 6.65333 138.134 6.57333 138.64 6.52C139.28 6.44 139.76 6.46666 140.08 6.6C141.254 7.10666 142.134 8.28 142.72 10.12C143.147 11.5333 143.4 13.36 143.48 15.6C143.56 17.2 143.547 19.1333 143.44 21.4C143.414 21.9067 143.36 22.6667 143.28 23.68C143.227 24.6667 143.2 25.3467 143.2 25.72C143.2 25.9067 143.12 26.0667 142.96 26.2C142.827 26.3333 142.654 26.4 142.44 26.4C142.254 26.4 142.094 26.32 141.96 26.16C141.827 26.0267 141.76 25.8533 141.76 25.64C141.76 25.2933 141.787 24.6133 141.84 23.6C141.92 22.5867 141.974 21.8267 142 21.32C142.107 19.1067 142.12 17.2267 142.04 15.68C141.96 13.5733 141.72 11.8667 141.32 10.56C140.894 9.14666 140.294 8.28 139.52 7.96C139.44 7.90666 139.2 7.90666 138.8 7.96C138.4 7.98666 138.094 8.04 137.88 8.12C135.747 8.89333 134.4 11.0533 133.84 14.6C133.734 15.32 133.654 16.12 133.6 17V17.92C133.6 18.56 133.56 19.88 133.48 21.88V22C133.48 22.56 133.467 23.0267 133.44 23.4C133.44 23.5333 133.44 23.6267 133.44 23.68L133.4 23.8V23.88C133.4 23.9333 133.387 23.9733 133.36 24C133.307 24.1067 133.24 24.2 133.16 24.28C133 24.4133 132.827 24.4667 132.64 24.44C132.48 24.44 132.334 24.3733 132.2 24.24C132.12 24.16 132.054 24.0667 132 23.96V23.84C132 23.8133 131.987 23.8 131.96 23.8C131.96 23.7733 131.96 23.7467 131.96 23.72V23.68C131.96 23.6533 131.974 23.6 132 23.52C132 23.3333 132.014 22.8133 132.04 21.96C132.067 19.4267 132.107 17.7733 132.16 17Z" fill="white"/>
<path d="M155.932 17C155.879 15.2667 155.732 13.68 155.492 12.24C155.279 10.9867 154.999 10.0133 154.652 9.32C154.332 8.68 154.012 8.34666 153.692 8.32C152.839 8.26666 152.119 8.89333 151.532 10.2C150.972 11.4533 150.546 13.2133 150.252 15.48C149.959 18.04 149.852 20.9867 149.932 24.32V24.68C149.959 24.8133 149.972 24.96 149.972 25.12V25.72C149.892 26.0133 149.692 26.1867 149.372 26.24C148.972 26.2933 148.706 26.1467 148.572 25.8L148.532 25.64V25.4C148.532 25.0533 148.519 24.7067 148.492 24.36C148.466 23.5867 148.452 23.0533 148.452 22.76V21.04C148.452 19.8933 148.439 19.28 148.412 19.2C148.172 15.92 148.106 11.96 148.212 7.32C148.212 7.10666 148.279 6.93333 148.412 6.8C148.572 6.66666 148.746 6.6 148.932 6.6C149.146 6.6 149.319 6.68 149.452 6.84C149.586 6.97333 149.652 7.13333 149.652 7.32C149.626 8.78666 149.612 10.12 149.612 11.32C149.799 10.68 149.999 10.1067 150.212 9.6C151.092 7.70666 152.279 6.8 153.772 6.88C154.679 6.93333 155.412 7.53333 155.972 8.68C156.319 9.42666 156.612 10.4133 156.852 11.64C157.706 9.10666 159.146 7.48 161.172 6.76C161.492 6.65333 161.906 6.57333 162.412 6.52C163.052 6.44 163.532 6.46666 163.852 6.6C165.026 7.10666 165.906 8.28 166.492 10.12C166.919 11.5333 167.172 13.36 167.252 15.6C167.332 17.2 167.319 19.1333 167.212 21.4C167.186 21.9067 167.132 22.6667 167.052 23.68C166.999 24.6667 166.972 25.3467 166.972 25.72C166.972 25.9067 166.892 26.0667 166.732 26.2C166.599 26.3333 166.426 26.4 166.212 26.4C166.026 26.4 165.866 26.32 165.732 26.16C165.599 26.0267 165.532 25.8533 165.532 25.64C165.532 25.2933 165.559 24.6133 165.612 23.6C165.692 22.5867 165.746 21.8267 165.772 21.32C165.879 19.1067 165.892 17.2267 165.812 15.68C165.732 13.5733 165.492 11.8667 165.092 10.56C164.666 9.14666 164.066 8.28 163.292 7.96C163.212 7.90666 162.972 7.90666 162.572 7.96C162.172 7.98666 161.866 8.04 161.652 8.12C159.519 8.89333 158.172 11.0533 157.612 14.6C157.506 15.32 157.426 16.12 157.372 17V17.92C157.372 18.56 157.332 19.88 157.252 21.88V22C157.252 22.56 157.239 23.0267 157.212 23.4C157.212 23.5333 157.212 23.6267 157.212 23.68L157.172 23.8V23.88C157.172 23.9333 157.159 23.9733 157.132 24C157.079 24.1067 157.012 24.2 156.932 24.28C156.772 24.4133 156.599 24.4667 156.412 24.44C156.252 24.44 156.106 24.3733 155.972 24.24C155.892 24.16 155.826 24.0667 155.772 23.96V23.84C155.772 23.8133 155.759 23.8 155.732 23.8C155.732 23.7733 155.732 23.7467 155.732 23.72V23.68C155.732 23.6533 155.746 23.6 155.772 23.52C155.772 23.3333 155.786 22.8133 155.812 21.96C155.839 19.4267 155.879 17.7733 155.932 17Z" fill="white"/>
<path d="M172.824 14.88C174.104 15.3333 175.304 15.2933 176.424 14.76C177.597 14.1733 178.491 13.2 179.104 11.84C179.691 10.56 179.837 9.45333 179.544 8.52C179.277 7.69333 178.637 7.34666 177.624 7.48C176.291 7.64 175.131 8.68 174.144 10.6C173.531 11.8533 173.091 13.28 172.824 14.88ZM171.424 14.56C171.717 12.8267 172.197 11.2933 172.864 9.96C174.064 7.58666 175.597 6.28 177.464 6.04C178.344 5.93333 179.077 6.06666 179.664 6.44C180.277 6.81333 180.704 7.36 180.944 8.08C181.344 9.36 181.171 10.8133 180.424 12.44C179.651 14.12 178.531 15.32 177.064 16.04C175.677 16.7067 174.211 16.8133 172.664 16.36C172.637 16.6 172.624 16.8533 172.624 17.12C172.544 19.6267 172.957 21.6267 173.864 23.12C174.824 24.6667 176.211 25.2933 178.024 25C179.064 24.84 180.037 24.36 180.944 23.56C181.851 22.76 182.624 21.7867 183.264 20.64C183.371 20.48 183.517 20.3733 183.704 20.32C183.891 20.2667 184.064 20.2933 184.224 20.4C184.411 20.48 184.531 20.6133 184.584 20.8C184.637 20.9867 184.624 21.1733 184.544 21.36C183.797 22.6133 182.891 23.72 181.824 24.68C180.757 25.64 179.571 26.2267 178.264 26.44C175.784 26.8133 173.904 25.96 172.624 23.88C171.557 22.1467 171.077 19.88 171.184 17.08C171.184 16.6267 171.211 16.1733 171.264 15.72C170.997 15.48 170.944 15.2 171.104 14.88C171.184 14.72 171.291 14.6133 171.424 14.56Z" fill="white"/>
<path d="M189.033 24.52C189.006 24.4667 188.993 24.4133 188.993 24.36V22.8C188.993 22.2933 188.979 21.4 188.953 20.12C188.953 18.8133 188.953 17.8133 188.953 17.12C188.979 15.7067 189.033 13.5067 189.113 10.52C189.113 10.3333 189.179 10.1733 189.313 10.04C189.473 9.90666 189.646 9.84 189.833 9.84C190.046 9.84 190.219 9.92 190.353 10.08C190.486 10.2133 190.553 10.3867 190.553 10.6C190.499 12.5467 190.459 13.96 190.433 14.84L190.513 14.6C191.953 10.3067 194.299 7.44 197.553 6C197.713 5.92 197.886 5.92 198.073 6C198.259 6.05333 198.393 6.17333 198.473 6.36C198.553 6.52 198.553 6.69333 198.473 6.88C198.419 7.06666 198.299 7.2 198.113 7.28C195.206 8.58666 193.126 11.1733 191.873 15.04C190.993 17.7867 190.526 21.16 190.473 25.16V25.88C190.473 25.9067 190.459 25.9333 190.433 25.96C190.433 26.04 190.393 26.1333 190.313 26.24C190.179 26.4 190.006 26.48 189.793 26.48C189.553 26.5067 189.353 26.4267 189.193 26.24C189.113 26.1333 189.073 26.04 189.073 25.96C189.046 25.9333 189.033 25.8933 189.033 25.84V24.52Z" fill="white"/>
<path fill-rule="evenodd" clip-rule="evenodd" d="M76.4231 18.1995C78.6817 15.4958 78.5128 11.5123 75.9241 9.00122C73.4925 6.64263 69.7383 6.37009 67 8.17731C64.2617 6.37009 60.5075 6.64263 58.0759 9.00122C55.4871 11.5123 55.3183 15.4958 57.5768 18.1995C57.6227 18.2791 57.6797 18.3526 57.7468 18.4177L66.3037 26.7178C66.6917 27.0941 67.3083 27.0941 67.6962 26.7178L76.2532 18.4177C76.3203 18.3526 76.3773 18.2791 76.4231 18.1995ZM71 12C72.1046 12 73 12.8954 73 14H75C75 11.7909 73.2091 10 71 10V12Z" fill="white"/>
</svg>
