<svg width="18" height="18" viewBox="0 0 18 18" fill="none" xmlns="http://www.w3.org/2000/svg">
<g clip-path="url(#clip0_1567_10871)">
<mask id="mask0_1567_10871" style="mask-type:luminance" maskUnits="userSpaceOnUse" x="0" y="0" width="18" height="18">
<path d="M18 9C18 4.02944 13.9706 0 9 0C4.02944 0 0 4.02944 0 9C0 13.9706 4.02944 18 9 18C13.9706 18 18 13.9706 18 9Z" fill="white"/>
</mask>
<g mask="url(#mask0_1567_10871)">
<mask id="mask1_1567_10871" style="mask-type:luminance" maskUnits="userSpaceOnUse" x="-4" y="-1" width="26" height="19">
<path d="M-3.02637 -0.52002H21.6669V18H-3.02637V-0.52002Z" fill="white"/>
</mask>
<g mask="url(#mask1_1567_10871)">
<path fill-rule="evenodd" clip-rule="evenodd" d="M-3.02637 11.8267H21.6669V18H-3.02637V11.8267Z" fill="#D80027"/>
<path fill-rule="evenodd" clip-rule="evenodd" d="M-3.02637 5.65332H21.6669V11.8267H-3.02637V5.65332Z" fill="#FFDA44"/>
<path fill-rule="evenodd" clip-rule="evenodd" d="M-3.02637 -0.52002H21.6669V5.65331H-3.02637V-0.52002Z" fill="#D80027"/>
</g>
</g>
</g>
<defs>
<clipPath id="clip0_1567_10871">
<rect width="18" height="18" fill="white"/>
</clipPath>
</defs>
</svg>
