<svg width="800" height="800" viewBox="0 0 800 800" fill="none" xmlns="http://www.w3.org/2000/svg">
<g clip-path="url(#clip0_1653_5189)">
<g opacity="0.5" filter="url(#filter0_f_1653_5189)">
<path d="M400 500C455.228 500 500 455.228 500 400C500 344.772 455.228 300 400 300C344.772 300 300 344.772 300 400C300 455.228 344.772 500 400 500Z" fill="#3FB9FA"/>
</g>
<path d="M689.577 384.417C686.726 382.604 685.881 378.81 687.694 375.958L698.131 359.539C698.613 358.782 699.617 358.558 700.374 359.039C701.131 359.521 701.354 360.525 700.873 361.282L690.435 377.701C689.583 379.041 689.981 380.824 691.32 381.675C692.66 382.527 694.443 382.13 695.295 380.79L696.1 379.523C696.581 378.766 697.585 378.543 698.342 379.024C699.099 379.505 699.323 380.509 698.842 381.266L698.036 382.533C696.224 385.385 692.429 386.23 689.577 384.417Z" fill="#AE5EAB" fill-opacity="0.3"/>
<path d="M700.105 359.461C700.629 359.794 700.784 360.489 700.452 361.013L690.014 377.432C689.014 379.005 689.479 381.098 691.052 382.098C692.625 383.097 694.717 382.631 695.717 381.058L696.522 379.791C696.855 379.267 697.55 379.113 698.074 379.446C698.598 379.779 698.753 380.474 698.42 380.998L697.615 382.264C695.95 384.883 692.464 385.659 689.846 383.995C687.227 382.33 686.451 378.844 688.116 376.226L698.554 359.807C698.887 359.283 699.581 359.128 700.105 359.461Z" stroke="#AE5EAB" stroke-opacity="0.5"/>
<path d="M708.002 389.018C705.15 387.206 704.305 383.411 706.118 380.56L712.816 370.023C713.297 369.266 714.301 369.043 715.058 369.524C715.815 370.005 716.039 371.009 715.558 371.766L708.86 382.302C708.008 383.642 708.405 385.425 709.745 386.277C711.085 387.128 712.868 386.731 713.719 385.392L714.525 384.125C715.006 383.368 716.01 383.144 716.767 383.625C717.524 384.107 717.747 385.111 717.266 385.868L716.461 387.135C714.648 389.986 710.853 390.831 708.002 389.018Z" fill="#AE5EAB" fill-opacity="0.3"/>
<path d="M714.79 369.946C715.314 370.279 715.469 370.974 715.136 371.498L708.438 382.034C707.438 383.607 707.904 385.699 709.477 386.698C711.05 387.698 713.141 387.232 714.141 385.66L714.946 384.393C715.279 383.869 715.975 383.714 716.499 384.047C717.023 384.38 717.177 385.076 716.844 385.6L716.039 386.866C714.374 389.485 710.889 390.261 708.27 388.596C705.652 386.932 704.875 383.446 706.54 380.828L713.238 370.291C713.571 369.767 714.266 369.613 714.79 369.946Z" stroke="#AE5EAB" stroke-opacity="0.5"/>
<path d="M674.374 374.756C671.523 372.943 670.678 369.149 672.491 366.297L673.296 365.03C673.777 364.273 674.781 364.049 675.538 364.531C676.295 365.012 676.519 366.016 676.038 366.773L675.232 368.04C674.38 369.38 674.778 371.163 676.117 372.014C677.457 372.866 679.24 372.469 680.092 371.129L690.522 354.723C691.003 353.965 692.007 353.742 692.764 354.223C693.521 354.704 693.745 355.708 693.263 356.465L682.833 372.872C681.021 375.724 677.226 376.569 674.374 374.756Z" fill="#AE5EAB" fill-opacity="0.3"/>
<path d="M692.496 354.645C693.02 354.978 693.174 355.673 692.842 356.197L682.412 372.604C680.747 375.222 677.261 375.998 674.643 374.334C672.024 372.669 671.248 369.184 672.913 366.565L673.718 365.298C674.051 364.774 674.746 364.62 675.269 364.953C675.794 365.286 675.949 365.981 675.616 366.505L674.811 367.772C673.811 369.344 674.276 371.437 675.849 372.437C677.422 373.437 679.514 372.97 680.514 371.397L690.944 354.99C691.277 354.467 691.972 354.312 692.496 354.645Z" stroke="#AE5EAB" stroke-opacity="0.5"/>
<path d="M662.396 360.022C659.544 358.209 658.699 354.414 660.512 351.563L661.317 350.296C661.799 349.539 662.802 349.315 663.559 349.797C664.317 350.278 664.54 351.282 664.059 352.039L663.253 353.306C662.402 354.645 662.799 356.428 664.139 357.28C665.478 358.132 667.261 357.735 668.113 356.395L674.811 345.859C675.292 345.102 676.296 344.879 677.053 345.36C677.81 345.841 678.034 346.845 677.552 347.602L670.855 358.138C669.042 360.989 665.247 361.834 662.396 360.022Z" fill="#AE5EAB" fill-opacity="0.3"/>
<path d="M676.785 345.782C677.309 346.115 677.464 346.81 677.131 347.334L670.433 357.869C668.768 360.488 665.283 361.264 662.664 359.599C660.046 357.935 659.27 354.449 660.934 351.831L661.739 350.564C662.072 350.04 662.767 349.886 663.291 350.218C663.815 350.552 663.97 351.247 663.637 351.771L662.832 353.037C661.832 354.61 662.297 356.702 663.87 357.702C665.443 358.702 667.535 358.235 668.535 356.663L675.233 346.127C675.566 345.603 676.261 345.449 676.785 345.782Z" stroke="#AE5EAB" stroke-opacity="0.5"/>
<path d="M734.632 355.749C737.781 350.796 738.461 343.238 736.451 335.531C734.254 327.104 729.313 320.091 722.537 315.783C715.762 311.476 707.314 309.978 698.751 311.565C690.92 313.016 684.365 316.839 681.216 321.791C678.471 326.109 678.645 330.77 681.722 335.668L673.772 341.392C672.786 342.102 672.219 343.251 672.254 344.465C672.289 345.68 672.922 346.794 673.947 347.446C676.094 348.811 677.777 348.681 679.13 348.577C680.266 348.489 681.086 348.426 682.32 349.211C683.554 349.995 683.845 350.765 684.247 351.83C684.727 353.099 685.324 354.678 687.471 356.043C689.617 357.407 691.3 357.277 692.651 357.173C693.786 357.085 694.606 357.021 695.839 357.805C697.069 358.587 697.359 359.356 697.761 360.42C698.239 361.688 698.834 363.267 700.979 364.63C703.125 365.995 704.807 365.864 706.159 365.759C707.293 365.671 708.113 365.608 709.345 366.391C710.576 367.173 710.866 367.943 711.268 369.007C711.746 370.275 712.342 371.854 714.487 373.218C715.512 373.869 716.79 373.97 717.905 373.486C719.019 373.003 719.819 372.001 720.043 370.807L721.852 361.18C727.594 361.887 731.887 360.067 734.632 355.749ZM716.612 370.506C716.521 370.545 716.381 370.572 716.23 370.476C714.999 369.693 714.709 368.924 714.307 367.86C713.829 366.592 713.233 365.013 711.088 363.649C708.942 362.285 707.26 362.416 705.908 362.52C704.774 362.608 703.954 362.672 702.722 361.889C701.492 361.107 701.202 360.338 700.8 359.274C700.322 358.005 699.727 356.427 697.582 355.063C695.435 353.699 693.753 353.829 692.401 353.934C691.266 354.021 690.446 354.085 689.214 353.301C687.98 352.517 687.689 351.747 687.286 350.682C686.806 349.413 686.21 347.834 684.063 346.469C681.916 345.104 680.232 345.234 678.88 345.338C677.744 345.425 676.924 345.488 675.69 344.704C675.539 344.608 675.504 344.47 675.501 344.371C675.498 344.272 675.525 344.133 675.671 344.028L683.631 338.297C686.954 342.327 692.275 346.645 699.855 351.464C707.434 356.282 713.602 359.269 718.662 360.567L716.851 370.207C716.817 370.383 716.702 370.467 716.612 370.506ZM721.049 357.815C714.069 356.558 707.499 352.474 701.598 348.722C697.16 345.901 692.691 343.014 688.912 339.324C685.748 336.236 682.011 331.86 682.623 327.095C682.786 325.822 683.271 324.614 683.958 323.534C689.02 315.571 707.119 309.832 720.794 318.525C734.469 327.218 736.953 346.042 731.891 354.006C729.391 357.939 725.305 358.58 721.049 357.815Z" fill="#AE5EAB" fill-opacity="0.3"/>
<path d="M722.269 316.206C728.72 320.307 733.493 326.912 735.756 334.882L735.968 335.657C737.955 343.28 737.26 350.682 734.21 355.48C732.886 357.563 731.203 359.026 729.171 359.889C727.135 360.753 724.718 361.029 721.913 360.684L721.448 360.626L721.361 361.088L719.552 370.714C719.371 371.681 718.752 372.501 717.883 372.944L717.705 373.028C716.743 373.445 715.641 373.358 714.755 372.796C713.002 371.681 712.364 370.432 711.918 369.305L711.736 368.83C711.538 368.308 711.348 367.797 711.036 367.32C710.716 366.83 710.281 366.393 709.613 365.969C708.945 365.544 708.365 365.336 707.786 365.253C707.363 365.193 706.951 365.203 706.536 365.23L706.121 365.261C704.796 365.363 703.252 365.483 701.248 364.209C699.495 363.095 698.857 361.846 698.41 360.719L698.229 360.244C698.032 359.721 697.841 359.21 697.53 358.733C697.209 358.244 696.775 357.807 696.107 357.383C695.439 356.958 694.859 356.749 694.279 356.667C693.856 356.607 693.444 356.617 693.03 356.643L692.613 356.674C691.289 356.776 689.744 356.895 687.739 355.621C685.984 354.506 685.344 353.256 684.897 352.128L684.715 351.654C684.517 351.131 684.326 350.619 684.014 350.141C683.693 349.651 683.258 349.214 682.588 348.788C681.919 348.363 681.339 348.154 680.759 348.072C680.335 348.012 679.922 348.022 679.507 348.048L679.091 348.079C677.766 348.181 676.221 348.299 674.215 347.024C673.33 346.461 672.784 345.5 672.753 344.451C672.725 343.468 673.154 342.535 673.909 341.917L674.064 341.797L682.014 336.075L682.395 335.8L682.145 335.402C680.642 333.01 679.867 330.704 679.786 328.494C679.705 326.288 680.314 324.142 681.638 322.06C684.593 317.411 690.699 313.728 698.12 312.197L698.843 312.056C707.293 310.49 715.61 311.972 722.269 316.206ZM718.786 360.082C713.801 358.803 707.685 355.849 700.124 351.042C692.561 346.234 687.29 341.95 684.017 337.979L683.719 337.617L683.339 337.891L675.378 343.622C675.097 343.824 675.015 344.1 675.003 344.303L675.002 344.385L675.001 344.386C675.007 344.593 675.089 344.914 675.422 345.126C676.091 345.551 676.671 345.761 677.251 345.843C677.675 345.904 678.087 345.894 678.502 345.867L678.919 345.836C680.243 345.734 681.789 345.616 683.794 346.891C685.549 348.007 686.189 349.256 686.636 350.384L686.819 350.859C687.016 351.382 687.208 351.894 687.52 352.371C687.841 352.861 688.277 353.298 688.946 353.723C689.614 354.148 690.194 354.357 690.774 354.44C691.197 354.5 691.609 354.49 692.024 354.463L692.439 354.432C693.764 354.329 695.309 354.211 697.313 355.485C699.066 356.6 699.705 357.848 700.151 358.975L700.332 359.451C700.529 359.973 700.72 360.484 701.032 360.961C701.352 361.45 701.787 361.886 702.454 362.311C703.122 362.735 703.702 362.944 704.281 363.027C704.704 363.087 705.116 363.076 705.531 363.049L705.947 363.019C707.271 362.916 708.815 362.797 710.819 364.071C712.573 365.186 713.211 366.434 713.657 367.562L713.839 368.037C714.036 368.559 714.227 369.071 714.539 369.548C714.859 370.037 715.294 370.473 715.962 370.898C716.295 371.11 716.62 371.047 716.81 370.965C716.976 370.893 717.203 370.735 717.306 370.436L717.342 370.299L719.154 360.66L719.24 360.198L718.786 360.082ZM721.063 318.104C714.096 313.675 706.016 312.929 699.05 314.292C692.105 315.651 686.167 319.128 683.536 323.266L683.276 323.697C682.735 324.645 682.339 325.683 682.163 326.778L682.127 327.032C681.802 329.566 682.638 331.966 683.924 334.096C685.05 335.96 686.538 337.65 687.959 339.084L688.562 339.682C692.384 343.413 696.896 346.326 701.33 349.144C707.033 352.77 713.453 356.771 720.297 358.179L720.961 358.307C725.31 359.089 729.656 358.455 732.313 354.274L732.553 353.879C734.98 349.708 735.518 343.069 733.854 336.417C732.132 329.532 728.029 322.532 721.063 318.104Z" stroke="#AE5EAB" stroke-opacity="0.5"/>
<path d="M709.15 337.536C708.393 337.055 708.169 336.051 708.65 335.294L711.872 330.226C712.353 329.469 713.357 329.246 714.114 329.727C714.871 330.208 715.095 331.212 714.613 331.969L711.392 337.037C710.911 337.794 709.907 338.017 709.15 337.536Z" fill="#AE5EAB" fill-opacity="0.3"/>
<path d="M713.845 330.149C714.369 330.482 714.525 331.177 714.192 331.701L710.97 336.768C710.637 337.292 709.941 337.447 709.417 337.114C708.894 336.781 708.739 336.086 709.072 335.562L712.294 330.494C712.627 329.971 713.322 329.816 713.845 330.149Z" stroke="#AE5EAB" stroke-opacity="0.5"/>
<path d="M713.064 345.364C712.778 345.182 712.546 344.909 712.417 344.567C712.101 343.728 712.524 342.791 713.363 342.474L720.385 339.823C721.225 339.506 722.162 339.929 722.479 340.768C722.796 341.608 722.372 342.545 721.533 342.862L714.511 345.513C714.013 345.701 713.481 345.629 713.064 345.364Z" fill="#AE5EAB" fill-opacity="0.3"/>
<path d="M720.562 340.29C721.106 340.085 721.711 340.329 721.965 340.839L722.011 340.945C722.217 341.489 721.972 342.094 721.462 342.348L721.356 342.394L714.334 345.045C713.99 345.175 713.622 345.126 713.333 344.942C713.159 344.832 713.015 344.674 712.922 344.477L712.885 344.391L712.886 344.39C712.68 343.846 712.924 343.241 713.434 342.987L713.539 342.942L720.562 340.29Z" stroke="#AE5EAB" stroke-opacity="0.5"/>
<path d="M700.399 337.316C699.982 337.051 699.691 336.6 699.649 336.07L699.07 328.586C699.001 327.692 699.67 326.911 700.564 326.842C701.459 326.772 702.24 327.441 702.309 328.336L702.888 335.819C702.958 336.714 702.289 337.495 701.394 337.564C701.03 337.592 700.685 337.498 700.399 337.316Z" fill="#AE5EAB" fill-opacity="0.3"/>
<path d="M700.604 327.34C701.184 327.295 701.695 327.7 701.796 328.26L701.81 328.374L702.39 335.858C702.434 336.439 702.03 336.95 701.469 337.051L701.356 337.065C701.103 337.085 700.864 337.02 700.666 336.894C700.413 336.733 700.228 336.474 700.167 336.166L700.148 336.031L699.569 328.547C699.524 327.967 699.928 327.456 700.489 327.355L700.604 327.34Z" stroke="#AE5EAB" stroke-opacity="0.5"/>
<circle cx="765.586" cy="362.504" r="5" transform="rotate(32.4447 765.586 362.504)" stroke="#AE5EAB" stroke-opacity="0.5" stroke-width="3"/>
<mask id="path-19-inside-1_1653_5189" fill="white">
<ellipse cx="791.087" cy="361.535" rx="6.5" ry="6" transform="rotate(32.4447 791.087 361.535)"/>
</mask>
<path d="M796.572 365.022L788.133 359.657C789.715 357.17 792.25 357.535 793.233 358.159L787.868 366.598L782.503 375.038C789.545 379.514 799.874 378.468 805.011 370.387L796.572 365.022ZM787.868 366.598L793.233 358.159C794.215 358.784 795.622 360.925 794.04 363.413L785.601 358.048L777.162 352.683C772.025 360.764 775.461 370.561 782.503 375.038L787.868 366.598ZM785.601 358.048L794.04 363.413C792.459 365.9 789.923 365.535 788.941 364.911L794.306 356.472L799.671 348.032C792.629 343.556 782.299 344.602 777.162 352.683L785.601 358.048ZM794.306 356.472L788.941 364.911C787.958 364.286 786.552 362.145 788.133 359.657L796.572 365.022L805.011 370.387C810.148 362.306 806.712 352.509 799.671 348.032L794.306 356.472Z" fill="#AE5EAB" fill-opacity="0.5" mask="url(#path-19-inside-1_1653_5189)"/>
<circle cx="6.5" cy="6.5" r="5" transform="matrix(-0.843909 -0.536486 -0.536486 0.843909 671.602 295.055)" stroke="#AE5EAB" stroke-opacity="0.5" stroke-width="3"/>
<circle cx="6" cy="6" r="5" transform="matrix(-0.843909 -0.536486 -0.536486 0.843909 660.547 271.438)" stroke="#AE5EAB" stroke-opacity="0.5" stroke-width="2"/>
<mask id="path-23-inside-2_1653_5189" fill="white">
<ellipse cx="631.628" cy="344.888" rx="7" ry="6.5" transform="rotate(-147.555 631.628 344.888)"/>
</mask>
<path d="M625.72 341.133L634.159 346.498C633.506 347.525 632.526 348.041 631.727 348.188C630.946 348.332 630.249 348.159 629.75 347.842L635.115 339.403L640.48 330.964C633.156 326.308 622.537 327.499 617.281 335.768L625.72 341.133ZM635.115 339.403L629.75 347.842C629.25 347.524 628.798 346.967 628.597 346.198C628.391 345.413 628.443 344.306 629.096 343.279L637.535 348.643L645.974 354.008C651.23 345.74 647.803 335.619 640.48 330.964L635.115 339.403ZM637.535 348.643L629.096 343.279C629.749 342.251 630.729 341.735 631.528 341.588C632.309 341.444 633.006 341.617 633.505 341.934L628.14 350.374L622.776 358.813C630.099 363.468 640.718 362.277 645.974 354.008L637.535 348.643ZM628.14 350.374L633.505 341.934C634.005 342.252 634.457 342.809 634.658 343.578C634.864 344.363 634.812 345.47 634.159 346.498L625.72 341.133L617.281 335.768C612.025 344.036 615.452 354.157 622.776 358.813L628.14 350.374Z" fill="#AE5EAB" fill-opacity="0.5" mask="url(#path-23-inside-2_1653_5189)"/>
<circle cx="605.972" cy="345.168" r="5" transform="rotate(-147.555 605.972 345.168)" stroke="#AE5EAB" stroke-opacity="0.5" stroke-width="3"/>
<circle cx="6.5" cy="6.5" r="5" transform="matrix(0.843909 0.536486 0.536486 -0.843909 726.034 412.605)" stroke="#AE5EAB" stroke-opacity="0.5" stroke-width="3"/>
<circle cx="6.5" cy="6.5" r="5" transform="matrix(0.843909 0.536486 0.536486 -0.843909 735.401 435.152)" stroke="#AE5EAB" stroke-opacity="0.5" stroke-width="3"/>
</g>
<defs>
<filter id="filter0_f_1653_5189" x="0" y="0" width="800" height="800" filterUnits="userSpaceOnUse" color-interpolation-filters="sRGB">
<feFlood flood-opacity="0" result="BackgroundImageFix"/>
<feBlend mode="normal" in="SourceGraphic" in2="BackgroundImageFix" result="shape"/>
<feGaussianBlur stdDeviation="150" result="effect1_foregroundBlur_1653_5189"/>
</filter>
<clipPath id="clip0_1653_5189">
<rect width="800" height="800" fill="white"/>
</clipPath>
</defs>
</svg>
