<svg width="600" height="600" viewBox="0 0 600 600" fill="none" xmlns="http://www.w3.org/2000/svg">
<g clip-path="url(#clip0_1653_5186)">
<g opacity="0.1" filter="url(#filter0_f_1653_5186)">
<path d="M300 400C355.228 400 400 355.228 400 300C400 244.772 355.228 200 300 200C244.772 200 200 244.772 200 300C200 355.228 244.772 400 300 400Z" fill="#573CFF"/>
</g>
<path d="M108.783 382.417C111.624 380.604 112.465 376.81 110.66 373.958L100.263 357.539C99.7832 356.782 98.7832 356.558 98.0291 357.039C97.275 357.521 97.0523 358.525 97.5317 359.282L107.929 375.701C108.777 377.041 108.382 378.824 107.047 379.675C105.713 380.527 103.937 380.13 103.088 378.79L102.286 377.523C101.807 376.766 100.807 376.543 100.053 377.024C99.2984 377.505 99.0757 378.509 99.5551 379.266L100.357 380.533C102.163 383.385 105.943 384.23 108.783 382.417Z" fill="#AE5EAB" fill-opacity="0.3"/>
<path d="M98.2963 357.462C97.776 357.794 97.6215 358.488 97.9532 359.012L108.351 375.431C109.346 377.004 108.882 379.097 107.314 380.098C105.746 381.098 103.662 380.631 102.666 379.059L101.864 377.793C101.532 377.268 100.841 377.114 100.32 377.446C99.7995 377.778 99.6447 378.473 99.9768 378.997L100.779 380.264C102.437 382.883 105.908 383.658 108.515 381.995C111.122 380.331 111.897 376.846 110.238 374.227L99.8408 357.807C99.5087 357.283 98.8169 357.13 98.2963 357.462Z" stroke="#AE5EAB" stroke-opacity="0.5"/>
<path d="M90.431 387.018C93.2714 385.206 94.1132 381.411 92.3076 378.56L85.6356 368.023C85.1562 367.266 84.1562 367.043 83.4021 367.524C82.648 368.005 82.4253 369.009 82.9047 369.766L89.5766 380.302C90.425 381.642 90.0294 383.425 88.6949 384.277C87.3603 385.128 85.5843 384.731 84.736 383.392L83.9337 382.125C83.4543 381.368 82.4543 381.144 81.7002 381.625C80.9461 382.107 80.7234 383.111 81.2028 383.868L82.0051 385.135C83.8107 387.986 87.5906 388.831 90.431 387.018Z" fill="#AE5EAB" fill-opacity="0.3"/>
<path d="M83.6694 367.946C83.149 368.279 82.9946 368.972 83.3263 369.496L89.9985 380.033C90.9942 381.606 90.5301 383.699 88.9622 384.7C87.3943 385.7 85.3099 385.233 84.3143 383.661L83.5119 382.394C83.1798 381.87 82.4887 381.716 81.9682 382.048C81.4476 382.38 81.2924 383.074 81.6243 383.598L82.4267 384.866C84.0851 387.484 87.5564 388.26 90.1633 386.596C92.7702 384.933 93.5444 381.447 91.8861 378.829L85.2139 368.292C84.8817 367.768 84.1899 367.614 83.6694 367.946Z" stroke="#AE5EAB" stroke-opacity="0.5"/>
<path d="M123.927 372.756C126.767 370.943 127.609 367.149 125.803 364.297L125.001 363.03C124.522 362.273 123.522 362.049 122.767 362.531C122.013 363.012 121.791 364.016 122.27 364.773L123.072 366.04C123.921 367.38 123.525 369.163 122.191 370.014C120.856 370.866 119.08 370.469 118.232 369.129L107.842 352.723C107.363 351.965 106.363 351.742 105.609 352.223C104.855 352.704 104.632 353.708 105.111 354.465L115.501 370.872C117.306 373.724 121.086 374.569 123.927 372.756Z" fill="#AE5EAB" fill-opacity="0.3"/>
<path d="M105.877 352.645C105.356 352.978 105.201 353.672 105.533 354.196L115.922 370.603C117.581 373.222 121.052 373.997 123.659 372.334C126.266 370.67 127.04 367.185 125.382 364.566L124.579 363.299L124.513 363.205C124.162 362.757 123.523 362.642 123.035 362.953C122.514 363.286 122.36 363.979 122.692 364.503L123.494 365.771C124.49 367.343 124.026 369.436 122.458 370.437C120.89 371.437 118.806 370.971 117.81 369.398L107.42 352.991C107.088 352.467 106.397 352.313 105.877 352.645Z" stroke="#AE5EAB" stroke-opacity="0.5"/>
<path d="M135.858 358.022C138.699 356.209 139.541 352.414 137.735 349.563L136.933 348.296C136.453 347.539 135.453 347.315 134.699 347.797C133.945 348.278 133.722 349.282 134.202 350.039L135.004 351.306C135.852 352.645 135.457 354.428 134.122 355.28C132.788 356.132 131.012 355.735 130.163 354.395L123.492 343.859C123.012 343.102 122.012 342.879 121.258 343.36C120.504 343.841 120.281 344.845 120.761 345.602L127.432 356.138C129.238 358.989 133.018 359.834 135.858 358.022Z" fill="#AE5EAB" fill-opacity="0.3"/>
<path d="M121.526 343.782C121.006 344.114 120.85 344.808 121.182 345.333L127.854 355.869C129.512 358.487 132.984 359.263 135.59 357.599C138.197 355.936 138.972 352.45 137.313 349.832L136.511 348.565C136.179 348.041 135.487 347.887 134.966 348.219C134.446 348.551 134.292 349.245 134.624 349.77L135.426 351.036C136.421 352.609 135.957 354.702 134.389 355.703C132.821 356.703 130.737 356.236 129.742 354.664L123.07 344.128C122.738 343.604 122.047 343.45 121.526 343.782Z" stroke="#AE5EAB" stroke-opacity="0.5"/>
<path d="M63.9039 353.749C60.7676 348.796 60.0902 341.238 62.0919 333.531C64.2805 325.104 69.2028 318.091 75.9518 313.783C82.7007 309.476 91.1152 307.978 99.6449 309.565C107.446 311.016 113.975 314.839 117.112 319.791C119.846 324.109 119.673 328.77 116.608 333.668L124.526 339.392C125.509 340.102 126.074 341.251 126.039 342.465C126.004 343.68 125.373 344.794 124.352 345.446C122.213 346.811 120.537 346.681 119.19 346.577C118.059 346.489 117.241 346.426 116.012 347.211C114.783 347.995 114.493 348.765 114.092 349.83C113.614 351.099 113.02 352.678 110.881 354.043C108.743 355.407 107.068 355.277 105.721 355.173C104.59 355.085 103.774 355.021 102.546 355.805C101.32 356.587 101.031 357.356 100.632 358.42C100.155 359.688 99.5621 361.267 97.4257 362.63C95.2883 363.995 93.6126 363.864 92.266 363.759C91.1361 363.671 90.3196 363.608 89.0928 364.391C87.8664 365.173 87.5774 365.943 87.1774 367.007C86.7006 368.275 86.1074 369.854 83.9705 371.218C82.9491 371.869 81.6765 371.97 80.5664 371.486C79.456 371.003 78.6597 370.001 78.4361 368.807L76.634 359.18C70.9152 359.887 66.6381 358.067 63.9039 353.749ZM81.8543 368.506C81.9446 368.545 82.0839 368.572 82.2344 368.476C83.4607 367.693 83.7497 366.924 84.1497 365.86C84.6265 364.592 85.2196 363.013 87.3567 361.649C89.494 360.285 91.1697 360.416 92.5161 360.52C93.6462 360.608 94.4627 360.672 95.6896 359.889C96.9153 359.107 97.2041 358.338 97.6038 357.274C98.0804 356.005 98.6732 354.427 100.81 353.063C102.948 351.699 104.624 351.829 105.97 351.934C107.101 352.021 107.918 352.085 109.145 351.301C110.374 350.517 110.664 349.747 111.065 348.682C111.543 347.413 112.137 345.834 114.276 344.469C116.415 343.104 118.091 343.234 119.438 343.338C120.57 343.425 121.387 343.488 122.616 342.704C122.766 342.608 122.802 342.47 122.804 342.371C122.807 342.272 122.78 342.133 122.635 342.028L114.706 336.297C111.397 340.327 106.096 344.645 98.5457 349.464C90.9958 354.282 84.8517 357.269 79.8117 358.567L81.6163 368.207C81.6493 368.383 81.764 368.467 81.8543 368.506ZM77.4338 355.815C84.3871 354.558 90.931 350.474 96.8096 346.722C101.23 343.901 105.681 341.014 109.446 337.324C112.597 334.236 116.32 329.86 115.71 325.095C115.547 323.822 115.064 322.614 114.381 321.534C109.338 313.571 91.3095 307.832 77.6878 316.525C64.0663 325.218 61.5918 344.042 66.6347 352.006C69.125 355.939 73.1949 356.58 77.4338 355.815Z" fill="#AE5EAB" fill-opacity="0.3"/>
<path d="M76.219 314.206C69.7936 318.307 65.0396 324.912 62.7853 332.881L62.5746 333.657C60.5949 341.279 61.2872 348.682 64.3256 353.48C65.6442 355.562 67.3217 357.025 69.3453 357.888C71.373 358.752 73.7806 359.029 76.574 358.683L77.0381 358.626L77.1246 359.087L78.9262 368.714C79.1073 369.68 79.723 370.501 80.5892 370.944L80.7655 371.027C81.7238 371.444 82.8215 371.357 83.7027 370.795C85.4486 369.681 86.0846 368.433 86.5292 367.306L86.7105 366.831C86.9068 366.308 87.0972 365.797 87.4078 365.32C87.727 364.83 88.1598 364.393 88.8254 363.968C89.4911 363.543 90.0688 363.335 90.6463 363.253C91.0679 363.193 91.4783 363.202 91.891 363.229L92.3058 363.26C93.6249 363.362 95.1624 363.481 97.1579 362.208C98.9033 361.094 99.5392 359.846 99.9836 358.719L100.165 358.244C100.361 357.722 100.551 357.211 100.861 356.734C101.18 356.244 101.613 355.807 102.278 355.382C102.944 354.957 103.523 354.749 104.101 354.666C104.522 354.606 104.933 354.616 105.345 354.642L105.76 354.673C107.079 354.776 108.618 354.894 110.614 353.62C112.361 352.505 112.998 351.256 113.443 350.129L113.625 349.654C113.822 349.131 114.013 348.619 114.324 348.142C114.644 347.651 115.078 347.213 115.745 346.788C116.412 346.362 116.99 346.154 117.568 346.071C117.99 346.011 118.401 346.021 118.814 346.048L119.229 346.077C120.548 346.18 122.088 346.298 124.085 345.023C124.966 344.461 125.51 343.5 125.54 342.451C125.568 341.468 125.141 340.536 124.389 339.918L124.234 339.798L116.316 334.075L115.937 333.8L116.186 333.403C117.682 331.01 118.455 328.704 118.536 326.494C118.616 324.288 118.009 322.143 116.69 320.061C113.747 315.412 107.664 311.729 100.273 310.199L99.5528 310.057C91.1358 308.491 82.8516 309.973 76.219 314.206ZM79.6882 358.081C84.6533 356.802 90.7456 353.849 98.278 349.042C105.811 344.234 111.061 339.949 114.321 335.978L114.619 335.616L114.998 335.89L122.927 341.621C123.207 341.824 123.289 342.099 123.302 342.302L123.303 342.385C123.297 342.591 123.217 342.913 122.884 343.126C122.217 343.552 121.638 343.761 121.06 343.844C120.638 343.904 120.227 343.894 119.814 343.868L119.399 343.837C118.08 343.735 116.541 343.617 114.544 344.891C112.796 346.006 112.159 347.255 111.714 348.383L111.532 348.858C111.335 349.381 111.145 349.893 110.833 350.371C110.514 350.861 110.079 351.298 109.413 351.723C108.747 352.148 108.169 352.358 107.591 352.44C107.169 352.5 106.759 352.49 106.346 352.463L105.931 352.433C104.612 352.33 103.073 352.212 101.077 353.486C99.3317 354.6 98.697 355.848 98.2527 356.975L98.0714 357.45C97.8752 357.972 97.6845 358.484 97.374 358.961C97.055 359.45 96.622 359.887 95.9568 360.311C95.2911 360.736 94.7138 360.945 94.1364 361.027C93.7147 361.087 93.304 361.077 92.8911 361.05L92.4769 361.02C91.1579 360.917 89.6198 360.798 87.6243 362.071C85.8783 363.185 85.2428 364.434 84.7983 365.561L84.617 366.036C84.4207 366.559 84.2303 367.07 83.9196 367.547C83.6005 368.037 83.1671 368.473 82.5016 368.898C82.1681 369.111 81.8436 369.047 81.6548 368.965C81.4899 368.893 81.2649 368.736 81.1622 368.437L81.125 368.3L81.1258 368.299L79.3207 358.66L79.2342 358.198L79.6882 358.081ZM77.4201 316.103C84.3599 311.674 92.4085 310.929 99.3474 312.292C106.266 313.651 112.181 317.127 114.802 321.266L115.06 321.696C115.6 322.644 115.994 323.683 116.169 324.777L116.206 325.03C116.53 327.565 115.697 329.966 114.415 332.096C113.294 333.961 111.811 335.649 110.395 337.083L109.794 337.682C105.987 341.414 101.493 344.326 97.0769 347.145C91.3957 350.771 85.0004 354.773 78.1824 356.18L77.5212 356.307C73.1887 357.09 68.86 356.455 66.2132 352.275L65.9738 351.879C63.5563 347.708 63.0207 341.07 64.6775 334.418C66.3928 327.532 70.4803 320.532 77.4201 316.103Z" stroke="#AE5EAB" stroke-opacity="0.5"/>
<path d="M89.2875 335.536C90.0416 335.055 90.2644 334.051 89.785 333.294L86.576 328.226C86.0967 327.469 85.0967 327.246 84.3426 327.727C83.5885 328.208 83.3657 329.212 83.8451 329.969L87.054 335.037C87.5334 335.794 88.5334 336.017 89.2875 335.536Z" fill="#AE5EAB" fill-opacity="0.3"/>
<path d="M84.6098 328.149C84.0895 328.482 83.935 329.175 84.2667 329.7L87.4756 334.767C87.8077 335.291 88.4992 335.446 89.0198 335.114C89.5405 334.781 89.6953 334.087 89.3632 333.562L86.1543 328.495C85.8221 327.971 85.1304 327.817 84.6098 328.149Z" stroke="#AE5EAB" stroke-opacity="0.5"/>
<path d="M85.3883 343.364C85.6734 343.182 85.9043 342.909 86.0328 342.567C86.3484 341.728 85.9267 340.791 85.0906 340.474L78.0959 337.823C77.2599 337.506 76.3264 337.929 76.0108 338.768C75.6951 339.608 76.1168 340.545 76.953 340.862L83.9477 343.513C84.4432 343.701 84.9731 343.629 85.3883 343.364Z" fill="#AE5EAB" fill-opacity="0.3"/>
<path d="M77.9187 338.292C77.3767 338.086 76.7761 338.33 76.5235 338.839L76.4781 338.944C76.2734 339.489 76.5169 340.093 77.0253 340.347L77.13 340.394L84.1248 343.045C84.4669 343.175 84.8323 343.125 85.1203 342.941C85.2926 342.831 85.4366 342.674 85.5294 342.478L85.5662 342.392L85.5657 342.391C85.7701 341.846 85.5267 341.242 85.0185 340.988L84.9135 340.943L77.9187 338.292Z" stroke="#AE5EAB" stroke-opacity="0.5"/>
<path d="M98.0046 335.316C98.4198 335.051 98.7098 334.6 98.7508 334.07L99.3277 326.586C99.3966 325.692 98.7303 324.911 97.8393 324.842C96.9482 324.772 96.1703 325.441 96.1014 326.336L95.5246 333.819C95.4556 334.714 96.122 335.495 97.0129 335.564C97.3755 335.592 97.7197 335.498 98.0046 335.316Z" fill="#AE5EAB" fill-opacity="0.3"/>
<path d="M97.8002 325.341C97.223 325.296 96.7139 325.699 96.6134 326.26L96.5992 326.374L96.0222 333.858C95.9777 334.438 96.3807 334.949 96.9389 335.05L97.0521 335.064C97.3034 335.084 97.5404 335.019 97.737 334.894C98.025 334.71 98.2253 334.399 98.2537 334.032L98.2529 334.033L98.8299 326.549C98.8747 325.969 98.4718 325.457 97.9135 325.356L97.8002 325.341Z" stroke="#AE5EAB" stroke-opacity="0.5"/>
<mask id="path-18-inside-1_1653_5186" fill="white">
<ellipse cx="6.48195" cy="6.49271" rx="6.48195" ry="6.49271" transform="matrix(-0.842958 0.53798 0.534992 0.844857 35.0615 351.531)"/>
</mask>
<path d="M27.6071 363.991L36.0366 358.611C35.0087 356.988 32.8457 356.487 31.1947 357.541L36.5446 365.989L41.8945 374.438C34.2081 379.343 24.0422 377.053 19.1775 369.371L27.6071 363.991ZM36.5446 365.989L31.1947 357.541C29.5437 358.594 29.0776 360.773 30.1055 362.396L38.5351 357.017L46.9646 351.637C51.8293 359.319 49.5809 369.532 41.8945 374.438L36.5446 365.989ZM38.5351 357.017L30.1055 362.396C31.1334 364.02 33.2964 364.521 34.9474 363.467L29.5975 355.018L24.2476 346.57C31.934 341.664 42.1 343.955 46.9646 351.637L38.5351 357.017ZM29.5975 355.018L34.9474 363.467C36.5985 362.413 37.0646 360.234 36.0366 358.611L27.6071 363.991L19.1775 369.371C14.3128 361.688 16.5612 351.475 24.2476 346.57L29.5975 355.018Z" fill="#AE5EAB" fill-opacity="0.5" mask="url(#path-18-inside-1_1653_5186)"/>
<mask id="path-20-inside-2_1653_5186" fill="white">
<ellipse cx="6.48195" cy="5.99327" rx="6.48195" ry="5.99327" transform="matrix(-0.842958 0.53798 0.534992 0.844857 9.92773 350.984)"/>
</mask>
<path d="M2.20608 363.022L10.6357 357.642C9.06467 355.161 6.53002 355.509 5.52651 356.15L10.8764 364.598L16.2264 373.047C9.18748 377.539 -1.11087 376.476 -6.2235 368.402L2.20608 363.022ZM10.8764 364.598L5.52651 356.15C4.52301 356.79 3.13352 358.947 4.70451 361.428L13.1341 356.048L21.5637 350.668C26.6763 358.742 23.2652 368.555 16.2264 373.047L10.8764 364.598ZM13.1341 356.048L4.70451 361.428C6.2755 363.909 8.81015 363.561 9.81365 362.92L4.46373 354.472L-0.886193 346.023C6.15268 341.531 16.451 342.594 21.5637 350.668L13.1341 356.048ZM4.46373 354.472L9.81365 362.92C10.8172 362.28 12.2066 360.123 10.6357 357.642L2.20608 363.022L-6.2235 368.402C-11.3361 360.328 -7.92507 350.515 -0.886193 346.023L4.46373 354.472Z" fill="#AE5EAB" fill-opacity="0.5" mask="url(#path-20-inside-2_1653_5186)"/>
<mask id="path-22-inside-3_1653_5186" fill="white">
<ellipse cx="6.48195" cy="6.49271" rx="6.48195" ry="6.49271" transform="matrix(0.842958 -0.53798 0.534992 0.844857 126.689 293.055)"/>
</mask>
<path d="M141.091 291.566L132.661 296.946C131.634 295.322 132.1 293.143 133.751 292.09L139.101 300.538L144.45 308.987C152.137 304.081 154.385 293.868 149.521 286.186L141.091 291.566ZM139.101 300.538L133.751 292.09C135.402 291.036 137.565 291.537 138.593 293.16L130.163 298.54L121.733 303.92C126.598 311.602 136.764 313.892 144.45 308.987L139.101 300.538ZM130.163 298.54L138.593 293.16C139.62 294.784 139.154 296.962 137.503 298.016L132.153 289.568L126.804 281.119C119.117 286.024 116.869 296.238 121.733 303.92L130.163 298.54ZM132.153 289.568L137.503 298.016C135.852 299.07 133.689 298.569 132.661 296.946L141.091 291.566L149.521 286.186C144.656 278.504 134.49 276.213 126.804 281.119L132.153 289.568Z" fill="#AE5EAB" fill-opacity="0.5" mask="url(#path-22-inside-3_1653_5186)"/>
<mask id="path-24-inside-4_1653_5186" fill="white">
<ellipse cx="5.98333" cy="5.99327" rx="5.98333" ry="5.99327" transform="matrix(0.842958 -0.53798 0.534992 0.844857 137.701 269.438)"/>
</mask>
<path d="M150.995 268.063L142.565 273.443C141.39 271.587 141.925 269.099 143.808 267.897L149.158 276.345L154.507 284.794C161.962 280.037 164.142 270.133 159.424 262.683L150.995 268.063ZM149.158 276.345L143.808 267.897C145.691 266.695 148.162 267.265 149.337 269.121L140.908 274.501L132.478 279.881C137.195 287.33 147.053 289.551 154.507 284.794L149.158 276.345ZM140.908 274.501L149.337 269.121C150.513 270.977 149.978 273.465 148.095 274.667L142.745 266.219L137.395 257.77C129.941 262.527 127.761 272.431 132.478 279.881L140.908 274.501ZM142.745 266.219L148.095 274.667C146.212 275.869 143.741 275.299 142.565 273.443L150.995 268.063L159.424 262.683C154.707 255.234 144.849 253.013 137.395 257.77L142.745 266.219Z" fill="#AE5EAB" fill-opacity="0.5" mask="url(#path-24-inside-4_1653_5186)"/>
<mask id="path-26-inside-5_1653_5186" fill="white">
<ellipse cx="6.98056" cy="6.49271" rx="6.98056" ry="6.49271" transform="matrix(0.842958 -0.53798 -0.534992 -0.844857 164.097 352.129)"/>
</mask>
<path d="M172.392 339.133L163.962 344.512C164.611 345.538 165.588 346.056 166.388 346.204C167.173 346.349 167.876 346.175 168.384 345.851L163.034 337.403L157.684 328.954C165.004 324.283 175.59 325.491 180.821 333.753L172.392 339.133ZM163.034 337.403L168.384 345.851C168.892 345.527 169.347 344.961 169.549 344.187C169.755 343.396 169.702 342.289 169.053 341.264L160.623 346.643L152.194 352.023C146.962 343.762 150.364 333.626 157.684 328.954L163.034 337.403ZM160.623 346.643L169.053 341.264C168.404 340.239 167.427 339.72 166.626 339.572C165.842 339.427 165.139 339.601 164.631 339.925L169.981 348.374L175.331 356.822C168.011 361.494 157.425 360.285 152.194 352.023L160.623 346.643ZM169.981 348.374L164.631 339.925C164.123 340.249 163.668 340.815 163.466 341.589C163.26 342.38 163.313 343.487 163.962 344.512L172.392 339.133L180.821 333.753C186.053 342.014 182.651 352.151 175.331 356.822L169.981 348.374Z" fill="#AE5EAB" fill-opacity="0.5" mask="url(#path-26-inside-5_1653_5186)"/>
<mask id="path-28-inside-6_1653_5186" fill="white">
<ellipse cx="6.48195" cy="6.49271" rx="6.48195" ry="6.49271" transform="matrix(0.842958 -0.53798 -0.534992 -0.844857 190.072 352.141)"/>
</mask>
<path d="M197.527 339.681L189.097 345.061C190.125 346.684 192.288 347.185 193.939 346.131L188.589 337.683L183.239 329.234C190.926 324.329 201.092 326.619 205.956 334.301L197.527 339.681ZM188.589 337.683L193.939 346.131C195.59 345.078 196.056 342.899 195.028 341.275L186.599 346.655L178.169 352.035C173.304 344.353 175.553 334.14 183.239 329.234L188.589 337.683ZM186.599 346.655L195.028 341.275C194 339.652 191.837 339.151 190.186 340.205L195.536 348.653L200.886 357.102C193.2 362.008 183.034 359.717 178.169 352.035L186.599 346.655ZM195.536 348.653L190.186 340.205C188.535 341.259 188.069 343.437 189.097 345.061L197.527 339.681L205.956 334.301C210.821 341.983 208.573 352.197 200.886 357.102L195.536 348.653Z" fill="#AE5EAB" fill-opacity="0.5" mask="url(#path-28-inside-6_1653_5186)"/>
<mask id="path-30-inside-7_1653_5186" fill="white">
<ellipse cx="6.48195" cy="6.49271" rx="6.48195" ry="6.49271" transform="matrix(-0.842958 0.53798 -0.534992 -0.844857 72.4688 410.605)"/>
</mask>
<path d="M58.0672 412.094L66.4968 406.715C67.5247 408.338 67.0586 410.517 65.4076 411.57L60.0576 403.122L54.7077 394.673C47.0213 399.579 44.7729 409.792 49.6376 417.474L58.0672 412.094ZM60.0576 403.122L65.4076 411.57C63.7565 412.624 61.5935 412.123 60.5656 410.5L68.9952 405.12L77.4248 399.74C72.5601 392.058 62.3941 389.768 54.7077 394.673L60.0576 403.122ZM68.9952 405.12L60.5656 410.5C59.5377 408.877 60.0038 406.698 61.6548 405.644L67.0047 414.093L72.3547 422.541C80.0411 417.636 82.2895 407.423 77.4248 399.74L68.9952 405.12ZM67.0047 414.093L61.6548 405.644C63.3058 404.59 65.4688 405.091 66.4968 406.715L58.0672 412.094L49.6376 417.474C54.5023 425.156 64.6683 427.447 72.3547 422.541L67.0047 414.093Z" fill="#AE5EAB" fill-opacity="0.5" mask="url(#path-30-inside-7_1653_5186)"/>
<mask id="path-32-inside-8_1653_5186" fill="white">
<ellipse cx="6.48195" cy="6.49271" rx="6.48195" ry="6.49271" transform="matrix(-0.842958 0.53798 -0.534992 -0.844857 63.1387 433.152)"/>
</mask>
<path d="M48.7371 434.641L57.1667 429.261C58.1946 430.885 57.7285 433.064 56.0775 434.117L50.7276 425.669L45.3776 417.22C37.6913 422.126 35.4428 432.339 40.3075 440.021L48.7371 434.641ZM50.7276 425.669L56.0775 434.117C54.4265 435.171 52.2635 434.67 51.2355 433.047L59.6651 427.667L68.0947 422.287C63.23 414.605 53.064 412.315 45.3776 417.22L50.7276 425.669ZM59.6651 427.667L51.2355 433.047C50.2076 431.423 50.6737 429.245 52.3247 428.191L57.6747 436.64L63.0246 445.088C70.711 440.183 72.9594 429.969 68.0947 422.287L59.6651 427.667ZM57.6747 436.64L52.3247 428.191C53.9758 427.137 56.1388 427.638 57.1667 429.261L48.7371 434.641L40.3075 440.021C45.1722 447.703 55.3382 449.994 63.0246 445.088L57.6747 436.64Z" fill="#AE5EAB" fill-opacity="0.5" mask="url(#path-32-inside-8_1653_5186)"/>
</g>
<defs>
<filter id="filter0_f_1653_5186" x="0" y="0" width="600" height="600" filterUnits="userSpaceOnUse" color-interpolation-filters="sRGB">
<feFlood flood-opacity="0" result="BackgroundImageFix"/>
<feBlend mode="normal" in="SourceGraphic" in2="BackgroundImageFix" result="shape"/>
<feGaussianBlur stdDeviation="100" result="effect1_foregroundBlur_1653_5186"/>
</filter>
<clipPath id="clip0_1653_5186">
<rect width="600" height="600" fill="white"/>
</clipPath>
</defs>
</svg>
